<svg xmlns="http://www.w3.org/2000/svg" viewBox="0 0 1200 1200">
  <path d="M1141-320.7c-5.5.5-6.6 2.2-4.8 7.2 1.3 3.6.8 6.7-1 6.9-5.8.5-12.1 10.6-11.5 18.2.5 5.7 2.1 6.8 7.2 5 9.4-3.4 11.9 2.1 4.9 11-3.8 4.9-6.2 15-6.6 27.7-.3 11-1.9 20.2-3.5 20.3-1.6.1-5.8 3.9-9.4 8.5l-6.6 8.2.6-19.6c.4-13.4-.5-19.5-3.1-19.2-2 .2-.9-4.3 2.5-9.9 4.9-8 5.5-12.8 2.8-22.3-2-7-5.3-11.9-8-11.7-6.7.6-16.9 13.8-21.3 27.6-2.1 6.6-5.5 12-7.5 12.2-2.2.2-2.7 3.9-1.2 9.1 2.8 10-3.1 31.5-10.4 37.9-3.2 2.8-3.9 7-2.1 11.9 3.2 8.9-2.9 25.7-10.7 29.5-6.7 3.3-7.5 2.7-9.6-7.5-1.4-7.1-.4-8 7.7-7.8 6.6.2 9.2-1.3 8.9-4.9-.2-2.8-1.7-5.7-3.3-6.5-1.6-.8-3.5-9.7-4.2-19.8-1.2-16.2-.2-19.4 8.5-28.1 11.3-11.4 15.8-36 7.3-40.5-4-2.1-4.1-3.1-.1-6.2 2.6-2.1 7.4-4 10.6-4.3 3.2-.3 5.7-2.9 5.4-5.7-.2-2.8-2.7-4.9-5.5-4.6-2.8.2-5.2-1.6-5.5-4.2-.2-2.6-5.2-6.1-11.2-8-10.1-3.2-11.4-2.8-16.5 5.3-6.5 10.2-6.6 14.4-.6 19.5 3.4 2.9 3.5 3.7.3 4-2.2.2-3.8 3.4-3.5 7.1.5 5.9-.4 6.2-8.2 3.5-4.8-1.7-8.9-4.4-9-6.1s-3.6-2.3-7.8-1.3c-5.8 1.3-7.1 3.8-6.1 10.6 1.1 7 0 8.6-4.9 7.7-7.7-1.3-11 4.6-7.4 13.3 1.7 4.2 5.7 6.2 10.9 5.7 4.6-.4 8.4 1.3 8.6 3.8.2 2.5-2.9 4.6-7 4.9-11.1.6-15.1 17.9-5.6 23.8 6.4 4 6 4.2-5.3 3.4-10.8-.7-13 .5-18.5 9.9-3.4 5.9-7.4 14.7-8.9 19.8-1.4 5-4 9.3-5.6 9.4-4.4.4-1.8 28.5 2.9 30.8 2.7 1.3 2.4 3.7-.9 7.7-6.6 7.9-6.9 7.7-8.4-6.1-.7-6.6-3-12.8-4.9-13.9-5.1-2.8-9.5-13.4-5.7-13.7 1.8-.2 3.1-5.2 2.8-11.3-.4-7.9.1-8.9 1.6-3.5 3.4 11.8 10.7 8.1 17.1-8.9 6.9-18 5-34-3.9-34.9-3.3-.3-5.8 1.4-5.6 3.9.2 2.5-3.8 6.8-9 9.7-5.4 3-9.9 8.8-10.7 13.7-1 6.2-3.6 8.6-9.8 9.1-10.9 1-14 10.9-5.2 16.3 3.7 2.2 5 4.1 2.9 4.3-2.1.2-4.3 3-4.9 6.4-.8 4.8-1.2 4.6-2-1.1-.6-4.4-4-7.7-8.8-8.6-12.9-2.3-15.4-1.1-16.8 7.8-1.7 10.3-7.6 11.8-10.9 2.7-2.6-7.4-6-7.9-15-2-7.1 4.6-7.6 14.1-.8 13.5 2.5-.2 8.9 3.8 14.4 8.9 6 5.6 13.3 9 18.4 8.6 4.6-.4 8.4.8 8.6 2.6.2 1.9-1.3 3.5-3.4 3.7-3.7.3-2.7 5 3.8 18.3 1.8 3.6-3.9-.1-12.5-8.2-10.5-9.9-18.4-14.5-23.8-14-8.7.8-10.2 7.2-3 13.2 3.4 2.9 3.1 3.8-1.3 4.1-3.1.3-6-1.8-6.2-4.5-.2-2.8-2.7-4.9-5.5-4.6-3.1.3-4.8 3.6-4.4 8.4.4 4.4-2.7 12.3-6.9 17.7-4.2 5.4-7.3 13.4-6.9 17.8.4 4.3-1.5 8.9-4.2 10.2-2.7 1.3-4.6 5.6-4.3 9.5.7 8.1-7.7 27.6-12.1 28-1.6.1-.2-5 3.1-11.6 3.3-6.6 5.6-17.1 5.2-23.4-.5-6.3.7-17.7 2.8-25.4 8-30.1 0-37.6-16.3-15.4-11 14.9-11.8 35-1.5 36.7 4.9.8 4.8 1.3-.9 2.1-4.5.6-8.6 5.5-11.6 13.6-6.9 18.5-9.2 12.8-2.6-6.6 6.7-19.7 4.5-37.6-4.9-38.5-4.2-.4-11.7 6.1-22.1 19.3-8.6 10.9-18.9 21.9-22.9 24.5-8.9 5.7-8.5 12.6 1 20.6 7.1 6 7.1 6.2 1.1 10.1-5.1 3.3-6.4 2.8-7.8-3.5-2-8.5-13.4-11.2-17.1-4-1.4 2.6-2 10.5-1.4 17.4.9 10.9-.1 12.7-6.7 13.3-20.1 1.8-29.8 29.5-12.1 34.9 6 1.8 6.5 2.6 2 3.1-3.2.4-5.7 2.9-5.5 5.5s-4.7 7.6-10.9 11.2c-6.2 3.6-11.2 8.5-11.1 10.7.1 3-.5 3-2 0-3.2-6.3-10.2-4.1-20.8 6.6-13.2 13.3-11 24.5 4.4 22.4 6-.8 11-.1 11.2 1.6.5 5.5 16.7 1.6 19.7-4.7 2.5-5.3 3.5-5.5 6.5-1.6 2.6 3.4 1.8 5.7-3.4 8.9-5.2 3.1-7.1 8.3-7.4 19.5l-.5 15.2-3.8-14.4c-3.3-12.2-4.9-14.1-10.4-12.1-3.6 1.3-6.6.9-6.7-.8-.1-1.7-5.6-2.6-12.1-2-14.6 1.3-14.6 6.3 0 19.4 11.3 10.2 13.4 13.4 8.6 13.8-1.5.1-7.7-5.4-13.8-12.3-6.1-6.9-13.8-12.3-17.2-12.1-5.2.4-5.6 2.1-2.8 11.2 1.8 5.9 4.5 11.1 6 11.6 1.5.4 2.1 3.8 1.5 7.5-.9 5.5.7 6.6 8.6 6.1 5.3-.3 7.6.4 5 1.7-2.6 1.3-7.8 6.5-11.7 11.5l-7.2 9.1-1.4-9.7c-.8-5.3-1.6-15.4-1.8-22.4-.3-15.3-9.1-17-14.1-2.9-2.1 6-4 7.6-5.9 5.1-2.1-2.8-6-2.7-13.9.4-12.4 4.7-16.4 16.3-5.3 15.3 3.7-.3 8 1 9.4 2.9 1.4 1.9 6.1 2.2 10.5.7 4.4-1.5 8-1.2 8.1.8.2 1.9-5.1 3.8-11.7 4.4-6.6.6-14.8 2.9-18.2 5.1-4.9 3.2-6.3 3-6.7-1.1-1.5-16.6-24.8 11.4-23.9 28.7.6 12 7.5 16.6 11.9 7.9 2.9-5.8 26.9-19.7 30.7-17.8 1.9.9 3.6 4.1 3.9 6.9.3 3.8-2 4.8-9 4-13.9-1.7-18.7 3.5-14.8 15.8 3.5 11.3 14 15.2 26.6 10 4.9-2 6.5-1.7 5.2.9-1.1 2.2-4.3 4.1-7.1 4.3-3.8.3-4.6 2.8-2.9 8.7 3.1 11.1-.4 10.8-8.7-.7-3.7-5.2-9.8-10.1-13.6-10.9-3.8-.8-7.1-3.7-7.3-6.4-.5-5.9-3.3-5.8-14.5.6-10.3 5.9-10.9 12.3-1.2 13.9 7 1.2 10.3 8.2 4.2 8.8-1.9.2-3.5-1.2-3.7-3.1s-3.3-3.1-7-2.8c-3.7.3-6.6 2.1-6.4 4 .2 1.9-1.2 3.5-3.1 3.7s-3.6-2-3.8-4.8c-.2-2.8-2.7-4.9-5.5-4.6-6.3.5-5.4 18.5 1.2 22.9 7.8 5.2 26.7 6.1 31.4 1.5 3.4-3.4 6-2.9 11.9 2 4.2 3.5 10.6 6.1 14.3 5.7 3.7-.3 6.8.7 7 2.3.5 6.1-4 7.2-13.7 3.2-5.6-2.3-18.1-3.8-27.9-3.4-9.7.4-18.8-.4-20.1-2-4-4.6-13 1.7-12.4 8.6.4 4.3 4.9 7.6 13.5 10.1l12.9 3.6-19.2 2c-14.1 1.4-19.3.7-19.6-2.6-.2-2.5-3.5-4.4-7.5-4-5.4.5-6.7 2.2-4.9 7.1 1.6 4.5.3 7.3-4.2 9.2-4.9 2-5.8 4.4-3.6 9.8 1.6 3.9 3.2 10 3.4 13.7.2 3.7 2.3 7.7 4.7 8.9 2.9 1.5 2.4 2.4-1.7 2.8-4.3.4-6.1-2.2-6.8-9.6-.7-7.9-2.4-10-7.7-9.5-5 .4-8.3 5.2-12.2 17-6.5 19.7-4.1 26.8 7.4 22.8 5.1-1.8 8.3-1.4 8.5 1 .2 2.1-2.6 4.8-6.3 6.1-3.6 1.3-6.5 4.1-6.5 6.2.1 2.1-1.6.5-3.6-3.5-5.5-10.9-15.5-8.8-12.3 2.6 1.5 5.2.8 10.9-1.7 13.9-9.3 11.1-4.3 14.1 22.8 14 33.4-.1 40.4.8 22.3 2.9-11 1.3-14.2 2.9-14.1 7.5.1 5.4-.1 5.4-2 0-1.8-5.1-4.2-5.5-15.9-2.5-7.6 1.9-15.2 5.1-16.8 6.9-5.6 6.3-7.9 3.6-7-8.3.7-9.2-.4-11.8-4.3-11.5-2.8.2-6.8 2.9-8.8 5.9-2.1 3-5.8 5.6-8.4 5.8-2.6.2-4.4 3.2-4.1 6.6s-3.1 8.5-7.5 11.4c-7.9 5.2-10.4 14.5-3.8 13.9 2.1-.2 3 5 2.4 13.4-.8 11.2 0 13.6 4.4 13.2 3-.3 5.9-4.1 6.7-8.6.7-4.5 4.9-10.1 9.2-12.6 4.3-2.4 7.6-6 7.5-7.9-.6-6.5 4.8-3.8 9.8 4.9 6.6 11.5 6.9 16.9.5 9.6-3.6-4.2-7.4-5-13.4-3-8.6 3-11.4 10.5-10.6 28.6.3 5.8-.5 7.7-1.6 4.4-2.5-7-14.6-6.6-16.7.6-1.6 5.6-.5 8.1 10.5 22.9 4.7 6.3 6.4 12 5.1 16.5-2 6.9-2.1 6.8-3.2.2-1.6-9.8-13.8-25.8-20.2-26.4-4.6-.5-5.1 2.5-3.5 16.8 1.4 13.1.6 18.3-3.5 21.1-8.8 6-5.7 13.4 5.2 12.5 7.6-.7 10.2 1 12 7.3 1.5 5.1.6 8.9-2.4 10.4-6.7 3.3-6.7 3.2-5.7-6.2 1.2-11.6-7.5-10.5-15.6 1.9-5.9 9-6.3 9.1-6.9 2.3-.5-6.1-2.6-7.1-14.1-6.1-11.2 1-13.4 2.3-12.9 7.9.4 4.7 2.9 6.7 8.2 6.4 4.2-.2 5.8.6 3.5 1.7s-3.9 4-3.7 6.4c.2 2.4-2.6 5.5-6.2 6.8-10.5 3.8-20.3.6-21-6.8-.5-5.6-2.1-6.2-9.6-3.6-9.5 3.3-17 9.4-16.6 13.3.5 5.6 32.7 14.9 43.7 12.6 6.3-1.3 11.6-1.1 11.7.4.1 1.5-1.3 2.8-3.1 2.9-7.2.6-2.2 10.5 5.1 10 7.2-.4 7.3-.3 1.1 2.9-7.2 3.7-15.3-.1-15.9-7.4-.5-5.3-6.6-5.3-13.4-.2-6.2 4.8 2 19.5 12.5 22.3 6.4 1.8 6.7 2.4 2.1 4.7-3 1.4-5.2 4.7-5 7.3.2 2.6-1.5 6.8-3.9 9.1-3.5 3.4-6 2.5-12.2-4.1-4.3-4.6-8.1-10.4-8.3-12.9-.6-7-7.8-4.8-17.9 5.5-21.9 22.4-45.2 49.9-44.9 53 .2 1.9-2 3.6-4.9 3.8-6.8.6-9.6 11-3.8 13.9 6.7 3.4 2.4 8.8-9.5 12.3-13.1 3.8-19.1 9.6-18.4 17.7.6 6.8 12.2 8 15.4 1.6 1-2 5.1-3.7 9.2-3.9 5-.3 5.8.4 2.5 1.9-8.1 3.8-15.8 13.2-15.3 18.7.5 6.3 14.9 19.6 20.5 19.1 2.3-.2 4.7-2.5 5.5-5.1.8-2.6 5.6-6.1 10.8-7.8 5.1-1.7 15.4-6.8 23-11.2 15.3-9 17.9-20.1 4.9-21-6.3-.4-5.3-1.6 5.4-6.3 7.2-3.2 16.5-9 20.6-12.8s8.5-6.2 9.7-5.2c1.2 1-.4 3.5-3.4 5.6-3.1 2.1-5.4 6-5.2 8.7.2 2.7-2.6 5.1-6.3 5.4-3.7.3-6.6 1.7-6.5 3.1.1 1.4-.5 6-1.2 10.3-1.1 6.3 0 7.6 5.8 7.1 5.3-.5 7.5-3.3 8.4-10.9 1.2-11 6.7-14.7 7.4-4.9.7 9.4-6.7 18.4-15.8 19.2-19.6 1.7-37.7 16.7-24.1 19.9 2.3.5 3.3 3.5 2.4 6.8-1.2 4.2-5.6 6.2-15.3 7.1-7.5.7-13.7-.3-13.9-2.2-.5-6.1-13.6-2.4-17.3 4.9-2 3.9-5.9 7.2-8.7 7.3-3.5.1-3.9-.5-1.1-1.9 5.5-2.8 4.3-12.4-2.5-19.8-3-3.4-5.9-9.5-6.3-13.7-.9-8.6-10.1-9.6-12.5-1.3-2 7-13.6 4.5-24.4-5.2-4.5-4-10.5-7.1-13.3-6.9-5.8.5-7.5-4.6-2.6-8.3 4.9-3.6 2.5-18.9-2.9-18.4-2.6.2-5.4 2.8-6.2 5.6-.9 3.3-6 5.6-13.4 6.3-14.1 1.2-15.9 10.2-2.4 12.4 10.7 1.7 12.1 10.5 1.9 11.5-10.7 1-16.8 6.6-13.8 12.7 2 4.1 7.5 4.7 26.1 3.1 13.5-1.2 23.8-.6 24 1.3.2 1.9 3.7 3.1 7.9 2.8 5.7-.5 6.6.2 3.2 2.8-2.4 1.9-3.5 5.6-2.1 8.2 1.5 3.1.1 5.7-3.9 7.1-5.2 1.9-6.5.5-7.2-7.5-.5-5.4-2.2-9.7-3.9-9.5-7.3.6-13.4 5.8-13 10.9.5 6.7-6.2 17.9-10.9 18.3-1.9.2-5.1 2.8-7.1 5.7-2 3-5.3 4.6-7.1 3.7-5.3-2.6-19.5 3.4-19.1 8.1.4 4.9 13.3 14.7 18.5 14.3 2-.2 1.5 2.2-1 5.2-7.3 8.7-10.5 7.1-17.4-9.5-6-14.3-7.6-15.7-20.4-17.3-18.9-2.4-31.1 2.2-30.3 11.3.6 6.8.3 6.8-6 2.1-3.7-2.8-9.9-4.8-14-4.4-5.9.5-7.2 2.6-6.5 10.7.5 5.7 2.7 10.1 5.1 10 7.6-.2-8.5 6.8-18 7.8-5.6.6-9.1 2.9-8.8 5.8.4 5.1 31.6 8.4 37.6 3.9 1.8-1.4 3.5.1 3.8 3.3.4 5 3.1 5.2 20.5 1.8 16.4-3.2 20.1-2.9 20.5 1.2.2 2.7-1.8 5.1-4.6 5.4-2.8.2-4.9 2-4.8 3.8.4 4.9-10.2 5.1-27.5.4-37.4-10.1-78.6-11.5-77.9-2.6.2 2.7 4 5.9 8.3 7.2 6 1.8 6.5 2.6 2 3.1-3.2.4-5.7 3-5.4 5.8.3 3.7 4.3 4.7 14.4 3.8 14.4-1.3 23.3 4.3 24.5 15.4.3 3.1 5.2 6.8 11 8.3 5.7 1.5 10.6 4.5 10.8 6.8.3 3.3-.6 3.4-4 .6-6.2-5.2-16.7-3.7-16.1 2.4.2 2.8-1.1 5.2-2.9 5.3-4.8.4-3.4 9.6 1.8 11.4 2.4.8 1.3 1.4-2.4 1.3-4.7-.2-6.6-2.5-6.2-7.1.3-3.7 1.9-7.3 3.5-8.1 4.2-2 2.5-15.8-3.1-25.7-4.5-8-5.7-8.2-24.9-4.7-11.1 2-23.4 6.2-27.4 9.4-8.7 6.9-8.6 20.8.3 25 6.6 3.1 1.7 4.7-6.8 2.3-3.1-.9-4.6-4.2-3.9-8.1.8-4.9-.6-6.5-5.6-6.1-3.7.3-11.8 0-18-.7-10.3-1.1-11-.6-8.7 5.9 2.1 5.8 1.1 7.2-5.6 7.8-4.5.4-8 2.2-7.8 4.1s-2 3.6-4.8 3.8c-11.1 1-3.2 10.3 12.3 14.5 9.1 2.5 18.1 5.7 20 7 1.9 1.4 6.6 2.3 10.4 2 3.8-.3 11.3 1.2 16.7 3.4 5.4 2.3 15.1 3.5 21.4 2.7 6.4-.8 12.7-.5 14 .6 1.3 1.1-5.3 2.7-14.7 3.5-9.5.8-18.4.1-19.7-1.7-1.3-1.8-5.7-2.9-9.8-2.6-4.1.3-13.7-1.9-21.4-4.8-7.7-2.9-16.4-5.2-19.4-5-3 .2-9.9-3.1-15.4-7.3-6.6-5.1-12.1-6.9-16.3-5.2-10 4.2-6.5 14.6 6.2 18.3L-87 979l-9.4 2.1c-12.3 2.8-14.5 11.6-4.7 17.8 9.9 6.2 8.3 20.1-2.3 21-17.3 1.5-15.9 31.2 2.1 47.4 9.7 8.7 10.8 8.9 32.1 5 15.6-2.8 22.2-2.9 22.5-.2.2 2.1 3.2 3.5 6.8 3.2 3.5-.3 7.4 1.6 8.8 4.3 1.3 2.7 5.4 4.6 9.2 4.3 3.8-.3 6.6-2.8 6.4-5.6-.2-2.8 1.8-5.3 4.6-5.5s4.8-3.2 4.5-6.5c-.7-7.6 7.1-20.7 10.5-17.8 1.4 1.2.3 4.8-2.5 8.1-2.7 3.3-4.9 7.3-4.7 9 .5 5.7 13 15.6 19 15.1 3.3-.3 6.1 1.2 6.3 3.2.2 2 3.7 2.8 7.8 1.9 6.1-1.4 7.5-4.3 7.5-15.3-.1-15.1 3.5-22.5 11.5-23.2 4-.4 3.6 1-1.6 5.4-10 8.4-8.2 28.4 2.7 29.2 4.6.3.7 2.2-9.5 4.6-18 4.4-20.1 7.5-19.4 27.6.2 6.3-.2 7-1.8 2.5s-4.2-5.4-10.2-3.4c-10.6 3.7-10.4.1.3-5 7-3.4 8-5.6 5.6-12.4-3-8.7-15.1-20.6-20.5-20.2-1.8.2-4.2 2.4-5.5 5-3.9 8-16.2 10.3-22.7 4.2-7.1-6.6-36.8-12.2-39.3-7.4-4.2 8-15.1 8.5-25.3 1.2-17.6-12.6-23.1-7.9-19.7 17 1.6 11.5 1.9 11.8 15 10.1 12.9-1.6 13.1-1.5 4.5 2.8-8.5 4.2-12 13.6-4.8 12.9 1.9-.2 3.5 1.2 3.7 3 .5 5.8-9.3.7-11.8-6.1-3.4-9.4-17.7-5.8-18.3 4.6-.3 5.2 1.3 7.5 4.9 7.2 2.9-.3 5.4.9 5.5 2.6.1 1.7-2.8 2.6-6.6 2-9.9-1.7-8.1 11 2.1 14.8 15.1 5.5 27.4 2.7 34.5-7.9 3.7-5.6 7.9-8.8 9.7-7.2 1.7 1.5 1.3 3.5-1 4.5-2.2 1-4 3.2-3.8 4.8.1 1.6-.9 7-2.3 12-2.4 8.6-3 8.9-10.5 4.5-10.7-6.2-13.9-5.3-20.2 5.2-7.3 12.2-1.5 38.9 8.3 38.1 3.6-.3 7.2-2.9 8-5.8 2.2-7.8 7.1-6.8 5.7 1.2-.6 3.8.4 6.8 2.3 6.6 2.3-.2 2.6 3.7.8 11.8-1.4 6.7-1.5 13.1 0 14.3 4.6 3.9 13.5-5.7 13.8-14.9.2-5.4 4.2-12.3 10.3-17.4 5.5-4.6 11.8-11.3 14-14.8 3.2-5.3 8.6-6.8 31.5-8.6 23.6-1.8 26.1-1.5 16.6 2.2-7.7 3-11.9 7.3-13.9 14.5-3.8 13.6-8.5 13.7-5.1.1 1.5-5.8 1.7-11.3.6-12.2-4.3-3.6-21.1 4.8-31.2 15.7-9.1 9.8-9.9 12.2-6 17.4 4.1 5.5 3.7 6-4.1 4.7-7.1-1.1-8.6-.2-8.1 5.2.7 7.7-7.4 17.2-16.8 19.8-8.7 2.4-9.4 11.6-1.2 18.5 4.7 3.9 5.4 5.9 2.5 7.2-2.2 1-3.9 4-3.7 6.6.6 7.4-4.7 6-10.3-2.6-3.6-5.5-9.2-8.1-18.7-8.9-15.7-1.3-19.6 2.9-17.4 18.6 3 21.4 2.2 32-2.3 32.4-4.7.4-11.1 14.7-10.4 23.2.2 2.7 2.5 4.7 5.1 4.4 2.5-.2 9.4.1 15.3.8 8.5.9 10.6.1 10.2-4.2-.3-3-3.7-7.1-7.6-9.1-7.3-3.7-10.8-15.3-4.8-15.8 1.9-.2 3.6 2 3.8 4.9.6 7 11 9.6 14.2 3.4 1.8-3.5 2.7-3.8 3-.8.2 2.3 4.3 3.9 9.1 3.4 7.4-.6 8.4-2 6.8-9.6-1-4.9-.3-9.6 1.7-10.4 2.3-1 3.3 1.6 2.7 7.1-.6 6.2.6 8.5 4.2 8.2 12.7-1.1 7.6 24.6-7.1 35.6-2.3 1.7-3.6 7.9-3.1 13.8s-.4 9.2-1.9 7.4c-4.2-5-19.9-13.3-24.5-12.9-8.4.7-10 55.9-2.1 72.1 5.7 11.5 43 42.5 51.8 43 10.2.6 12.9 7.3 4.3 10.9-8.2 3.4-8 12 .5 17.4 8.8 5.5 14.8 4.4 14.5-2.5-.2-4.7.2-4.8 2.1-1 4.2 8.4 19.7 17.2 36.5 20.8 12.7 2.7 24 1.6 23.7-2.3-.2-1.9 5-3.8 11.5-4.4s11.7-2.5 11.5-4.2c-.2-1.7 4.9-2.7 11.1-2.2 7.8.6 12.8-1 16.2-5 2.7-3.2 7.7-6.2 11.1-6.5 3.4-.3 9.4-6.4 13.3-13.5 4-7.1 12-15.6 17.8-19.1s10.5-7.5 10.3-9.1c-.1-1.6 3.4-4.7 7.9-6.8 4.5-2.2 7.9-6.2 7.7-9-.2-2.8 1.1-5.3 2.9-5.5 1.9-.2 3.1-3.3 2.8-6.9-.5-5.2 3.5-8.2 17.5-13.6 9.9-3.9 17.9-8.5 17.8-10.2-.2-1.8-3-6.8-6.4-11.1-3.4-4.3-4.8-8-3-8.1 3.1-.3 9.5 8.6 14.3 20.1 2 4.8 4.8 5.2 16.6 2.4 15.1-3.6 19.1-7.8 27.2-27.5 6.4-15.7 8.7-41.5 3.6-41-2 .2-3.8-.9-3.9-2.5-.1-1.6 3.6-2.6 8.3-2.1 9.1.9 9 1.8 7-33.6-.5-9.9 13.4-20.7 18.3-14.2 1.8 2.4.2 4.7-4.4 6.3-8.3 2.8-10.4 12.9-8.7 40.2.6 9.6-.3 18.7-2.1 20-4.2 3.1 2.8 36.1 8.2 39 2.2 1.2 8.7.8 14.7-.9 7.9-2.2 10.9-1.7 11.2 1.7.2 2.5 3.3 6.1 6.8 7.9s8.9 9.5 11.9 17c7.1 17.8 13.5 15.9 25-7.2 7.9-15.8 8.6-20.6 6.7-44.7-2-24.7-1.4-27.9 6.1-36.9 4.5-5.4 7.9-13.6 7.5-18.2-.8-9.5 4.1-14.5 14-14.1 4.3.2 11.5-5.5 19.4-15.4 11.1-13.8 12.9-19.2 15.8-44.9 3.4-30.1 2.6-34.5-14.4-89.1-1.9-6.2-.3-7.5 12.9-10.7 14.4-3.5 15.4-4.5 21.7-23.1 3.7-10.7 6.4-21.6 6.2-24.2-.7-8.6-16.2-30.3-21.3-29.8-5.8.5-26.7-31.5-22.8-34.9 1.5-1.3 5.7-14.9 9.6-30.4 7.1-28.1 7.1-28.2-.3-54.3-6.6-23.4-6.9-27-2.9-34.5 2.5-4.8 3.4-12.2 2-17.1-1.7-6-.6-11.3 3.7-16.9 5.9-7.6 6-9.3.3-27.7-5-16.3-5.4-21.5-2.3-30.4 2-5.9 4.8-10.9 6.2-11s2.1-5.2 1.5-11.4c-.9-10.7 9.6-29.1 31.7-55.2 3.8-4.5 6.8-9.4 6.7-10.9s4.8-5 10.9-7.8c8.8-4.1 14.5-4.6 27.8-2.3 9.2 1.5 17.8 4 19 5.4 1.3 1.5 6.5 1.8 11.7.8 12.6-2.6 19.2-17.4 19.9-44.4.5-20.3.2-21.3-7.9-23.6-20.8-5.9-20.8-12.5.1-46.2 6.1-9.9 14.6-25.9 18.8-35.6 4.2-9.7 9.4-19.3 11.5-21.4 2.1-2.1 4.2-12.9 4.5-24.1.3-11.2 1.3-28.1 2.2-37.5s1.7-27.2 1.7-39.7v-22.7l11.1.8c7.9.6 16-2.2 28.1-9.7 17.6-11 18.1-12.7 9-31.2-1.5-3.2-.7-5.4 2-5.7 7.7-.9 17.6-13 24-29.4 3.4-8.6 12.2-23 19.6-32 17-20.9 19-39.3 6.8-62-8.6-16-8.1-20.5 2.7-24.9 4.7-1.9 9.1-10.4 13.9-26.2 5.7-18.9 10.1-26.3 22.6-37.8l15.5-14.2 8 6.2c12.7 9.9 20.3 10.2 27 .9 6.8-9.3 7.5-13.6 7.6-44.4 0-23.6 6.2-37.7 11.2-25.6 2 4.8 7 6.9 18.5 7.6 8.7.5 25.8 4.8 38.2 9.6l22.4 8.8 7.3-10.7c8.5-12.5 9-18.9 1.4-21-4.7-1.3-4.6-2.6.6-9.3 3.7-4.8 6.2-15.2 6.6-27.4.6-17.7-.1-20.5-7.7-27.3l-8.5-7.6 11.6-1c6.3-.6 13.6-2.6 16-4.5 2.9-2.2 6.3-2 9.6.9 2.8 2.4 7.5 4.1 10.4 3.9 4.2-.4 4.7-3.1 2.3-13.8-2.4-10.8-1.9-14.3 3.2-18.5 9.2-7.7 18.5-4.6 28.1 9.4 4.7 6.8 9.7 12.3 11.2 12.2 1.5-.1 2.9 2.1 3.2 4.9s2.1 7.6 4 10.7c1.9 3.1 6.8 11.7 10.7 19.3 5.5 10.6 8.9 13.6 14.8 13.1 4.2-.4 8.8.8 10.1 2.5 1.3 1.8 6.1 2.9 10.6 2.5 4.5-.4 8.3.8 8.5 2.6.5 5.3 9.6 3.1 11.2-2.7.8-2.9 5.3-5.6 10-6 6.1-.5 8.8-3 9.8-9 1.7-10.7 9.3-14.6 12.7-6.5 2.6 6.3 5.6 7.4 25.9 9.7 7.2.8 12.4 3.7 13.8 7.6 1.2 3.4 4.5 6 7.2 5.7 6.8-.6 16.4-15.1 15.7-24-.9-12.7 2.4-18.4 14.2-24.6l11.5-6-4.8-31c-6.1-39.2-3.4-78.7 5.9-87.7 3.6-3.5 8.6-11.3 11.1-17.4 4-9.8 5.8-11 14.8-10 7.9.9 11.7-.7 16-6.6 3.1-4.2 6.5-7.8 7.8-7.9 1.2-.1 6.7-4 12.1-8.7 7.8-6.8 10.2-7.5 11.9-3.8 3.6 8 31.2 28 37.7 27.5 3.4-.3 6.2 1 6.4 2.8.2 1.9 3.4 3.1 7.1 2.8 4.7-.4 9.3 3.8 15.1 13.3l8.3 14-7.2 18c-9.7 24.1-8.2 42.9 3.9 48 7.9 3.4 9.3 3 13.2-3.2 2.4-3.8 3.8-12.6 3.3-19.6-.8-10 1.5-15.6 11-27.3 6.5-8 13.4-14.7 15.2-14.9 4-.3 6.8-8.5 6-17.5-.7-8.3 4.9-12.2 11.4-7.7 4.1 2.8 7.3 2.6 14.9-1.4 11.2-5.8 11.5-9.7 2.2-25.5-7.4-12.6-22.5-15.4-22-4.1.2 3.7-1.3 2.6-4-3-6.8-14.5-13.4-10.3-14.3 8.9-.4 9.4-1.9 17.1-3.4 17.3s-2.1-2.9-1.4-6.7c.9-5.2-.5-6.7-5.6-6.3-3.7.3-7.4 2.9-8.2 5.8-3.3 11.6-7.3 4.8-5-8.6 1.9-10.7 1.5-14.6-1.4-15.4-2.2-.5-3.5-3.7-3-7.1.9-5.2-2.8-6.5-23.3-8.6-13.4-1.3-25.3-3.8-26.6-5.4-1.2-1.6.6-2.3 4.2-1.6 31.9 6.1 63.1-1.8 70.5-17.8 4.6-9.8 15.1-18 24.4-18.8 3.2-.3 4.5-3.9 4-10.2-1.2-14-4.9-20.2-11.8-19.6-3.3.3-8.2-1.6-10.9-4.4-3.2-3.3-8-4.1-13.9-2.4-7.7 2.2-8.7 1.7-7.7-4.2 1.3-7.5-9.3-19.3-16.6-18.7-2.5.2-4.3 2.7-4.1 5.4s-1.1 5.2-2.9 5.3c-1.9.2-3.6-2-3.8-4.8-.6-6.7-8.7-5.6-13.8 1.8-3.7 5.4-4.4 4.8-6.8-5.3-2.4-10-3.9-11.4-14-11.5-8-.1-13.5 2.2-18.4 7.7-6.2 6.9-6.7 11-4.4 36.3 1.7 17.9 1.3 30.2-1 33-2.9 3.4-3.3 1.9-2.4-6.7 1.1-9.7.3-11-6.2-10.4l-7.4.6 6.2-9.4c8.3-12.7 7.4-16.4-5-20.7-12.7-4.3-14-9.5-2.8-10.5 5.8-.5 9.4-3.9 12.5-11.8 6.5-16.4 5.1-21.4-4.8-18-6.9 2.4-8.3 1.7-8.9-4.3-.6-6.4-1.9-6.8-12.2-3.9-7.2 2-11.7 2-11.9-.2.3-1.9-3-3.3-6.9-2.9h0zm-126.8 21.2c-4.5.4-6.5 2.8-6.1 7.3.4 4.5 2.8 6.5 7.3 6.1s6.5-2.8 6.1-7.3c-.4-4.4-2.8-6.5-7.3-6.1zm-27.3 12.6c-4.3.4-7.8 10.3-7 20.1.2 2.3 3.3 4 7 3.6 5.5-.5 6.5-2.8 5.7-12.4-.7-7.7-2.6-11.6-5.7-11.3zm-68.6 90.8c14-1.2 27.4-10.3 36.5-24.7 7.7-12.1 9-33.6 2.1-32.9-4.4.4-12.5 9.7-12.1 14 .2 1.7-3.6 2.7-8.3 2.2-7.1-.7-8.4.5-8.1 7.2.2 4.4-.5 6.1-1.7 3.9-2.5-4.8-11.8-4.7-11.3.1.2 1.9-4.3 3.8-9.8 4.3-7.9.7-10 2.4-9.5 7.6.3 3.7 2.8 6.5 5.6 6.3 2.8-.2 5.3 2.6 5.6 6.3m69.3-40c-2.8.6-5.7 2.8-6.5 5.7-.8 2.9 1.5 10.3 5.2 16.6 9 15.3 17.8 13.1 17.8-4.3 0-9.7-1.3-12.6-5.3-12.3-2.9.3-5.4-1.1-5.6-2.9-.3-2.6-2.8-3.4-5.6-2.8zm-156.1 74.6c-3.1.3-4.8 3.6-4.3 8.9.5 5.2 2.6 8.3 5.8 8 3.1-.3 4.8-3.6 4.3-8.9-.5-5.2-2.7-8.2-5.8-8zm-30.2 9.8c-2.8.2-4.3 2.5-4 6.8.3 3.7-.9 6.9-2.8 7-7 .6-1.9 12.3 7.4 16.8 11 5.4 15.5 5.9 22.9 2.2 8-3.9 5.2-13.3-7-24-7-6.1-12.9-9.1-16.5-8.8zm-19.1 8.1c-2.8.2-4.8 3.4-4.5 7.2.3 3.7 2.8 6.5 5.6 6.3 2.8-.2 4.8-3.4 4.5-7.2-.3-3.7-2.8-6.5-5.6-6.3zm71.4-6.2c-10.3.9-15.4 7.4-14.4 18.6.5 5.9 3 9.6 6.8 10.2 9.5 1.6 13.6 1.3 19.2-1.4s6.3-12.1.9-11.6c-1.9.2-3.7-3.5-4.1-8.1-.5-6.5-2.4-8.2-8.4-7.7h0zM755-131c-5.5.3-12.7 4.7-13 10.6-.4 7.9 8 10.3 11.5 3.2 1-2 3.5-3.7 5.5-3.9 2-.2 1.4 2.7-1.4 6.4-6 7.9-6 13.4 0 15.3 2.4.7.9 1.8-3.5 2.3-6 .7-7.5 2.4-5.9 7 2.4 6.8-5.7 14.6-16.3 15.5-8.3.7-8.3 9.8 0 11.2 3.7.6 2.5 1.6-3.2 2.3-8.6 1.1-11.7 7.4-5.9 12.2 9.2 7.8 33.1-7.4 41.2-26.2 3.1-7.1 7-13.1 8.8-13.3 1.8-.2 6.4-4.8 10.1-10.2 5.4-7.8 6.9-8.7 7.4-4 .7 6.8 10.9 7.1 16.5.5 5.1-6 3.6-16.6-2.2-16.1-2.6.2-11.5-2.4-19.7-5.9-10.9-4.6-15.2-5.2-16-2-1.5 6.2-7.2 5.9-7.8-.4-.1-3.4-2.8-4.7-6.1-4.5zm530.1-42.9c-7 .6-8.6 2.5-8 9.5.6 7 2.1 8.3 8.2 6.9 4.8-1.1 7.7-4.6 8-9.5.4-6.2-1.2-7.5-8.2-6.9zM842.6-108c-2.8.2-4.8 3.4-4.5 7.2.3 3.7 2.8 6.5 5.6 6.3 2.8-.2 4.8-3.4 4.5-7.2-.3-3.8-2.8-6.6-5.6-6.3zM704.9-58.6c-6.6.6-21 16.6-20.5 22.8.3 3-2.7 6.5-6.5 7.9-5.5 1.9-6.4 4.3-4.6 10.9 1.9 6.6 1 8.6-3.9 9-8 .7-7.5 10.8.5 10.3 4.5-.2 4.2.6-1.4 3.4-8.2 4.1-9.2 14.3-1.4 13.6 2.8-.2 5.2 1.1 5.3 2.9.2 1.9 2.6 3.2 5.3 2.9s4.9-2.6 4.6-5.3c-.6-7.3 12.2-16.6 24.4-17.6 10.4-.9 10.9-1.7 13.1-20 1.9-16.2 1.2-20.7-4.3-30.2-3.4-6-8.2-10.8-10.6-10.6zm-79.3 40.8c-5.7.5-25.8 25.6-33.5 41.7-4.8 10.2-3.7 19.2 2.4 18.7 5.7-.5 7.2 4.7 2.4 8.3-1.8 1.3-2.7 7.7-2.2 14.1.8 9.4-.6 12.4-7.1 15.6-4.5 2.2-8 6.1-7.7 8.6.6 6.5 9.4 26.1 13.9 30.9 6.1 6.6 14 1.9 19.2-11.2 5.9-15 15.7-25.1 25.3-26 12-1.1 23.5-35.5 11.8-35.2-3.4.1-3.4-.3-.2-2 8.5-4.3.4-21.6-9.7-20.7-2.2.2-4.6 3.1-5.4 6.4-.7 3.3-3.8 10.5-6.7 16-3.4 6.3-3.9 10.7-1.6 12 2.2 1.3.9 5.3-3.3 10.3-4.1 4.7-7.2 6.4-7.4 3.9-.2-2.3 1-5.8 2.6-7.8 1.6-1.9 2.8-10.3 2.6-18.6-.3-13.5-1.2-15.1-9-16.6-8.3-1.6-8.2-1.7-1-2.7 5.9-.8 9.1-5.5 14.3-20.8 8.2-23.3 8.2-25.6.3-24.9zm-48.2 41.6c-3.6.3-6.3 2.8-6.1 5.6.2 2.8-2.6 5.3-6.3 5.6s-6.5 2.8-6.3 5.6c.2 2.8 3.4 4.8 7.1 4.5 4.6-.4 6.2 1.1 5.1 4.9-1 3.4-3.6 4.8-7.2 3.6-3.1-1-9.7-2.2-14.5-2.7-8-.7-9 .5-9.9 12.3-.6 7.2-.8 15-.6 17.3.5 6.6 10 4.1 14-3.8 2-3.9 6.6-7.2 10.4-7.4 4.9-.2 5.4.3 1.9 2.1-7.2 3.6-12.2 12.8-11.6 21.4.4 5.9 2.5 7.4 9 6.8 6.7-.6 8.3-2.4 7.7-8.8-.6-6.3 1.5-8.9 9.2-11.3 10.1-3.1 11.9-10.1 8.1-31.2-.7-3.7-1.7-10.8-2.2-15.9-1-6.8-3-9-7.8-8.6zm111.7 10.6c-5.5.5-24 20.3-23.6 25.3.2 2.1 2.6 3.7 5.3 3.5 6.5-.6 27.8-13.2 27.5-16.3-.4-6.1-5.4-12.9-9.2-12.5zm-49.2 51.9c-7.5.9-19 14.9-16.5 20 2.6 5.4 4.2 5.6 15 1.7 5.5-2 7.2-5.1 6.6-12.3-.5-5.7-2.7-9.7-5.1-9.4zm-78.7 17.9c-11.6 1-16.5 3.3-22 10.4-3.9 5-7.3 7.4-7.5 5.3-.2-2.2-5.5-3.4-12.1-2.9-6.5.6-11.7 2.3-11.5 3.9.1 1.5-3.2 3-7.4 3.2-6.6.3-7.6 2.3-7.4 14.8.1 9.2 1.7 14.3 4.2 14.1 8.7-.8 25.3-13.3 27-20.4l1.8-7.6 2.2 7.4c2.4 8.5 13.3 9.1 21.2 1.3 7.7-7.6 22.7-14.8 23-11 .2 1.8 2.6 3.1 5.3 2.8 5.3-.5 5.9-12.8.9-19.2-1.6-1.9-9.5-2.8-17.7-2.1zm-74.9 36.7c-2.6.4-7.2 2.5-11.9 5.6-11.9 7.8-19.8 22-18.8 33.8.8 9.5 10.3 7.9 13.9-2.4 1.6-4.6 6.4-10.3 10.6-12.7 7.5-4.2 12.8-20.2 8.1-24.1-.5-.4-1.1-.4-1.9-.2h0zm-39.2 57.6c-.8.1-1.6.2-2.5.4-5.5 1.1-9.4 4.2-9.8 7.9-.5 4.7 1.7 5.8 9.8 5.1 8.2-.7 10.2-2.3 9.7-7.8-.5-5-1.9-6.4-7.2-5.6zM-700.3 1382.1c40 64.5 80.7 121.9 123.4 174.8 74.9 92.3 189.7 201.6 280.7 266.3 23 16.4 85 57.9 99.1 66.5 32.1 19 55.4 32.1 77.9 43.5 13.2 6.8 25.3 13.2 26.6 14.2 12.6 9.4 120.4 54.6 164.4 68.8 8.3 2.8 22.5 7.6 31.6 10.9 9.1 3.5 21.5 7.3 27.8 8.6 6.3 1.5 15.7 4.3 21 6.6 5.1 2 17.7 5.6 27.8 7.6 9.9 2.3 26.3 6.3 35.9 9.4 9.9 2.8 26.1 6.1 36.4 7.3 10.1 1.3 19.7 3.3 21.5 4.6 4.3 3.5 20.7 6.8 55.9 11.6 16.7 2 40.7 5.6 53.1 7.6 12.6 2 47.8 5.1 78.4 6.3s71.8 3.5 91.8 5.1c30.9 2.3 61.2 1.8 99.1-1.3 4.8-.3 34.4-1.5 65.8-2.5 40.2-1.3 68-3.5 94.8-7.8 21-3.3 48.3-7.3 60.7-8.9 12.6-1.5 29.6-5.1 37.9-7.6 8.3-2.8 23.3-6.1 33.1-7.3 9.9-1.3 23-4 29.1-6.3 6.1-2 21.5-6.1 34.4-8.9 12.9-2.8 27.6-6.6 32.6-8.9 5.3-2 15.7-5.6 23.5-7.3 20-5.1 76.9-24.8 107.7-37.4 7.1-2.8 18.7-7.3 26.3-9.9 7.6-2.5 14.9-5.8 16.4-7.1 1.5-1.3 8.6-4.6 15.4-7.3 46.5-18.5 147.2-74.1 208.7-115.3 28.6-19.5 33.6-23 72.1-51.8 128.5-96.6 259.8-235 342-360.7 51.6-79.2 92.3-151.5 116.9-208.7 42-97.1 53.1-127.7 74.6-204.9 13.7-49.3 18.7-69.8 20.5-83.5.8-7.6 3.8-21.2 6.3-30.4 2.8-9.1 7.3-34.1 10.4-55.6 2.8-21.5 6.8-50.6 8.9-64.5 1.8-13.9 3.5-41.2 3.5-60.7s1.8-57.7 4-84.7c3.5-45 3.3-91.8-.5-118.9-.5-4.8-2.3-36.7-3.5-70.8s-4-72.6-6.3-85.5c-2-13.2-5.6-36.9-7.6-53.1-2.3-16.2-6.1-36.9-8.6-46-2.8-9.1-5.6-22.3-6.6-29.1-.8-7.1-4.3-22.3-7.6-34.1-3.3-11.9-7.1-28.1-8.9-35.9-5.3-27.1-43-137.1-62.5-182.9s-77.6-160.4-87.8-173.3c-1.8-2-13.2-19.7-25.3-39.2-24.8-39.5-28.8-45.5-60.7-88.5C1700-455 1564.7-580.2 1401.1-684.7c-55.1-35.4-145.7-82.5-207.9-108-81.7-33.6-183.6-65.8-230.9-72.6-8.3-1.3-22.5-4.6-31.6-7.3-9.4-2.8-30.6-6.8-47.3-8.9-16.7-2-39-5.3-49.3-7.6-10.4-2-40.5-4.8-67-6.3-48.3-2.3-274.9-8.1-284.5-6.6-21 3.3-31.4 4.3-70.8 6.6-23 1.3-53.6 4.6-68.3 7.1-14.7 2.8-36.7 6.3-49.1 7.8-12.4 1.8-28.8 5.1-36.7 7.6-7.8 2.5-21.5 5.8-30.6 7.3-43 7.3-142.6 37.9-204.9 63.2-10.4 4-25.3 10.1-32.9 13.2-28.1 10.9-138.3 67-154 78.2-4 3-7.8 5.3-8.6 5.3-5.8 0-95.4 59.4-138.3 92.1-152 114.6-271.9 244.3-374.3 404.9-33.6 52.6-82.7 146.4-108.5 207.4-17.7 42-54.6 149.5-59.9 174.5-1 4-4.3 16.7-7.3 27.8-3 11.1-6.6 26.3-7.6 33.9-1 7.6-4 20-6.6 27.6s-6.1 23.5-7.6 35.7c-1.5 11.9-5.1 34.7-7.8 50.3-2.8 15.9-6.1 49.3-7.1 74.6-3 58.9-.3 292.4 1.5 345 .8 24 3.3 54.6 6.1 70.3 2.5 15.2 6.1 39.7 7.8 54.4 1.5 14.7 4.6 31.6 6.6 37.9 2 6.3 5.8 22.8 8.6 36.7 4.8 24.8 18.2 77.1 25.8 99.9 2 6.3 5.6 16.9 7.6 24 9.1 29.1 25.8 72.6 44.8 117.6M596.7-848.4c42.2 13.4 54.4 61.5 24 94.8l-8.9 9.9 13.2 24.5c17.7 33.9 17.5 33.6 28.6 24 5.1-4.6 9.6-8.1 10.4-8.1.8 0 8.9 3.8 18.2 8.1 26.3 12.9 48.6 9.4 48.6-7.3 0-7.6-5.8-13.2-27.3-26.1-32.9-19.5-45.5-39.5-42.7-67.3 2.5-24.5 14.9-39.7 41-50.6 14.9-6.1 44.5-4 62.2 4.8 15.7 7.6 22.5 17.2 22.5 31.4 0 19-15.9 24.5-37.7 13.4-18.5-9.4-33.1-6.3-33.1 6.6 0 6.3 1.5 7.6 31.6 27.1 40.2 26.1 48.8 55.4 25.8 89.3-5.3 7.8-12.9 14.7-22 19.7-12.9 7.3-15.7 7.8-39.2 7.8-25.8 0-33.4-2.3-55.6-16.2-4.6-2.8-6.6-2.5-15.2 3.5-8.3 5.6-12.1 6.6-21 5.6-15.2-1.8-21.8-8.9-35.9-38.7-14.7-31.1-24.3-39.7-34.1-29.8-3.3 3.3-3.5 7.8-2.3 25.8 2 28.6-1.8 39.5-15.9 43.5-6.8 2-11.6 2-16.4.3-13.7-5.3-14.7-9.9-18.7-81.7-5.1-97.6-5.1-98.9 3.8-108.8 7.3-8.1 8.1-8.3 33.6-9.9 30.6-1.7 46.8-.7 62.5 4.4zm-147 7.3c8.3 4 10.4 8.3 10.4 20.2 0 15.9-13.2 23.8-40 24-5.8 0-14.7 1.8-19.5 3.5-7.3 3-8.9 5.1-8.9 11.4 0 16.7 8.6 22.5 25.8 17.7 18.5-4.8 30.1-3.8 36.7 3.8 10.6 12.4 5.8 29.1-10.1 34.1-4.3 1.3-14.7 3.3-22.8 4.3-19.7 2.3-24 7.8-19 25.5 4.6 16.2 10.6 18.2 35.4 12.4 21.5-5.1 30.9-3.8 36.7 5.3 5.1 7.6 4.8 20.5-.3 25.5-4.8 4.8-43.8 12.4-75.4 14.7-23.5 1.8-24.5 1.5-30.6-4.6-4.8-4.8-6.8-10.9-9.1-25-1.5-10.4-5.1-30.6-7.8-45.3-7.3-39.7-13.7-86.2-13.4-95.4.8-18.5 8.9-22.8 57.7-30.6 38.8-5.8 45.6-6 54.2-1.5zm-161.9 32.7c5.6 5.8 9.1 17.5 30.6 101.7 5.6 21 11.1 41.2 12.6 45 7.1 19 0 34.1-18.7 39.5-21.5 6.1-25 3.8-68-40.5-21.5-22.3-41-40.5-43.3-40.5-6.1 0-5.1 7.3 7.3 48.3 6.3 20.7 11.4 40.2 11.4 43.5 0 7.8-6.1 15.7-14.9 19.5-9.6 3.8-20.2-.8-25-10.9-3.3-7.1-26.3-83.2-32.1-106.7-1.8-7.1-5.6-20.5-8.6-30.1-7.6-24.3-4-32.6 16.9-42 14.2-6.3 24.8-6.3 34.9-.3 4 2.5 17.7 15.9 30.4 29.6 30.9 34.1 41 44 45.3 44 6.1 0 4.6-9.4-7.6-46-6.3-19-11.4-37.2-11.4-40 0-3 3.3-8.9 7.3-12.9 9.7-9.6 24.6-10.3 32.9-1.2zm663.2 1.7c48.1 13.9 70.3 31.9 74.6 59.4 1.3 9.6.5 13.7-6.3 27.3-6.3 12.9-10.6 18-20.5 24.3-14.2 9.1-15.7 14.7-8.9 31.1 2 5.1 4.6 20.5 5.3 34.1 1.5 23.5 1.3 25.5-3.8 30.6-6.6 6.6-16.7 6.8-27.3.3-11.6-7.1-16.2-17.7-19.7-47.3-2.5-21.2-4.3-27.6-9.1-32.6-6.3-6.6-12.9-7.8-16.9-3-1.3 1.8-4.8 12.4-7.8 23.5-7.8 29.1-9.9 33.4-18.2 36.7-15.7 6.6-35.2-4-35.2-19.2 0-4.3 3-19.2 6.6-32.9 3.5-13.9 12.1-47 19-73.9 13.4-52.9 14.7-56.4 23-62.2 8-5.8 14.9-5 45.2 3.8zm166.2 55.2c9.4 3.8 25 10.4 35.2 14.2 28.3 10.9 36.9 22.5 26.8 36.2-7.6 10.4-18.2 10.1-41.2-.8-23.3-10.6-30.6-9.6-36.9 5.3-5.3 12.9-1 18.5 21.5 27.6 21.2 8.3 23.5 10.6 23.5 23 0 19.5-17.7 25.3-39 12.6-16.2-9.4-23.3-8.9-31.4 3.3-4.3 6.8-6.1 12.4-5.6 18.5.8 7.3 2.3 9.1 13.4 14.2 39.2 18.2 40.5 19 41.2 28.6 1.8 19.5-14.4 26.3-37.4 15.7-6.3-3-22.5-9.6-36.2-14.9-38.2-14.9-42-21-31.4-48.6 42.5-109.5 51.6-130.8 57.9-139.1 4.4-5.4 21.9-3.4 39.6 4.2zm-1039 22.7c6.3 3 14.2 8.3 17.5 11.1 23.5 21.2 43.5 65.3 43.8 96.9.5 31.9-17.2 58.7-50.1 76.1-44 23.3-77.4 19.5-106-12.4-20-22.3-36.4-61.7-36.7-87.8 0-17.7 7.8-37.9 20-51.3 31.3-34.8 79.6-49 111.5-32.6zm1197.6 49.9c45.8 27.6 65.3 52.4 65.3 84.2.3 20-3.3 31.4-16.2 53.6-23 40-55.9 59.2-90.5 53.1-15.4-2.8-71.6-29.6-84.2-40.2-6.6-5.6-7.3-7.8-6.3-15.4 1.5-10.6 68.5-134.6 79.9-148 7.2-8.3 23.6-4.3 52 12.7zm-1384 29.8c3 3.3 12.6 18 21.2 32.1 57.2 95.9 59.4 100.9 54.1 118.4-3.8 12.9-11.4 22.3-25.3 30.9-12.9 8.3-25 9.4-34.4 3.3-8.9-5.8-11.9-3.5-17.2 11.4-9.4 26.6-42.7 55.6-68.3 59.7-18 2.8-19.2 3.5-21 13.4-2 11.6-9.1 19.7-20.5 23.5-7.6 2.5-10.4 2-21.5-3.8-6.8-3.5-15.4-6.6-19-6.6-7.8 0-43 30.4-45.3 39-.8 3 1 10.6 3.8 16.7 7.3 16.2 6.8 26.1-1.8 35.7-6.3 7.1-8.3 7.8-16.2 6.3-10.9-2-14.4-6.1-22.3-25.5-3.3-8.3-10.1-24.3-15.4-35.4-14.2-29.8-40.2-89.8-43.3-98.9-3.5-10.6-1-19.2 8.6-30.1 8.9-10.4 19.2-16.4 27.6-16.4 3 0 18.2 6.8 33.6 14.9 15.4 8.1 35.4 18.7 44.5 23 9.1 4.6 26.8 14.4 39.7 21.8 12.9 7.6 26.1 13.7 29.3 13.7 5.6 0 6.6-1.5 7.8-11.4 2-12.6 4.8-14.9 21-17.7 12.1-2 24.5-9.4 31.9-19.5 6.6-8.9 4-18.5-5.8-23.5-7.1-3.5-9.9-3.5-30.9.3-41 7.6-62.5 1-77.9-23.5-19.5-30.4-8.3-60.7 31.4-86.8 22.3-14.7 40.7-13.9 49.1 1.8 6.8 12.4 1.3 21.5-14.7 24.8-28.1 5.8-40.2 28.3-20 36.7 6.3 2.8 10.9 2.5 27.3-1.3 39.7-9.1 62-2.8 79.9 22 4.8 6.8 10.4 12.1 12.1 12.1 2 0 8.3-3.5 13.9-7.6 7.6-5.6 10.6-9.4 10.6-13.9 0-3.8-13.9-29.6-32.9-61.2-20-33.1-32.9-57.4-32.9-61.2.7-18.7 27-30.3 39.2-17.2zm-481.6 1387c-3.5-46.3-8.6-187.7-5-230.9 19.2-227.4 100.4-440.8 236.2-622.2 101.9-136.1 220-239 376.1-328.3 87.8-50.3 218.8-101.2 308.6-119.6 10.4-2 25.3-5.3 32.9-7.3 7.6-1.8 20.2-4 27.8-5.1 7.6-.8 22-3.3 31.6-5.1 16.7-3.3 76.9-10.4 107.5-12.4 32.9-2.3 164.7.8 196 4.6 151.5 18.2 281.5 56.7 411 121.7 62.2 31.1 141.9 81.4 195.8 123.4 107.5 84.5 207.4 195.5 277.7 309.1 32.1 52.1 37.2 61 57.7 101.9 45 89.8 84.2 200.6 98.6 277.5 1.5 8.3 4.3 22 6.3 30.4 2 8.3 4.8 24.3 6.3 35.4 1.5 11.1 4.3 32.6 6.3 48.1 28.3 211.2-12.4 455.8-108.5 653.8-28.1 58.2-65.3 121.2-104.5 177-51.3 73.6-129 157.1-208.2 224.1-98.6 84-232.2 161.9-351.6 205.6-54.9 20.2-111.8 36.9-156.8 45.8-14.7 2.8-30.9 6.3-35.9 7.8-20.5 5.3-110.3 15.2-165.9 17.7-43.5 2.3-73.3 2.3-113.8.3-51.1-2.8-142.1-12.9-162.4-18.2-5.1-1.3-18.7-4.3-30.4-6.3-53.9-10.1-145.7-38.7-203.6-63.2-262.3-111.3-470.7-302.8-600.2-551.1-8.9-16.7-28.3-69.7-30-73.3-5-9.6-31.4-80.9-59.5-186.4-24.6-92-40.9-183.2-45.2-194.6M1433.6-580.3c17.7 15.9 19.7 23.5 14.2 55.6-2.3 13.7-5.8 32.1-7.8 41-4.6 20.7-4.6 33.4 0 33.4 4 0 16.9-14.9 36.7-42.2 15.2-21.2 23.8-28.6 32.4-28.6 8.1 0 21 12.9 21 21 0 5.6-47 70.6-88.5 121.9-12.9 16.2-14.9 17.7-24.8 18.5-9.4.8-11.6-.5-21.8-9.6-7.6-6.8-12.1-13.7-13.2-19-1.8-9.6 1.8-36.4 10.6-79.2 6.6-31.6 6.6-38.4 0-38.4-4.3 0-12.9 10.4-40.5 48.8-19.7 27.3-27.1 32.1-39.7 26.8-5.1-2-9.4-6.3-11.6-11.6-4.6-11.4-2.8-14.9 35.4-64.5 66-86 65.5-85.5 76.6-85.5 6.1 0 11.4 3 21 11.6zm149.2 120.9c8.3 4.6 15.4 14.4 15.4 21.8 0 7.8-110.8 127-121.9 131.3-7.6 2.8-20-2-25.8-10.1-8.6-12.4-5.8-18.2 24.5-51.1 50.6-54.9 91.6-95.4 96.1-95.4 2.6 0 7.9 1.7 11.7 3.5zm71.3 71.6c22.3 20 22.3 29.3 1 80.7-28.3 68.5-26.3 71.1 22.5 27.1 14.4-12.9 29.1-24.5 32.9-26.1 12.6-4.8 26.8 6.3 26.8 21 0 8.6-1.8 10.4-76.9 74.9-43 36.7-51.6 43.3-58.7 43.3-14.9 0-31.9-19.5-31.9-36.7 0-8.3 13.4-44.8 29.8-82.5 9.1-20.7 10.9-32.6 5.1-32.6-2 0-15.4 10.4-29.8 23.3-14.4 12.6-30.4 27.1-35.7 31.6-12.1 10.9-22.3 11.1-32.4 1-9.4-9.4-9.4-18.2-.3-27.8 6.8-7.3 82.2-72.1 110-94.6 8.6-7.1 17.2-11.9 20.7-11.9 4-.1 10.9 3.7 16.9 9.3zm-2104.3 25c6.1 5.6 6.3 19.2.5 24.3-2.5 2-9.4 6.3-15.2 9.6-6.6 3.5-12.4 9.4-14.7 14.4-3.8 7.8-3.8 9.1-.3 14.7 7.1 10.9 14.7 10.6 40.2-1.3 28.6-13.4 39.7-16.2 51.8-12.6 11.9 3.3 29.8 17.5 39.2 31.1 6.6 9.9 7.1 12.1 6.1 29.6-1 22.8-5.1 31.4-24 51.3-25.8 27.1-43.3 32.1-56.7 17.2-10.4-11.4-9.1-16.9 4.8-25 6.6-3.8 16.7-11.6 22.8-17.2 8.6-8.1 10.9-12.4 10.9-18.7 0-18.7-15.4-22.8-40-10.4-7.8 4-20.7 9.4-28.8 11.6-12.4 4-15.7 4-26.1 1.3-26.1-7.3-45.5-30.6-45.3-54.4.3-22.3 16.7-48.3 40.7-64.5 13.6-8.8 25.3-9.1 34.1-1zm-66 137.9c97.1 69.6 98.6 70.8 98.6 83.5 0 9.4-13.2 22.5-22.8 22.5-5.3 0-24.8-12.6-73.9-47.5-36.7-26.3-68-50.6-70.1-54.1-7.3-12.9 5.1-32.4 20.5-32.4 6.7-.1 16.8 6 47.7 28zm2287.4 15.1c22.5 7.3 42.5 24 57.7 47.8 19.7 31.4 23.5 59.9 9.4 71.3-13.9 11.4-28.1 1.8-31.1-21-3-22.3-15.7-42-32.4-50.6-8.3-4.3-13.9-5.1-27.6-4.3-15.2.8-19 2-31.9 10.9-19.2 13.2-31.1 30.9-31.1 45.8 0 20 12.6 41.5 24 41.5 7.8 0 22.5-10.6 23.5-16.9.5-2.8-1.5-9.1-4.3-13.7-10.6-17.2-4.6-30.1 13.9-30.1 12.1 0 11.4-.8 31.6 31.6 15.9 25.8 16.2 34.1.5 45.5-18.7 13.7-56.9 34.7-65.8 35.9-8.3 1.5-9.9.5-27.1-17.2-39.7-41.5-51.1-87.5-30.4-123.2 13.7-23 41.2-44.3 69.3-53.1 21.5-6.7 31.9-6.7 51.8-.2zM-589.6-167c9.1 5.1 21.5 12.1 27.8 15.7 41 22.5 89 51.3 93.6 56.4 11.9 12.6 2.5 36.4-18.2 46.5-10.9 5.1-12.6 5.3-61.5 2.8-55.6-2.8-61.7-1.8-51.6 9.1 3 3.3 14.7 10.6 26.1 16.4 34.9 18.2 51.8 29.8 53.9 37.2 2.3 9.9-6.1 23.8-16.2 26.8-7.1 1.8-9.9 1.3-19-5.1-6.1-4-22.8-13.7-37.4-21.5-71.1-37.9-95.9-53.6-100.7-63.7-3-6.1-2.8-8.3 1.8-17.7 3-6.1 9.4-14.7 14.4-19.5l8.9-8.9h54.6c36.7 0 54.9-1 55.6-2.8 1.5-4.3-6.1-9.4-37.2-26.3-36.4-19.7-40.5-23.5-40.5-35.2.3-9.9 3.3-15.4 11.4-20 6.9-3.6 15-1.3 34.2 9.8zM1875.7-49.2c21.8 10.6 43.8 44.3 43.8 67.5 0 15.2-9.4 27.1-21 27.1-12.4 0-14.7-3-16.9-20.7-2.3-18.5-5.3-26.1-12.6-29.8-7.3-4-13.9-3-19.2 2.8-4 4.6-4.8 9.6-5.1 34.9 0 22.8-1 31.4-4.6 39-9.1 18.7-35.2 34.7-56.9 34.7-21.5-.3-44.8-18.5-58.2-46-17.7-35.7-11.1-65.3 14.4-65.3 10.4 0 13.2 4.3 15.4 26.3 2.3 20.2 6.3 29.1 16.7 35.9 7.6 4.8 15.2 2.8 20.7-5.8 3.3-5.1 4.3-11.4 3.8-25.8-.5-21.5 4.6-45.3 12.1-56.1 9.6-13.2 35.7-25.8 49.8-24 4.7.5 12.5 3.1 17.8 5.3zM-628.8 50.5c79.7 3 83 3.8 84.2 20.5 1.3 18-14.4 31.6-32.9 28.8-15.9-2.8-22.5 2.8-31.9 27.1-11.1 28.3-10.6 31.4 4.6 45.8 11.6 10.9 12.6 12.9 12.6 23.5 0 8.6-1.5 12.9-6.3 17.5-9.4 9.6-16.7 8.1-34.7-7.6-8.9-7.6-39.2-33.6-67.8-57.9-47.5-40-58.2-51.1-58.2-60.7 0-1.8 3.3-10.1 7.6-18.5 9.6-19.2 17.2-23.5 39.2-22 7.3.5 44.7 2.2 83.6 3.5zm2576.6 37.4c3.8 3.8 24.5 55.6 30.1 74.9 4.8 16.9-7.6 31.4-23.5 27.6-10.1-2.5-14.4-8.6-20-27.1-5.3-18.7-11.6-26.8-21-26.8-6.8 0-21.5 8.9-23.5 14.2-.8 2.3 1.5 11.4 5.3 20.2 7.8 19.5 8.3 29.6 1.5 36.4-6.1 6.1-19.2 6.6-27.1 1.3-3-2-7.8-10.4-10.9-18.5-7.1-19.5-10.1-25.3-14.4-26.8-2-.8-12.4 1.8-23 6.1-26.1 9.9-31.1 10.9-39.2 7.8-7.1-2.8-14.4-15.4-14.4-25.3 0-12.6 16.2-20 120.1-56.1 44.3-15.5 51.4-16.2 60-7.9zM-752.4 198.7c8.1 7.8 6.8 14.7-5.6 32.6-31.6 46.3-6.3 94.8 49.8 95.6 22.3.3 37.4-8.1 46.5-26.1 7.6-14.9 8.1-23.5 1.3-30.4-6.1-6.1-17.2-9.1-22.5-5.8-2.3 1.3-6.3 7.1-9.1 12.6-7.8 15.7-10.9 18.5-21.8 18.5-11.9 0-20-7.1-20-17.5 0-9.4 9.6-47.3 14.2-56.4 7.6-14.9 18.2-15.4 60.4-3.3 25.8 7.3 31.6 10.1 38.7 17.7 7.6 8.3 8.1 9.9 8.1 28.1 0 79.4-58.9 130-127.7 109.5-36.7-10.9-63.7-34.7-73.3-65-5.8-17.5-4-51.6 3.3-70.8 7.1-18.2 20-37.9 28.1-42.2 10.6-5.7 22.2-4.7 29.6 2.9zm2597.2 31.4c8.3 1.3 30.6 3.5 49.3 5.1 39.2 3 88 9.1 95.1 11.6 9.4 3.3 16.4 12.4 20.2 25.5 7.1 24 2.8 30.9-34.4 53.9-11.9 7.3-25.5 15.9-30.4 19s-16.2 9.9-25.3 15.2c-9.1 5.3-26.6 16.2-39.2 24.3-12.4 8.1-25.8 15.4-29.6 16.2-14.2 3.5-26.8-20-19.2-35.7 1.8-4 9.4-11.6 16.7-17.2 10.1-7.6 13.2-11.4 13.2-16.7 0-11.4-9.4-45.5-13.9-50.6-2.5-2.8-9.6-5.3-17.2-6.3-16.7-2.3-21-4.6-25.8-13.9-5.3-10.1-4.8-21.8 1.3-27.8 5.6-5.7 14-6.2 39.2-2.6zM-766.9 393c4.6 1.5 13.9 8.6 20.7 15.4 12.1 12.4 12.4 12.4 20.7 9.1 25.8-10.6 57.4-20.7 66-21 12.1-.3 16.7 5.1 16.7 18.7 0 13.2-5.8 23.8-15.7 28.8-4.6 2.3-18.7 7.6-31.4 11.4-23 7.3-33.9 14.9-33.9 24 0 7.1 10.9 11.1 29.8 11.1 20.2 0 34.1 4.3 38.2 12.1 6.3 12.1.5 33.9-10.1 37.2-7.6 2.5-18.7 2.3-40.2-1-10.4-1.5-41.2-3.8-68.3-5.3-27.1-1.5-52.9-3.3-57.4-4-10.1-2-20.5-11.9-21.5-20.7-1.3-10.9 7.3-72.3 11.4-81.9 5.1-11.9 21.2-29.8 30.9-33.9 9.5-4.1 32.8-4.3 44.1 0zm2740.5.2c21.8 5.8 41.2 19.7 53.9 38.7 13.4 20 19.5 39.2 19.5 63.7.3 36.4-10.4 58.4-30.1 62.2-22.5 4-29.3-5.6-22.5-32.6 9.4-39 2-64.5-22-76.9-23.8-12.4-60.7-6.3-76.6 12.4-9.1 10.6-15.4 30.6-12.4 39.2 5.1 14.4 19.2 20 30.6 11.9 4.3-3 5.6-6.3 5.6-15.7 0-14.9 5.1-22.5 16.2-24.8 10.9-2 18.5.5 23 7.3 5.1 7.8 9.4 54.1 6.1 65.8-4 15.2-10.6 17.7-51.8 20-52.1 3-55.6 1-66.8-38.7-6.8-24.8-6.8-52.1.3-72.6 15.4-46.5 73.6-73.8 127-59.9zm-2684.3 173c38.4 14.7 60.4 47.8 60.4 91.1 0 61-43.5 96.9-112.3 93.1-12.6-.5-28.8-3-35.9-5.3-18.2-5.8-40.7-26.8-51.8-48.6-8.3-16.4-8.6-18.2-8.6-45 0-25.5.5-29.3 6.8-41 13.4-25.3 27.8-37.2 57.2-46.8 20.2-6.8 63.7-5.3 84.2 2.5zm2749 29.3c13.9 7.1 16.4 35.2 4.3 46-3 2.8-8.1 5.8-11.4 6.6-3 .8-34.1-.3-68.8-2.3-34.9-1.8-65-2.8-67-2-4.6 1.8-5.8 7.1-7.1 29.3-.5 14.9-1.8 18.2-8.1 24.8-10.1 10.6-20.2 9.6-28.6-2.5-6.1-8.6-6.1-9.6-4.6-47.5 1.8-40.7 3.8-48.8 12.6-53.1 3.3-1.8 36.7-2.8 88.3-2.8 69.4-.2 84.4.5 90.4 3.5zm-161.8 117.4c4.8 1.3 33.9 4.3 64.5 6.6 62 4.6 83.5 7.6 91.6 12.9 11.4 7.1 9.6 36.7-2.5 45.3-8.6 6.1-19.2 5.3-86.5-5.1-12.6-2-37.2-5.3-54.6-7.3-17.5-2-34.7-5.1-38.2-6.8-17.2-7.8-15.2-34.4 3.5-43.5 9.8-4.9 10.5-5.1 22.2-2.1zm64 83.7c36.9 9.4 62.7 32.9 72.8 66.3 6.6 21 5.6 39.7-3 65.3-11.4 33.9-27.1 49.8-46 47.3-17.5-2.3-22.5-17.5-10.6-31.6 16.7-19.7 21.5-51.3 11.4-71.3-8.9-17.5-34.7-30.4-60.7-30.4-12.1 0-16.7 1.3-26.8 8.1-13.2 8.9-23.5 25.3-23.8 37.9 0 8.6 12.9 19.7 23 19.7 6.8 0 8.3-1.5 13.7-13.9 7.3-16.2 15.7-22.8 25.8-20.2 18 4.3 20 12.4 11.6 46.3-8.3 33.1-15.2 42.2-30.6 40.2-20-2.5-57.9-12.1-67.8-17.2-14.7-7.3-17.5-14.2-17.2-40.2.5-35.7 10.4-62 30.9-84 24.2-26.1 55-33.2 97.3-22.3zm-2581.9 25.8c4.6 4.3 7.6 11.4 11.1 26.1 15.9 67 16.4 73.9 6.3 81.9-3.8 3-11.4 6.6-17.2 7.8-5.6 1.5-21.2 5.6-34.4 8.9-56.7 14.9-100.7 24.8-111 24.8-16.9.3-20.2-5.6-32.9-54.4-11.9-45.5-12.4-56.9-2-64 9.9-6.8 29.3-3.5 34.4 5.8 1.3 2.5 4 13.9 6.1 25.3 4 23 8.9 30.9 19.7 30.9 14.7 0 18-10.4 11.1-35.4-2-7.6-3-16.9-2.3-20.7 3.8-18.2 32.1-19.7 41.2-2.3 1.5 2.5 3.8 11.6 5.1 20.5 3.3 20.7 6.3 23.8 21.5 21.5 20.5-3 22.8-9.6 14.2-37.2-6.8-21.8-6.6-31.1 1.3-38.7 7.8-8.1 18.9-8.1 27.8-.8zm35.2 152c20 21.8 32.1 53.9 32.1 84.7 0 18.2-1 23.5-6.8 35.4-9.6 19.7-26.3 34.9-51.3 47-20.2 9.6-22.3 10.1-46.8 10.1-23 .3-27.1-.5-39.7-6.8-28.1-13.7-52.1-47.3-59.4-83.5-6.1-29.3-.3-46.3 18-52.4 10.1-3.3 17.7-1.8 20.5 4.6 1 2.3 2 13.9 2.3 25.8.3 18 1.5 23.8 7.1 34.7 11.1 21.5 32.1 33.1 54.1 30.1 38.4-5.3 66.5-36.2 58.7-65.5-5.3-20-20.5-28.1-34.9-18-5.3 3.8-5.6 5.3-4 22.3 2.3 22.3-.8 26.8-17.7 26.8-8.9 0-12.1-1.3-16.2-6.6-3-3.8-5.3-8.1-5.3-9.9s-3.5-11.4-7.6-21.5c-9.4-22.8-9.6-32.6-1.3-40.5 7.3-6.8 76.1-30.9 83.5-28.8 2.5.9 9.1 6.2 14.7 12zm2458.6 6.4c62.7 21.2 103.2 35.9 110.5 40.2 10.6 6.1 14.2 15.4 10.4 28.1-7.8 26.6-26.3 72.6-31.4 77.9-7.1 7.6-20.5 8.1-27.6 1-7.1-7.1-6.3-19 2.8-41.7 4.3-11.4 6.8-21.2 6.1-24.3-1.8-5.3-13.7-12.4-21-12.4-6.8 0-9.1 3.5-16.7 24-3.8 9.6-9.1 19.7-11.9 22-7.6 6.6-19 5.8-26.3-1.8-8.1-7.8-8.1-16.4 0-33.6 7.8-16.7 7.8-21.5.8-28.3-6.6-5.8-22.5-10.9-28.1-8.6-2.3.8-5.8 6.8-8.3 13.2-14.4 40.7-18 46-31.6 46-17.7 0-22.8-15.7-13.2-40.5 3-7.6 9.6-25.3 14.7-39.2 15.4-41.8 13.9-41.3 70.8-22zm-2385.3 160.1c7.3 8.9 8.1 13.9 3 25.8-2.8 7.1-8.3 10.6-41 26.8-20.7 10.1-53.4 26.3-72.6 35.9-38.4 19.2-48.1 21.2-56.9 11.6-9.1-9.6-11.9-21-7.1-28.3 4.8-7.3 17.5-15.7 35.7-23.5 7.1-2.8 35.4-16.7 63.2-30.6 57.7-28.6 65.1-30.4 75.7-17.7zm2277.1 19.2c4.3 2.5 34.9 19.2 67.8 37.4 64 34.9 74.6 42.5 74.6 52.9 0 7.6-35.9 74.1-43.5 80.4-9.6 8.3-22.8 5.6-28.8-6.1-4.8-9.4-3.3-16.4 7.6-33.4 4.6-7.1 8.9-14.7 9.6-16.7 2.5-7.1-2.3-13.9-13.9-19.7-15.2-7.6-19.2-5.6-31.1 17.5-10.1 19-16.7 24.3-27.6 21.5-18.5-4.6-21.5-22-7.6-42.7 14.2-21 12.6-24.8-15.9-39.7-22.5-11.9-28.3-18-28.3-29.6 0-9.9 5.1-18.2 13.9-23 7.2-4.1 14.1-3.6 23.2 1.2zm-2254.1 31.8c9.6 10.9 41.7 66.8 41.7 72.8 0 9.9-8.9 20.2-23.3 27.3-7.3 3.8-23.5 13.2-36.2 21-66.8 41.2-88.3 52.9-96.1 51.6-16.2-3-27.6-26.1-18.2-37.4 3.3-4.3 47.3-31.4 85.2-52.6 13.2-7.6 26.1-15.2 28.6-17.2 6.8-5.8 5.1-14.2-5.8-29.8-12.4-18-13.2-26.3-2.5-36.9 8.9-8.9 18-8.4 26.6 1.2zm2231.3 104.5c23.3 11.6 52.6 38.4 62.7 56.9 5.6 10.6 7.6 17.7 8.3 33.4 1 18.7.8 20.5-8.3 38.7-11.1 22.8-34.7 47.8-52.6 56.4-10.4 5.1-15.2 5.8-31.6 4.8-26.3-1.5-50.3-13.9-75.4-38.7-23.5-23.5-31.4-39.2-31.4-63.2 0-21.2 2.8-30.4 14.7-49.3 14.9-24 35.4-42.2 53.9-47.8 16.5-5.1 39-1.8 59.7 8.8zm-2175.6-6.6c2 0 8.3 6.6 14.4 14.4 5.8 8.1 17.2 23.5 25.3 34.1 17.5 22.8 19 32.4 7.8 42.7-7.1 6.6-57.2 43.5-90.5 66.8-9.6 7.1-22.5 16.2-28.6 20.7-12.1 9.1-19.7 10.4-30.9 4.6-8.1-4.3-13.7-17.7-11.1-27.6 1-4.6 14.9-15.9 51.1-42.2 57.4-41.7 61.2-44.8 61.2-50.3 0-2.5-5.6-11.6-12.6-20.2-12.9-15.9-14.7-22.3-10.1-34.1 2.5-6.8 11.4-11.9 17.2-9.9 2 .5 5 1 6.8 1zm95.3 118.1c7.6 7.3 10.4 15.7 7.6 23.3-1.5 4.6-60.4 56.9-95.6 84.7-6.8 5.6-17.2 14.4-23 19.7-8.3 7.3-12.9 9.6-20 9.6-19.7 0-31.6-25.5-18-38.7 8.9-8.3 35.7-31.6 63.7-54.9 13.9-11.6 32.1-27.1 40.5-34.1 8.3-7.3 17.5-14.4 20.2-15.9 6.9-4 16.3-1.5 24.6 6.3zm1915.9 19.3c10.9 6.1 119.6 113.6 121.2 119.9 2.5 9.4-.5 13.7-28.1 41.5-30.4 30.9-44 38.7-63.5 37.2-25.3-2-45.8-21.8-48.8-46.8-1-8.1-2.5-16.2-3.5-17.7-1.3-1.8-8.6-5.1-16.4-7.3-24-6.6-58.7-21.8-61.5-26.6-3.8-7.1-.3-16.7 9.4-25 11.9-10.4 20.7-9.9 51.3 2.5 27.6 11.1 34.1 12.1 42.7 6.1 9.6-6.6 6.8-13.2-14.7-33.6-17.7-17.2-20.2-20.5-20.2-28.1.3-9.6 3-14.4 12.6-21 7.4-5.2 11.9-5.4 19.5-1.1zm-1837.7 66c14.4 11.4 21 22.5 19.2 32.6-.8 4.6-12.9 31.9-27.1 61.2-14.2 29.1-30.9 63.7-37.2 76.6-6.1 12.6-13.4 24.5-16.2 26.1-6.8 3.5-21-1.3-27.6-9.6-9.4-11.9-6.8-21.8 15.9-66.8 11.6-22.8 23-45 25.3-49.1 5.6-9.9 5.6-19 .3-19-2.3 0-14.4 6.1-27.3 13.7-44.3 26.1-77.4 42-86.5 42-17.7 0-31.1-23.3-19.2-33.4 12.1-10.9 153.8-82.7 162.6-83 3.6.1 11.4 3.9 17.8 8.7zm1725.7 66.5c16.4 5.8 34.1 22.3 58.4 54.4 10.9 14.4 26.1 33.1 33.4 42 13.9 16.4 15.7 22.8 10.6 34.4-2.8 6.1-15.9 14.2-23 14.2-6.8 0-14.7-8.3-48.8-50.8-19-23.5-38.2-45.3-42.5-48.1-14.9-9.4-36.2-2-45.8 16.2-9.1 16.7-4.3 25.5 50.8 94.3 21.8 27.3 24.3 32.6 19.7 43-6.1 14.7-23.3 20.5-33.6 11.6-11.9-10.1-72.6-89-79.2-102.9-8.3-17.2-9.6-34.1-3.5-48.3 9.9-23.8 34.4-47 61.2-58.2 17.7-7.1 25.8-7.6 42.3-1.8zM-180.3 1582c11.6 12.6 10.9 17.5-7.6 39.5-5.1 6.1-26.1 32.1-46.5 57.9-20.2 25.8-39.7 49.3-43.3 52.4-9.1 8.6-19.7 7.6-30.1-2.8-10.6-10.6-10.9-18-1-30.9 49.3-64 96.6-121.9 101.7-124.4 8.6-4.4 17.4-1.4 26.8 8.3zm47.5 35.4c12.9 9.9 14.9 21 8.6 49.6-2.8 12.9-5.1 27.3-5.1 31.9 0 8.1 7.1 18.5 12.9 18.5 4.3 0 15.4-12.9 25.5-29.6 15.4-26.1 27.1-29.3 44.3-12.1 7.3 7.3 8.6 10.1 7.1 16.2-1.8 7.8-80.7 128.5-91.6 139.9-10.6 11.1-18.2 9.6-46.5-9.6-41-27.8-55.4-45.3-55.4-66.8 0-22.5 17.2-45.5 39-51.8 17.5-5.3 19.2-7.3 19.2-23.5 0-18.5 9.6-57.2 15.7-63.7 6.3-7.1 16.2-6.6 26.3 1zm1427 37.4c5.1 2.8 14.7 19 46.5 77.6 4.3 7.6 11.4 20.7 15.9 29.1 24.8 45 25.3 47 15.4 58.7-3.5 4-13.7 11.1-22.5 15.7-14.9 7.6-17.5 8.1-25.3 5.6-8.3-2.8-40.5-28.6-66.3-53.4-25.5-24.5-31.6-23-25.8 6.8 2.3 10.9 5.8 34.1 8.1 51.8 5.1 40 3.5 44.8-19.5 60.2-18.7 12.4-29.6 13.4-39.7 3-5.3-5.3-52.6-88-76.6-134.6-8.9-16.9-4-30.6 12.6-35.4 16.9-5.1 20.5-2 43.3 40 24.3 44.8 30.6 51.8 31.4 35.4.3-5.8-6.6-52.4-11.1-76.1-3.8-20.5-3-24.3 7.6-34.9 8.1-8.3 11.4-9.9 20-9.9 11.1 0 14.9 2.8 65 50.8 18.7 18 29.8 25 33.4 21.5 1.8-1.8-8.1-21.2-29.1-57.7-20.7-35.9-20.7-46.8-.5-54.9 8.4-3.1 10.4-3.1 17.2.7zM66.3 1731.2c5.3 2.3 11.9 13.9 11.9 21.5 0 2.8-16.7 38.2-36.9 78.4-47.5 93.8-41.2 90-97.1 61.2-17.5-9.1-34.1-18.7-37.2-21.5-8.1-7.3-7.8-20.2.8-28.8 8.1-8.1 19.2-6.8 37.4 4.6 19 11.6 27.6 10.4 35.9-6.1 6.3-12.1 2.8-19-13.7-26.3-7.8-3.5-17.5-9.4-21.2-12.9-9.4-8.6-9.6-21-.8-29.6 8.3-8.6 20-8.3 34.9 1.3 18.2 11.4 22.5 11.9 30.6 2.5 3.5-4.3 6.6-9.1 6.6-10.6s4.3-10.1 9.4-18.7c12.1-20.8 18.6-23.4 39.4-15zm785.8 104.9c2.8 1.5 6.1 5.1 7.6 7.8 3.3 6.1 15.2 65.8 15.2 76.4 0 10.6 6.3 21 15.2 24.5 17.2 7.1 20.2 24.3 7.1 39.5-7.1 8.1-8.3 11.4-8.3 23.3-.3 15.9-5.3 22-20.7 24.8-14.9 2.8-21.5-1-27.8-16.7-6.8-17.7-11.1-19-35.7-12.6-24.5 6.6-34.7 6.3-41 0-12.9-12.9-13.2-30.6-1.5-64.7 18.7-54.9 33.1-88.3 40.5-94.3 10.5-9 39.3-13.5 49.4-8zm-448.7 6.4c8.9 5.8 9.9 14.9 5.1 43-2.5 13.9-6.1 37.2-8.1 51.8-2 14.7-4.8 30.6-6.1 35.4-4.8 17.2-3.8 20 11.1 26.6 11.1 5.1 13.9 7.3 15.4 13.7 3.8 18-4.8 30.6-20.7 30.6-9.1 0-75.9-11.4-89-15.2-13.7-3.8-18-9.4-18-22.8 0-17.7 3.5-21 25.5-22.5 21.2-1.8 20 .5 24.8-37.7 1.5-11.4 4.6-26.3 7.1-33.1 5.8-16.7 3-20-14.9-18.7-16.9 1.3-21-1.5-20.7-13.9.5-12.6 6.6-22 18.2-26.8 5.1-2 16.2-6.8 24.5-10.4 17-7.4 35-7.4 45.8 0zm151 17.2c16.2 9.6 23.8 19.7 29.8 40.2 4.8 15.9 5.3 21.8 4 49.1-3 56.1-17.2 83-54.9 102.4-17.2 8.9-46.8 8.6-66.3-.8-12.1-5.6-14.7-8.1-16.9-15.9-3.3-12.1-1-23.3 5.8-27.8 6.6-4.8 13.7-4.8 25 0 5.1 2 14.4 3.8 21 3.8 10.4 0 12.9-1.3 21.8-10.1 5.6-5.6 9.6-11.4 9.1-13.2-.8-2.3-8.6-3.8-23.8-4.6-25.8-1.8-38.7-6.6-47.8-19-21.8-28.1-17.5-68.3 9.9-93.8 16.2-15.4 26.1-18.7 52.4-17.7 15.5.5 21.6 2.1 30.9 7.4zm138.6-4.8c16.2 5.8 27.1 16.2 36.7 35.7 8.1 16.7 9.4 21 10.4 44.8 2.8 51.6-6.1 83.2-28.3 102.4-18.2 15.7-27.8 19.2-54.4 20.2-35.2 1.5-47.8-6.6-48.1-30.1 0-14.7 6.8-18 33.4-15.7 16.9 1.3 22.8.8 29.1-2.3 13.4-7.1 21-24.5 12.1-28.1-2.3-.8-9.6 0-16.4 1.5-15.7 3.5-37.2-.8-47.8-9.4-9.9-8.3-20.7-33.9-21-48.8-.3-43.5 28.6-73.1 71.3-73.6 7.6.1 18 1.6 23 3.4zm-490.9 7.8c16.2 8.3 21.5 23 14.2 40.2-7.6 18.2-25.3 24-44 14.4-14.9-7.6-19.2-22-12.1-39.2 7-17.2 25.5-24 41.9-15.4zm820 6.1c6.8 6.1 8.1 9.1 9.1 22.3 1 14.9 1 15.2-8.3 22.8-15.2 12.6-29.3 12.9-41.5.5-8.1-8.1-11.4-23.8-7.3-35.2 6-17.8 33.3-23.6 48-10.4zm-473-2669.6c-8.1 18-.3 33.9 15.2 30.9 26.3-5.3 25.8-33.1-.8-36.2-10.3-1.3-11.6-.8-14.4 5.3zm390.5 39.2c-4.8 7.8-8.6 26.6-6.3 31.1 3.3 6.3 13.7 10.1 22 8.1 17.5-4.3 24-22.5 12.1-33.6-6.8-6.4-25-10.2-27.8-5.6zM21.3-689.3c-17.2 8.1-26.6 22-26.6 40 0 29.6 27.6 72.3 49.1 76.1 14.2 2.8 36.2-8.6 43.8-22.5 7.3-13.2 7.3-21.2-.8-44.8-14.4-41.7-40.2-60.7-65.5-48.8zM1247.9-641c-2.3 2.3-8.1 12.1-13.2 22.3-4.8 9.9-15.2 28.6-22.8 41.5-9.6 16.4-13.4 25.3-12.4 29.1 2.8 11.6 31.1 21.5 48.1 16.7 20.5-5.6 43.8-38.4 46.3-65 1-10.4.3-13.7-7.3-24.5-8.9-13.2-22.5-24-30.1-24-2.5-.1-6.3 1.6-8.6 3.9zM-345.7-411.1c-2 5.3 13.9 38.7 19.5 40.5 5.8 2 13.2-2 19.7-10.6 4.8-5.8 5.1-7.3 1.8-11.9-4-6.3-28.8-21.5-35.2-21.8-2.5 0-5.1 1.8-5.8 3.8zm641.4 703.4c-67 9.6-112.8 28.8-152.3 64C112 384.4 82.7 435.5 70.6 484 60 525.7 57.2 550 57.2 599.3c.3 124.2 33.4 208.9 100.7 256.7 21 14.9 45.8 25 82.5 34.1 26.3 6.3 38.7 7.8 75.6 9.4 37.9 1.3 46.3 1 57.2-2.8 7.1-2.3 26.3-7.6 42.5-11.6 93.3-23.5 153.8-88 176.8-188.4 10.4-44.3 12.9-72.6 11.1-124.9-2-55.6-4.3-73.3-14.7-109-4.3-14.7-9.4-33.1-11.4-41.2-4.6-19.2-22.5-46.5-45-68.8-18.5-18.2-17.2-17.5-75.6-42-9.4-4-28.8-9.4-43-12.1-23.3-4.6-36.2-6.1-80.2-8.9-7.7-.5-24.9.5-38 2.5zm86.2 99.6c62.2 16.2 96.4 76.1 102.4 179.6 2.8 48.1-8.1 126-21.8 155.5-6.6 14.7-24.8 36.4-40.7 48.6-18.2 13.9-57.4 24-93.3 23.8-29.1-.3-69.3-8.1-78.4-15.4-3.5-2.8-12.1-9.6-19.2-14.9-19-14.7-27.8-26.8-36.7-49.6-10.9-27.6-14.4-46.8-17.5-92.6-3.3-48.8 1.5-102.7 11.6-133.3 12.4-36.7 37.7-70.1 66.3-87.5 33.7-20.2 83.3-25.8 127.3-14.2zm-571.8-91c-139.9 1.5-134.1.5-142.9 19.5-4 8.3-4.3 22.5-3.5 170 .5 88.5.5 210.4 0 270.9-.8 78.7-.3 111.5 1.8 115.3 5.3 9.9 16.7 12.4 57.4 12.4 41.7 0 50.6-2.3 56.4-14.4 2.5-5.6 2.8-26.6 1-107.5-1.3-55.4-1.5-102.9-.5-105.7 4.6-12.1 5.1-12.1 94.8-11.6 59.4.5 86-.3 89.8-2.3 8.9-4.8 12.6-17.7 12.6-44.3 0-25.8-3.3-36.7-12.4-41.7-3.3-1.5-35.7-2.5-87.3-2.5-55.6 0-84.2-1-88.5-2.8-11.1-5.1-11.9-11.9-11.1-82.7.8-64.5 1-66.3 6.3-71.8l5.8-5.6 91.8.8 92.1.8 6.8-6.1c6.1-5.1 7.3-9.1 9.6-26.1 3.8-28.1 1-47.5-8.1-57.7-8.3-9.4 11.4-8.7-171.9-6.9zm1523.8 0c-83.5 1.3-85.7 1.8-94.1 14.4-4 6.1-4.3 26.3-5.3 261-.5 139.9-1.3 264.3-1.5 276.2-.3 18.5.5 22.8 4.6 27.3 7.6 8.3 22.8 11.4 55.9 11.4 33.9.3 46.5-2.8 54.4-13.2 5.3-6.6 5.3-7.8 3.3-101.7-2.5-122.7-2.8-114.8 3-121.4l5.1-5.8 86 2c85.2 1.8 86 1.8 92.8-3.8 8.6-6.6 12.1-19 12.1-43s-3.5-36.4-11.9-43c-6.8-5.3-8.1-5.3-91.8-3.5-83 1.8-85 1.5-91.1-3.5l-6.3-5.1-.8-64.7c-.8-72.3.5-83.2 11.6-86.8 4-1.5 41.7-1.8 91.6-.8 92.3 1.8 96.9 1.3 105.5-11.6 3.8-5.8 4.6-12.1 4.6-35.2 0-30.1-3.3-41.2-14.2-47-6.3-3.2-92.6-4.2-213.5-2.2zm-596.4 2.8c-11.6 3-17.5 8.1-22 18.2-4.3 9.9-4.3 16.4-2 102.9 2.5 97.1.8 302-3 389-2.8 61-1.8 65.5 15.4 72.6 8.3 3.3 18.5 4.3 40.7 4.6 32.1 0 49.8-3.5 56.9-11.4 5.1-5.8 5.1-8.3 1-146.2-1.3-43.8-1.3-74.4.3-78.2 3.8-10.4 9.4-12.6 31.6-12.9 56.9-.3 84.5 26.3 115.8 111.3 5.1 13.2 11.9 31.4 15.2 40.5 3.3 9.1 10.1 27.3 15.2 40.5 20.5 55.4 21.2 55.9 80.2 56.1 33.9.3 42.7-.5 49.3-3.8 10.1-5.3 11.4-7.6 11.4-19.7-.3-9.1-6.6-25.5-27.1-69.3-3.3-7.1-15.2-33.1-26.6-58.2-30.1-67-39.7-81.7-70.1-108-16.4-14.2-14.9-20 8.1-32.4 34.4-18.5 56.4-40.5 69.8-70.1 9.1-20.5 12.4-38.7 12.4-70.6 0-48.6-10.1-74.9-40.2-104.7-30.6-30.6-68.5-45.5-127.2-50.6-32.1-2.4-194.7-2.4-205.1.4zm167.7 86.7c31.4 1.5 46.3 6.3 62.5 20.5 19.7 17.2 27.1 34.4 27.3 63.2 0 18.2-1 25-5.6 34.7-8.6 18.7-26.1 35.4-46.8 45.3-18.5 8.6-18.5 8.6-62.7 9.4-41.5 1-44.8.8-50.6-4l-6.3-5.1.5-76.1c.3-48.3 1.5-77.9 3.3-80.9 3.5-6.8 15.2-9.6 36.7-8.6 9.9.1 28.6 1.1 41.7 1.6zM-690.7 98c0 2.8 5.8 9.9 13.9 16.7 18 15.7 26.1 15.4 31.6-.3 5.3-15.9 1-19.5-25.3-20.5-18.7-.9-20.2-.7-20.2 4.1zm2588.2 185.4c-4.6 4.6-4 18.7.8 23.5 5.8 6.1 14.2 4.8 25.3-3 14.9-10.9 17.2-14.4 12.1-18.5-5.6-4.5-34.2-6-38.2-2zM-798 450.4c-12.9 15.2-5.8 30.1 14.2 30.1 19 0 25.8-16.9 12.4-30.6-9.9-9.6-18.2-9.6-26.6.5zm11.2 169.7c-21 10.9-27.6 29.6-17.7 50.6 6.1 13.4 18 20.5 37.9 23.3 14.7 2 42.2-1.8 54.4-7.6 19-8.9 24-39.5 9.6-56.9-10.6-12.6-18.2-14.9-46.8-14.9-22.3-.1-28.1.7-37.4 5.5zm2445.7 718c-10.4 6.1-22.3 21.5-24.3 32.1-4.6 23 36.2 63.7 70.1 70.1 13.2 2.5 28.3-5.8 37.9-20.7 13.2-20.7 8.9-37.4-15.2-59.4-15.7-14.4-40.5-27.3-52.1-27.3-4-.1-11.5 2.5-16.4 5.2zm-68.2 197.8c-7.3 5.6-12.6 15.4-12.6 22.8 0 8.9 12.1 22 20.5 22 7.8 0 22.5-9.6 25.3-16.9 2.8-7.1.5-11.9-9.6-21.5-8.7-8.1-18.3-10.7-23.6-6.4zM-177 1746.6c-9.9 8.1-10.4 18-1.5 28.6 12.4 14.4 23 13.4 33.1-3.8 7.8-13.4 6.8-20.7-3.8-27.1-10.4-6-18.7-5.3-27.8 2.3zm990.2 173.8c-5.3 7.8-11.1 25.3-9.9 29.1 2 5.6 10.4 8.6 15.9 5.6 9.1-4.8 10.9-11.6 6.3-26.6-4.2-15.2-6.8-17-12.3-8.1zm-306.3-22.8c-5.1 4-7.1 8.9-8.1 17.5-1.3 10.1-.5 12.6 5.1 18.2 4.8 4.8 9.4 6.6 16.4 6.6 12.9 0 19.5-6.8 19-20.2-1.1-24.4-17.2-35.2-32.4-22.1zm147.7 1.5c-5.8 5.8-7.3 9.6-7.3 18 0 19 18.5 31.1 32.4 21.2 9.6-6.6 10.9-11.9 6.8-26.1-6.4-20.7-19-26-31.9-13.1z"/>
</svg>
