<?xml version="1.0" encoding="utf-8"?>
<!-- Generator: Adobe Illustrator 23.1.0, SVG Export Plug-In . SVG Version: 6.00 Build 0)  -->
<svg version="1.1" id="Layer_1" xmlns="http://www.w3.org/2000/svg" xmlns:xlink="http://www.w3.org/1999/xlink" x="0px" y="0px"
	 viewBox="0 0 194 193" style="enable-background:new 0 0 194 193;" xml:space="preserve">
<style type="text/css">
	.st0{stroke:#231F20;stroke-width:2.7498;stroke-miterlimit:10;}
</style>
<path id="XMLID_1_" class="st0" d="M113.6,346.8c4.7-0.5,9.1-1.4,13.7-1.9c42.1-5.2,80.6-19.8,114.9-44.8
	c53.1-38.5,86.3-89.9,99.8-154c2.2-9.9,2.7-20.1,4.4-30.2c0-0.8,0.5-1.4,0.5-1.9c0-11.3,0-22.5,0-33.5c-0.3-0.5-0.5-1.4-0.5-1.9
	c-1.4-17-4.1-33.8-8.8-50c-38.2-131.7-173-207.9-305.2-172.7c-127,33.5-206.8,162.2-180.4,290.6c13.2,64.6,47,116,100.6,154.5
	c34.1,24.5,72.3,39,114.1,44.3c4.4,0.5,8.8,1.1,13.2,1.9C91.1,346.8,102.4,346.8,113.6,346.8z M97.1,336.1
	c-132,0-239.2-107.2-239-239.5c0-131.7,107.5-239,239.5-238.7c131.7,0.3,238.7,107.5,238.7,239.2
	C336.1,229.1,228.8,336.1,97.1,336.1z M97.1-134.4c-127.9,0-231.5,103.1-231.5,231c-0.3,128.1,103.1,231.8,231,232.1
	c128.1,0.3,231.8-103.1,231.8-231.3C328.7-30.7,225-134.4,97.1-134.4z M37.5,185.4c-13.7,4.7-27.5,9.3-41.5,14
	c-4.7,1.6-9.6,1.9-14.3,3.3c-4.1,1.1-8.5,2.7-8.2,8.2c-3.6-0.5-5.8-3.3-5.5-7.1c0.3-6.3,5.5-11,11.8-11.3c1.4,0,3-0.5,4.4-0.8
	c-1.4-4.4-2.7-4.9-8.5-3.3c0.3-1.6,0.3-3.6,1.1-4.7c1.6-2.2,3.3-4.1,5.5-6c3.6-3.3,6.9-6.3,10.7-9.3c1.6-1.4,4.1-2.2,6.3-2.7
	c4.7-0.8,8.8-2.5,12.4-5.8c11.5-11,23.4-22,34.9-33.3c2.2-2.2,4.1-4.4,5.8-7.1c2.2-3.3,1.1-6.3-2.5-7.1c-9.3-2.5-15.4-9.1-21.7-15.9
	C14.1,80.9,4.7,63,0.9,42.4c-0.5-3.6-3-6.9-4.9-10.2c-0.5-0.8-2.2-0.8-3.3-1.1c0,1.4,0,2.5,0.3,3.6c0.8,1.9,2.2,3.6,2.5,5.5
	c3.6,17,9.1,33.3,19.5,47.3c7.7,10.4,17.3,19.2,28,26.9c3.8,2.7,4.4,4.7,1.1,8.2c-4.4,4.7-9.1,9.1-13.5,13.5
	c-7.1,6.9-14.3,13.5-22,20.9c-5.8-4.9-11.8-9.3-17.6-14.3c-15.7-14.3-28-31.3-36.3-51.1c-1.6-4.1-1.4-4.9,2.2-7.7
	c1.6-1.4,3-3.6,4.7-5.5c-7.1-0.5-13.5-0.8-19.5-1.4c-7.1-0.8-13.7-3-19-8c-3.3-3-3-4.7,0.5-6.9c1.9-1.1,4.1-2.2,6-3.6
	c3-2.2,4.4-5.2,4.4-9.6c-1.9,0.5-3.3,0.8-4.7,1.6c-4.9,2.2-10.2,2.7-15.4,2.2c-1.9-0.3-3.6-1.4-5.5-2.2c0-0.3,0.3-0.8,0.3-1.1
	c3.6-0.8,7.1-1.4,10.4-2.5c2.7-0.8,5.5-1.9,7.7-3.6c0.8-0.5,0.8-2.7,1.4-4.1c-1.4,0-2.7-0.5-3.8-0.3c-8,2.7-14.8,1.4-20.6-4.9
	c-2.5-2.7-4.7-5.5-6.9-8.5c-0.8-1.1-1.1-2.2-1.6-3.3c0.3-0.3,0.5-0.5,0.8-0.8c2.7,1.4,5.5,2.5,8,3.8c3,1.4,5.8,3.3,8.8,4.4
	c7.4,2.5,14-0.5,20.3-4.1c0-0.3,0-0.8,0-1.1c-2.7-0.5-5.8-1.4-8.5-1.9C-89,20.7-97,10.2-100.3-1c-0.3-1.1,0.3-2.5,0.5-3.6
	c1.1,0.5,2.5,0.8,3.3,1.6c3.3,3.3,6,6.9,9.1,10.4c3,3.6,6.9,5.5,11.3,6c3.6,0.5,7.4,1.1,11,1.6c0-0.3,0.3-0.5,0.3-0.8
	c-3.3-2.5-6.6-4.9-9.9-7.4C-81.3,1.4-87.7-4.3-89-13.1c-0.8-4.9-0.5-9.9-0.5-14.8c0-1.4,0.8-2.7,1.6-4.7c1.1,1.4,1.6,2.5,2.5,3.6
	C-71.2-7.4-52.7,9.4-28.3,19c7.7,3,15.9,4.4,23.9,5.8C5.6,26.4,8,28.4,10,38.3c2.7,14.3,7.7,27.5,15.9,39.3
	c14.6,20.9,34.1,34.1,59.7,36.6c14.6,1.4,29.4,2.2,42.6-4.4c24.2-12.1,41.2-30.5,48.7-57.2c1.4-4.7,1.1-9.6,1.6-14.3
	c0.8-6,4.1-10.2,9.9-11.8c5.2-1.6,10.4-3,15.7-3.8c26.4-4.9,46.2-20.1,62.7-40.1c3-3.8,4.4-8.8,6.6-13.2c0.3-0.3,0.3-0.8,0.3-1.4
	c0.8-1.1,1.6-1.9,2.7-3c0.5,1.1,1.6,2.2,1.9,3.6c1.4,20.6-8,35.5-29.1,43.4c2.2,0.8,3.6,1.9,4.9,2.2c5.2,0.8,10.4,0.3,14.8-2.7
	c2.7-1.9,5.8-3.6,8.2-5.8c2.2-2.2,3.8-5.2,5.8-7.7c0.5-0.8,1.6-1.4,2.2-1.9c0.5,0.8,1.4,1.4,1.4,2.2c0.5,5.5-0.8,10.7-4.4,15.1
	c-5.8,6.9-11.8,9.9-23.4,11.3c0.5,3.3,2.2,4.9,6.3,4.9c9.3,0.5,17.9-2.7,25.6-7.7c1.1-0.8,2.5-1.1,3.8-1.9c0.3,0.3,0.8,0.8,1.1,1.1
	c-1.6,2.7-2.7,5.8-4.7,8.2c-8.2,9.9-19.8,12.4-31.6,7.1c-0.5-0.3-1.4,0-1.9,0c0.3,0.8,0.3,1.9,0.8,2.5c3.8,3.8,8.8,6,14,6.9
	c3.6,0.5,7.1-0.5,10.7-0.8c0.8,0,1.9-0.3,2.7-0.5c0.3,0.3,0.3,0.5,0.5,0.8c-1.4,1.4-2.7,3.3-4.4,4.4c-7.4,4.9-15.1,4.9-23.1,1.1
	c-1.4-0.8-2.7-1.6-3.6,0.3c-0.3,0.8,0.5,2.5,1.4,3c3.8,2.5,7.7,4.4,11.5,6.6c7.1,4.1,7.1,5.5,0.8,10.7c-6.3,5.2-14,7.7-22.3,7.7
	c-5.8,0-11.5-0.5-17.3-1.1c0.5,2.7,1.6,6,5.2,7.4c3.3,1.4,3.6,3.6,2.5,6.3c-1.6,3.8-3,8-5.2,11.8c-16.5,30.5-41.2,52.5-72,67.4
	c-4.7,2.2-10.2,2.5-15.7,3.3c14.3-20.9,7.1-38.5-8.2-55c1.4-0.8,2.2-1.4,3-1.9c9.6-5.2,18.4-11.5,26.7-18.7
	c10.4-9.6,16.8-21.2,20.3-34.6c1.6-6.6,3.3-13.5,5.2-20.1c0.5-1.9,1.9-3.6,3.6-4.9c1.4-1.1,3-1.6,4.7-2.2c-2.2-3.6-4.9-4.1-7.4-0.8
	c-1.9,2.7-3.6,6-4.7,9.3c-2.5,7.7-4.1,15.9-7.1,23.1c-7.1,17-18.4,31.1-34.6,40.4c-3.6,2.2-7.1,4.4-10.7,6.3
	c-2.2,1.1-2.7,2.7-1.4,4.7c2.7,4.4,5.2,9.1,8.5,13.2c4.1,5.5,7.1,11.3,5.2,18.4c-4.7,17-11.8,24.5-26.9,26.9
	c-14.8,2.5-29.7,3.3-44.5,1.6c-1.9-0.3-3.8,0-5.8,0c0,0.5-0.3,0.8-0.3,1.4c1.4,0.5,3,1.6,4.4,1.6c8.8,0.5,17.6,1.6,26.4,0.8
	c11-0.8,21.7-3,32.4-4.4c1.1-0.3,2.7,0.5,3.6,1.6c1.9,2.5,3.3,5.2,4.7,8c4.1,8.5,8,17.3,11.8,26.1c0.8,1.9,1.4,4.1,1.6,6.3
	c0.3,2.5-1.1,3.6-3.6,3.3c-1.4-0.3-2.7-0.8-3.8-1.4c-6.3-3.6-11.8-8.2-14.3-15.7c-0.8-2.7-2.5-5.2-4.1-8c-0.5-0.8-1.9-1.1-2.7-1.6
	c-0.5,1.1-1.4,2.2-1.4,3c0,1.6,0.5,3.3,1.4,4.7c1.4,2.5,3,4.9,4.7,7.1c5.8,6.6,3,17.6-1.1,22.5c-1.6,1.9-3.8,2.5-5.8,1.1
	c-6.9-4.1-12.9-9.3-13.2-18.4c-0.3-4.1-0.5-8-1.1-12.1c-0.3-1.9-1.1-3.8-1.9-5.8c-0.5,0-0.8,0-1.4-0.3c-0.5,1.6-1.6,3.3-1.4,4.7
	c0.5,4.7,1.6,9.3,2.7,13.7c1.9,8.8,0,16.2-6.9,22c-2.7,2.5-4.7,2.5-6.9-0.5c-4.7-6.3-8.2-12.9-5.2-21.7c1.4-3.6,1.4-7.7,1.6-11.5
	c0-1.6-0.8-3.6-1.6-5.5c-3.8,2.5-4.7,6-4.9,9.6c-0.3,2.7-0.3,5.8,0,8.5c0,6.3-2.5,11.3-6.3,15.7c-3.6,4.1-7.1,4.1-11,0
	c-5.5-5.8-6-14.6-1.9-22c1.9-3.3,3.6-6.9,4.9-10.7c0.8-2.5,0.8-5.2-1.9-7.1c-3.3,3.3-5.8,7.1-6.3,11.8c-0.8,8.2-4.9,14.3-13.2,16.8
	c-0.5,0.3-1.1,0.5-1.6,0.5c-1.6,0-3.8,0.3-4.4-0.5c-0.8-0.8-0.3-3,0.3-4.4c1.9-4.4,4.1-9.1,6.3-13.5c2.5-5.2,5.5-10.4,7.4-15.7
	c1.4-3.3,1.4-7.4,2.2-11C50.4,181.3,43.8,183.2,37.5,185.4z M134.3-45c0.8-0.8,2.2-1.4,3.3-1.4c43.4,0,86.9,0,130.3,0
	c0.3,0,0.3,0,1.1,0.3c-3.6,4.1-6.9,8.2-10.4,12.1c-0.5,0.8-2.2,0.8-3.3,0.8c-32.4,0-65.2,0-97.6,0c-3.6,0-6.3,0.8-8.2,4.1
	c-1.4,2.5-4.7,3.8-3.6,8.2c1.4-0.8,3-1.4,3.8-2.2c3-4.7,7.4-5.5,12.6-5.5c23.9,0.3,47.8,0,71.8,0c1.1,0,2.2,0,3.8,0
	c-3.6,3.6-6.6,6.9-9.6,9.9c-0.8,0.5-2.2,0.5-3.3,0.5c-21.2,0-42.3,0.3-63.5,0c-3.6,0-5.2,1.4-6.6,4.9c18.7,0,36.8,0,55.8,0
	c-3.8,3.6-6.9,6.6-9.9,9.3c-0.8,0.5-2.2,0.5-3.6,0.5c-23.1,0-46.5,0-69.6,0c-2.2,0-3.3,0.5-4.4,2.5c-0.8,1.6-2.2,3-3.6,4.1
	c-15.4,11.3-30.8,11.3-46.2,0.3c-1.4-1.1-3-2.2-3.6-3.8c-1.4-2.7-3.3-3-6-3c-22.8,0-45.4,0-68.2,0c-2.5,0-4.1-0.5-5.8-2.2
	c-2.2-2.5-4.7-4.7-7.7-7.4c19,0,37.1,0,55.8,0c-1.4-3.3-2.7-4.9-6.3-4.9c-21.4,0.3-42.6,0-64.1,0c-2.2,0-3.6-0.5-5.2-2.2
	c-2.5-2.7-4.9-5.2-8-8.2c1.9,0,2.7,0,3.8,0c25.3,0,50.6,0,76.2,0c2.5,0,4.1,0.8,5.8,2.5c1.9,1.9,3,4.9,7.4,4.7
	c-0.8-1.9-1.4-3.3-1.9-4.7c-3.3-5.8-8-7.4-14.6-7.1C0.1-32.4-31-32.7-62.1-32.7c-2.5,0-4.1-0.8-5.5-2.7c-2.7-3.6-5.8-6.6-8.8-10.4
	c1.1,0,1.9-0.3,2.7-0.3c42.6,0,85.5,0,128.1,0c1.4,0,3,0.8,4.4,1.6c3,2.5,5.8,5.2,8.8,8.2c0.5-4.7,0.5-8.8,1.4-12.9
	c0.8-3.6,1.9-7.4,3.6-10.4C77.9-70.3,87.8-72.3,98.5-72c9.9,0.3,17.9,3.3,22,12.4c2.2,5.2,3.3,11,4.4,16.8c0.3,1.9,0,4.1,0,7.1
	C128.5-39.8,131.2-42.6,134.3-45z M316.8,145c-0.5,3-1.1,5.8-1.6,9.1c-11-2.2-22-4.4-33-6.6c0.8-4.9,1.6-9.6,2.7-14
	c0.3-1.1,1.6-1.9,2.7-2.5c9.3-4.4,18.7-8.8,28.9-13.5c-9.3-1.9-18.1-3.6-27.2-5.2c0.5-3,1.1-6,1.6-9.1c11,2.2,21.7,4.4,33,6.6
	c-1.1,4.9-1.9,9.9-3,14.6c-0.3,0.8-1.4,1.4-2.5,1.9c-9.6,4.7-19,9.1-28.6,13.5C299,141.4,307.8,143,316.8,145z M91.6,324.2
	c0-11.3,0-22.3,0-33.8c4.4,0,8.8,0,13.5,0c1.1,0,2.2,0.8,3,1.9c6.6,8.2,12.9,16.5,19.5,24.7c0-9.1,0-17.9,0-27.2c2.5,0,5.5,0,9.1,0
	c0,11,0,22,0,33.8c-4.4,0-9.3,0-14,0c-0.8,0-1.9-1.1-2.5-1.6c-6.3-8-12.4-16.2-18.7-24.2c-0.3-0.3-0.5-0.5-0.8-1.1
	c0,9.3,0,18.4,0,27.8C98,324,94.9,324,91.6,324.2z M223.9,255.8c-2.2-3.3-4.9-2.7-7.7-0.8c-2.5,1.6-4.9,3.3-7.7,5.2
	c-2.2,1.6-3,3.6-1.4,6.3c1.6,2.5,3.6,2.2,5.8,0.8c4.9-2.7,10.2-5.8,15.4-8.2c6.9-3.3,13.5,0.8,13.5,8.5c0,1.9-1.1,4.1-2.5,5.5
	c-6.3,6-13.7,11-21.7,14.6c-4.9,2.2-7.7,0.8-11-4.7c1.1-0.8,2.2-1.6,3.3-2.5c1.1-0.8,2.5-1.6,3.6-2.2c4.4,3.6,4.4,3.8,9.3,0.8
	c3-1.9,5.8-3.8,8.8-5.8c2.5-1.6,2.2-3.8,0.5-6c-1.4-2.2-3.3-2.5-5.2-1.4c-1.6,0.8-3.6,1.9-5.2,2.7c-3.6,1.9-7.1,4.1-10.7,5.8
	c-6.3,3-10.4,1.4-12.9-5.2c-1.1-3-0.8-5.8,1.4-8c6.6-6.6,14-11.5,22.8-14.8c4.1-1.4,6.6,0,9.1,4.7
	C228.8,252.5,226.4,254.1,223.9,255.8z M75.1,287.7c-0.3,1.9-0.8,3.3-1.1,5.2c-8-1.6-15.7-3.3-23.6-4.9c-0.5,2.7-1.1,5.5-1.6,8.5
	c7.4,1.6,14.8,3,22.3,4.7c-0.3,1.6-0.5,3-0.8,4.4c-7.4-1.6-14.8-3-22.5-4.7c-0.5,3-1.4,6-1.9,9.3c7.7,1.6,15.7,3.3,23.6,4.9
	c-0.3,1.6-0.5,3.3-0.8,5.2c-11-2.2-22-4.7-33-6.9c2.2-11,4.7-21.7,6.9-33C53.7,283.3,64.4,285.5,75.1,287.7z M149.9,282.7
	c10.2-4.4,20.3-8.8,30.5-13.2c0.8,1.6,1.4,3,2.2,4.9c-7.4,3.3-14.6,6.3-22,9.6c1.1,2.7,2.2,5.2,3.3,8c7.1-3,14-5.8,21.2-9.1
	c0.5,1.4,1.1,2.7,1.9,4.1c-7.1,3-14,6-20.9,9.1c1.1,3,2.5,5.8,3.6,8.8c7.4-3.3,14.8-6.3,22.3-9.6c0.8,1.6,1.4,3,2.2,4.9
	c-10.4,4.4-20.3,8.8-30.8,13.2C158.7,303.3,154.3,293.2,149.9,282.7z M301.4,174.1c1.6,0.8,3,1.4,4.9,2.2
	c-4.7,10.2-9.3,20.1-14.3,30.5c-10.2-4.7-20.1-9.3-30.5-14.3c4.7-10.2,9.3-20.1,14.3-30.2c1.6,0.8,3,1.6,4.9,2.2
	c-3.3,7.4-6.6,14.3-10.2,21.7c2.7,1.4,5.2,2.5,8,3.8c3.3-6.9,6.3-13.7,9.9-20.6c1.4,0.5,2.5,1.1,4.1,1.9c-3.3,6.9-6.3,13.7-9.6,20.6
	c2.7,1.4,5.5,2.7,8.5,4.1C294.3,188.7,297.9,181.5,301.4,174.1z M-95.4,107.6c1.6,10.7,3,21.2,4.7,32.2c-1.9,0.3-3.6,0.5-5.2,0.8
	c-1.1-7.7-2.2-15.1-3.6-22.8c-3,0.5-5.8,0.8-8.8,1.4c1.1,7.1,2.2,14.3,3,21.4c-1.6,0.3-3.3,0.5-5.2,0.8c-1.1-7.1-2.2-14.3-3.3-21.7
	c-4.7,0.5-8.8,1.4-13.7,1.9c-0.5-3-0.8-5.8-1.4-9.1C-117.4,110.9-106.6,109.2-95.4,107.6z M-80.5,219.5c1.1-1.1,2.2-2.5,2.5-3.8
	c1.9-8,3.6-15.7,5.5-24.2c2.2,2.7,4.1,5.2,5.8,7.7c0.5,0.8,0.3,2.2,0.3,3c-1.1,5.2-2.2,10.2-3.6,16.2c5.2,0,9.9,0.3,14.8,0
	c2.7-0.3,4.7,0.8,6.3,3.3c1.1,1.6,2.5,3.3,4.1,5.5c-8.2-0.5-15.9-0.8-23.4-1.4c-3-0.3-5.2,0.5-7.4,2.5c-1.9,1.9-4.4,3.3-6.9,5.2
	c-1.9-2.5-3.6-4.7-5.5-7.4C-86,223.6-83.3,221.7-80.5,219.5z M-3.2,287.7c0,0.3,0,0.5,0,0.5c-1.6,6.6,0.5,9.6,7.7,10.4
	c2.7,0.3,3.6-1.4,4.4-3.6c2.2-6.3,4.7-12.6,6.9-18.7c0.3-0.8,0.8-1.9,1.1-3c2.7,1.1,5.5,1.9,8.8,3c-3.3,8.5-6.3,17-9.9,25
	c-1.6,3.8-4.7,4.7-9.3,3.6c-4.9-1.4-9.6-3-14.3-4.9c-6.3-2.7-7.1-5.5-4.9-12.1c0.3-0.8,0.8-1.9,1.1-3
	C-8.5,285.8-5.7,286.9-3.2,287.7z M259.6,207.4c-2.7,4.1-5.2,8-8,12.1c7.7,5.2,15.4,10.2,23.4,15.4c-1.6,2.5-3.3,4.9-5.2,7.7
	c-7.7-5.2-15.4-10.2-23.4-15.4c-2.5,3.8-5.2,7.7-7.7,11.8c-1.6-1.1-3-1.9-4.7-3c7.1-10.7,14-21.2,20.9-31.6
	C256.6,205.5,258,206.3,259.6,207.4z M-32.9,248.1c-3.6-3.3-6.9-6.3-10.2-9.6c1.4-1.4,2.5-2.7,3.8-4.1c9.3,8.5,18.4,17,27.8,25.8
	c-1.4,1.4-2.5,2.7-3.8,4.1c-3.6-3.3-6.9-6.3-10.7-9.9c-6.3,6.6-12.6,13.5-19,20.3c-2.2-1.9-4.4-3.8-6.9-6
	C-45.6,261.8-39.3,255-32.9,248.1z M-84.4,162.8c-8.8,3-17.6,6-26.4,8.8c2.5,7.4,4.7,14.3,7.1,21.7c-1.6,0.5-3.3,1.1-5.2,1.9
	c-3.3-10.2-6.6-20.1-10.2-30.5c10.7-3.6,21.2-7.1,31.9-10.7C-86.3,157.1-85.5,159.8-84.4,162.8z M115.6-42.8
	c0.8-12.6-6.9-17.3-15.1-19.8c-9.1-2.5-18.1,2.2-21.2,11c-0.8,2.2-1.1,4.9-1.1,7.4c-0.3,8,0,15.9,0,24.7c-4.1-4.4-7.7-7.7-10.7-11.8
	c-3.3-4.7-7.7-5.2-12.6-4.1c0,8.5,0,17,0,25.6c3.3,0,6,0,9.3,0c0-3.8,0-7.4,0-11c0.3,0,0.5-0.3,0.8-0.3c3.3,3.3,6.6,6.6,9.9,9.9
	c0.8,0.8,1.6,1.6,2.7,1.6c3,0.3,6,0,9.3,0c0-5.2,0-10.4,0-15.4c7.1,0,13.7,0,20.9,0c0,5.2,0,10.2,0,15.1c3,0,5.8,0,8.5,0
	c0-1.6-0.3-3.3,0-4.7s0.8-3.3,1.6-3.6c1.6-0.3,3.3,0.3,4.7,1.1c1.6,1.1,2.7,2.5,3.8,4.1c3,4.4,7.1,3.6,11.8,3
	c-3.6-3.6-6.6-7.1-9.9-10.4c-1.9-1.9-1.9-3.6,0.5-4.9c1.9-1.1,3.6-2.7,5.5-3.6c2.7-1.4,3.3-3.6,2.2-7.1c-2.2,0.8-4.7,1.6-6.6,2.7
	c-3,1.9-5.5,4.1-8.2,6c-1.6,1.1-3.6,1.6-6,2.7C115.6-31.6,115.3-37.1,115.6-42.8z M86.7-47.2c0.5-4.9,5.2-8.2,11.3-8
	c5.2,0.3,9.1,3.8,9.6,9.3c0.3,4.1,0,8.5,0,12.9c-7.1,0-14,0-20.9,0C86.7-37.6,86.4-42.6,86.7-47.2z"/>
</svg>
