<?xml version="1.0" encoding="utf-8"?>
<!-- Generator: Adobe Illustrator 23.1.0, SVG Export Plug-In . SVG Version: 6.00 Build 0)  -->
<svg version="1.1" id="Layer_2" xmlns="http://www.w3.org/2000/svg" xmlns:xlink="http://www.w3.org/1999/xlink" x="0px" y="0px"
	 viewBox="0 0 52.7 49.3" style="enable-background:new 0 0 52.7 49.3;" xml:space="preserve">
<style type="text/css">
	.Arched_x0020_Green{fill:url(#SVGID_1_);stroke:#FFFFFF;stroke-width:0.25;stroke-miterlimit:1;}
	.st0{stroke:#000000;stroke-width:2.9305;}
</style>
<linearGradient id="SVGID_1_" gradientUnits="userSpaceOnUse" x1="-4.25" y1="186.457" x2="-3.5429" y2="185.7499">
	<stop  offset="0" style="stop-color:#20AC4B"/>
	<stop  offset="0.9831" style="stop-color:#19361A"/>
</linearGradient>
<path class="st0" d="M-30.8,24.6C-30.8-7.8-4.5-34,27.9-34S86.5-7.8,86.5,24.6c0,32.4-26.3,58.7-58.7,58.7S-30.8,57-30.8,24.6z
	 M27.9,87.1c34.4,0,62.4-28,62.4-62.4c0-34.4-28-62.4-62.4-62.4c-34.4,0-62.4,28-62.4,62.4C-34.5,59.1-6.5,87.1,27.9,87.1L27.9,87.1
	z M27.9-34c32.4,0,58.7,26.4,58.7,58.7c0,32.4-26.3,58.7-58.7,58.7c-32.4,0-58.7-26.4-58.7-58.7C-30.9-7.7-4.5-34,27.9-34L27.9-34z
	 M61.3,48.5c-0.9,0.2-0.7,1.8,0.1,1.5l4.3-0.9l1.4-2.9c0.1-0.1,0-0.2,0-0.3l-0.6-1c0.3-0.9,0.6-1.4,0.8-2l-4.1-1.9
	c-0.6,1.6-2.8,6-2.8,6c-0.4,0.9,0.6,1.6,1.1,0.6l1.7-3.1l0.9,2.9c0.1,0.1,0.1,0.3,0,0.4C64.2,47.9,62,48.4,61.3,48.5z M61.3,50.4
	l4.6-1l1.5-3c0.1-0.3,0-0.5,0-0.6L66.8,45c0.2-0.5,0.3-0.8,0.5-1.2c0.1-0.3,0.2-0.5,0.3-0.8l0.1-0.2l-4.6-2.1L63,41
	c-0.6,1.6-2.8,5.9-2.8,5.9c-0.2,0.4-0.2,0.8,0,1.1c0.2,0.3,0.4,0.4,0.7,0.4c-0.3,0.3-0.4,0.7-0.4,1.1C60.5,50,60.8,50.4,61.3,50.4
	L61.3,50.4z M63.3,43.9l-2,3.6c-0.2,0.4-0.5,0.4-0.7,0.2c-0.1-0.1-0.1-0.3,0-0.5c0.1-0.2,2-4,2.7-5.7l3.6,1.7
	c-0.1,0.2-0.1,0.3-0.2,0.5c-0.2,0.3-0.3,0.7-0.5,1.4l0.6,1.1l-1.3,2.8l-4.2,0.9l-0.1,0.3v-0.3c-0.2,0-0.2-0.3-0.2-0.3
	c0-0.2,0-0.6,0.4-0.7c0.7-0.2,2.9-0.7,3.1-0.8c0.2-0.2,0.1-0.5,0-0.6L63.3,43.9L63.3,43.9z M63.2,45.3l0.7,2.3l0.2,0l0.1,0.1
	c0,0-1.8,0.4-2.7,0.6c0.1-0.1,0.2-0.2,0.3-0.3L63.2,45.3L63.2,45.3z M-9.2,47.9c-0.1-0.1-0.1-0.3,0-0.4l0.9-2.9l1.7,3.1
	c0.5,1,1.6,0.3,1.1-0.6c0,0-2.2-4.4-3-6.1l-4.1,1.8c0.3,0.7,0.6,1.5,0.9,2.1l-0.6,1c0,0.1-0.1,0.2,0,0.3l1.4,2.9l4.3,0.9
	c0.9,0.3,1-1.3,0.1-1.5C-7,48.4-9.2,47.9-9.2,47.9z M-6.2,50.4c0.4,0,0.7-0.3,0.8-0.8c0-0.4-0.1-0.8-0.4-1.1c0.3,0,0.5-0.2,0.7-0.4
	c0.2-0.3,0.2-0.7,0-1.1c0,0-2.3-4.4-3-6.1l-0.1-0.3l-4.6,2.1l0.4,0.8c0.2,0.5,0.4,1,0.6,1.4l-0.5,0.9c-0.1,0.2-0.1,0.4,0,0.6
	l1.4,2.9l4.5,1.1L-6.2,50.4L-6.2,50.4L-6.2,50.4z M-10.5,48.9l-1.3-2.8l0.6-1.2l-0.1-0.1c-0.2-0.5-0.4-1-0.7-1.5l-0.1-0.4l3.6-1.6
	c0.8,1.9,2.8,5.7,2.9,5.9c0.1,0.2,0.1,0.4,0,0.5C-5.7,48-6.1,48-6.3,47.6l-2-3.6l-1.1,3.3c-0.2,0.2-0.2,0.5,0.1,0.8
	c0,0,2.3,0.5,2.9,0.7C-6,48.9-6,49.2-6,49.5c0,0,0,0.3-0.2,0.3l0,0L-10.5,48.9L-10.5,48.9z M-9,47.6l0.8-2.3l1.4,2.5
	c0.1,0.1,0.2,0.3,0.3,0.4C-7.2,48-8.5,47.7-9,47.6L-9,47.6z M-1.2-7l-1.2,1.2c-0.3,0.3-0.7,0.6-1,0.9l3.1,3.3C1-3,2.9-4.7,4.5-5.8
	c0.5-0.4,0-1.5-1-1L1.9-5.6L-0.8-7C-1-7.1-1.1-7.1-1.2-7z M-0.3-1.2l0.2-0.2c1.5-1.5,3.3-3.1,4.8-4.2C5-5.8,5.1-6.2,4.9-6.5
	C4.7-7.1,4.2-7.5,3.3-7L1.8-5.9l-2.5-1.3L-1-7.3c-0.2,0-0.3,0.1-0.4,0.2L-2.6-6C-2.7-5.9-2.9-5.8-3-5.6c-0.2,0.2-0.4,0.4-0.6,0.5
	l-0.2,0.2L-0.3-1.2L-0.3-1.2z M-3-4.9C-2.9-5-2.8-5.1-2.6-5.2c0.2-0.1,0.3-0.3,0.5-0.4L-1-6.8l2.9,1.5l1.7-1.3
	c0.4-0.2,0.7,0,0.8,0.2c0,0.1,0.1,0.2-0.1,0.3C2.9-5,1.1-3.4-0.3-2L-3-4.9L-3-4.9z M3.5-6.8c1-0.4,1.6,0.6,1,1l1.3-1l-2.4-3.9
	c-0.6,0.4-1.4,0.9-2,1.4L0.3-9.6c-0.1,0-0.2,0-0.3,0.1l-2,1.8l-0.4,1.9L-1.2-7C-1.1-7.1-1-7.1-0.8-7l2.7,1.4L3.5-6.8z M-2.9-5.1
	L-1-6.8l2.9,1.5l1.7-1.3c0.4-0.2,0.7,0,0.8,0.2c0,0.1,0.1,0.2-0.1,0.3l0.3,0.4l1.5-1.1L3.5-11l-0.7,0.5c-0.5,0.3-1,0.7-1.4,1
	L0.2-9.9l-0.3,0.1l-2.2,2L-2.9-5.1L-2.9-5.1z M-1-7.3c-0.2,0-0.3,0.1-0.4,0.2L-2-6.6l0.2-1l2-1.8l1.3,0.4L1.5-9c0.4-0.3,1-0.7,1.5-1
	l0.2-0.2l2.1,3.4L5-6.5c0,0,0,0,0,0C4.7-7.1,4.2-7.5,3.3-7L1.8-5.9l-2.5-1.3L-1-7.3L-1-7.3z M55.9-7.8l-1.3-1.1
	c-0.3-0.3-0.7-0.5-1-0.8l-2.8,3.5C52.3-5,54.2-3.3,55.6-2c0.5,0.5,1.5-0.2,0.9-1.2L55-4.5l1-2.9C56.1-7.6,56-7.7,55.9-7.8z M56-1.6
	c0.3,0,0.6-0.2,0.8-0.5C57-2.4,57-2.9,56.6-3.3l-1.4-1.3l1-2.7c0.1-0.2,0.1-0.5-0.2-0.7l-1.7-1.3c-0.2-0.2-0.5-0.4-0.7-0.5l-0.2-0.2
	l-3.2,4l0.2,0.2c1.6,1.1,3.5,2.8,4.8,4.1C55.6-1.6,55.8-1.6,56-1.6L56-1.6z M51.1-6.2l2.5-3.1c0.2,0.1,0.3,0.2,0.5,0.4l1.7,1.4
	l-1.1,3.1L56.2-3c0.2,0.2,0.2,0.5,0.1,0.7c-0.1,0.1-0.2,0.2-0.3,0.2l-0.2-0.1C54.5-3.5,52.7-5,51.1-6.2L51.1-6.2z M56.5-3.1
	c0.6,0.9-0.4,1.6-0.9,1.2l1.2,1.1l3.5-2.9c-0.5-0.6-1.2-1.3-1.7-1.8l0.2-1.2c0-0.1,0-0.2-0.1-0.3l-2.1-1.7l-2-0.2l1.3,1.1
	C56-7.7,56.1-7.6,56-7.4l-1,2.9L56.5-3.1z M56.8-0.5l3.9-3.3L60.5-4c-0.5-0.5-1.1-1.2-1.6-1.7l0.2-1c0-0.1,0-0.3-0.2-0.5L56.6-9
	l-2.8-0.3l2,1.8l-1.1,3.1L56.2-3c0.2,0.2,0.2,0.5,0.1,0.7c-0.1,0.1-0.2,0.2-0.5,0.1l-0.4,0.4L56.8-0.5L56.8-0.5z M56.4-1.6
	c0.2-0.1,0.3-0.2,0.4-0.4C57-2.4,57-2.9,56.6-3.3l-1.4-1.3l1-2.7c0.1-0.2,0.1-0.5-0.2-0.7l-0.7-0.6l1,0.1l2.1,1.8l-0.2,1.3l0.1,0.1
	c0.5,0.5,1,1.1,1.5,1.6l-3.1,2.6L56.4-1.6L56.4-1.6z M27.8-14.6c4.1,0,7.5-3.3,7.5-7.5c0-4.1-3.3-7.5-7.5-7.5
	c-4.1,0-7.5,3.4-7.5,7.5C20.3-17.9,23.7-14.6,27.8-14.6z M27.8-14.3c4.3,0,7.8-3.5,7.8-7.8c0-4.3-3.5-7.8-7.8-7.8
	c-4.3,0-7.8,3.5-7.8,7.8C20.1-17.8,23.5-14.3,27.8-14.3L27.8-14.3z M27.8-29.3c4,0,7.2,3.2,7.2,7.2c0,4-3.2,7.2-7.2,7.2
	c-4,0-7.2-3.2-7.2-7.2C20.6-26,23.9-29.3,27.8-29.3L27.8-29.3z M75.9,25.5c4.1,0,7.5-3.3,7.5-7.5c0-4.1-3.4-7.5-7.5-7.5
	c-4.1,0-7.5,3.3-7.5,7.5C68.4,22.2,71.8,25.5,75.9,25.5z M75.9,25.8c4.3,0,7.8-3.5,7.8-7.8c0-4.3-3.5-7.8-7.8-7.8
	c-4.3,0-7.8,3.5-7.8,7.8C68.1,22.3,71.6,25.8,75.9,25.8L75.9,25.8z M75.9,10.8c4,0,7.2,3.2,7.2,7.2c0,4-3.2,7.2-7.2,7.2
	c-4,0-7.2-3.2-7.2-7.2C68.7,14,71.9,10.8,75.9,10.8L75.9,10.8z M-20.2,25.5c4.1,0,7.5-3.3,7.5-7.5c0-4.1-3.4-7.5-7.5-7.5
	c-4.1,0-7.5,3.3-7.5,7.5C-27.6,22.2-24.3,25.5-20.2,25.5z M-20.2,25.8c4.3,0,7.8-3.5,7.8-7.8c0-4.3-3.5-7.8-7.8-7.8
	c-4.3,0-7.8,3.5-7.8,7.8C-27.9,22.3-24.4,25.8-20.2,25.8L-20.2,25.8z M-20.2,10.8c4,0,7.2,3.2,7.2,7.2c0,4-3.2,7.2-7.2,7.2
	c-4,0-7.2-3.2-7.2-7.2C-27.4,14-24.1,10.8-20.2,10.8L-20.2,10.8z M66.9,18c0-2.6,0.8-5.3,4.4-7.8c-2.1-6.1-4.9-11-9.1-15.6l-1.9,1.6
	l-3.5,2.9l-1.6,1.3c6,6.6,9.6,15.3,9.6,25c0,5.6-1.3,11-3.2,14.9l1.7,0.8l4.1,1.9l2.6,1.1c2.3-4.7,3.8-10.8,4-17.4
	C70.2,26,66.9,22.3,66.9,18z M70,44.4l0.1-0.2c2.4-4.9,3.9-11.1,4-17.5l0-0.2l-0.2,0c-3.7-0.7-6.8-4.4-6.8-8.4c0-2.2,0.5-5,4.3-7.5
	l0.2-0.1l-0.1-0.2c-2.2-6.3-5-11.2-9.2-15.7l-0.2-0.2l-7.4,6.2L55,0.7c6.1,6.7,9.5,15.5,9.5,24.8c0,5.3-1.2,10.7-3.2,14.7l-0.1,0.3
	l6,2.8L70,44.4L70,44.4z M61.9,40.2c2-4.1,3.1-9.4,3.1-14.7c0-9.3-3.4-18.1-9.5-24.9L62.2-5c4,4.4,6.7,9.1,8.8,15.1
	c-3.8,2.7-4.3,5.6-4.3,7.9c0,4.1,3.1,8.1,7,8.9C73.4,33,72.1,39,69.8,43.7l-2.3-1L61.9,40.2L61.9,40.2z M27.6-13.1
	c-4.4,0-7.6-3.5-8.6-7.1c-6.3,1.2-12.1,3.6-17.2,7l1.6,2.6l2.4,3.9l0.8,1.4c6-4,13.2-6.4,20.9-6.4c8.4,0,15.8,2.6,22.1,7.3l1.2-1.6
	l2.8-3.5l1.6-2.2c-5.4-4-11.8-6.9-18.6-8.2C36-16.2,32-13.1,27.6-13.1z M49.6-4.1l4.2-5.4l1.7-2.4l-0.2-0.2
	c-5.6-4.2-11.9-7-18.8-8.3l-0.3-0.1l0,0.3c-0.5,3.7-4.4,6.8-8.6,6.8c-4.4,0-7.4-3.6-8.4-6.9l-0.1-0.2l-0.2,0c-6.2,1.2-12,3.5-17.3,7
	l-0.2,0.1L6.5-5l0.2-0.2c6.1-4.2,13.3-6.4,20.7-6.4c8,0,15.6,2.5,21.9,7.2L49.6-4.1L49.6-4.1z M27.5-12.1c-7.5,0-14.6,2.2-20.8,6.3
	l-4.5-7.3c5.1-3.3,10.7-5.6,16.6-6.8c1.1,3.5,4.2,7.1,8.8,7.1c4.4,0,8.4-3.1,9.1-7c6.6,1.3,12.6,4,18,8l-1.4,1.9l-2.8,3.6l-1,1.4
	C43.1-9.6,35.5-12.1,27.5-12.1L27.5-12.1z M0.7-0.5l-1.1-1.1l-3.1-3.3l-2.1-2.3c-4.7,4.8-8.4,10.6-10.7,17.1
	c3.2,1.8,5.1,4.6,5.1,8.4c0,3.8-3.3,8-7.7,8.6c0.2,6.1,1.5,11.9,3.8,17.2l2.6-1.2l4.1-1.8l1.6-0.7c-2-4.5-3.1-9.5-3.1-14.8
	C-9.8,15.4-5.8,6.2,0.7-0.5z M-15.2,44.4l8.8-4l-0.1-0.2c-2-4.6-3-9.6-3-14.7c0-9.7,3.7-18.8,10.4-25.7l0.2-0.2l-6.6-7.1l-0.2,0.2
	c-4.8,4.9-8.5,10.8-10.8,17.2l-0.1,0.2l0.2,0.1c3.3,1.8,4.9,4.5,4.9,8.1c0,3.5-3.1,7.7-7.5,8.3l-0.2,0l0,0.3
	c0.2,6,1.5,11.8,3.9,17.3L-15.2,44.4L-15.2,44.4z M-18.6,27.1c4.5-0.7,7.7-5.1,7.7-8.8c0-3.7-1.7-6.6-5-8.5
	c2.2-6.1,5.8-11.8,10.4-16.5l5.8,6.3C-6.3,6.5-10,15.7-10,25.4c0,5.1,1,10,3,14.6l-7.8,3.5C-17.2,38.4-18.4,32.8-18.6,27.1
	L-18.6,27.1z M-1.5,15.4v20.8h18.9v18.9h20.8V36.2h18.9V15.4H38.3V-3.5H17.4v18.9H-1.5z M38.6,55.4V36.5h18.9V15.1H38.6V-3.8H17.2
	v18.9H-1.7v21.4h18.9v18.9H38.6L38.6,55.4z M17.7,54.9V35.9H-1.2V15.7h18.9V-3.3H38v18.9h18.9v20.3H38v18.9H17.7L17.7,54.9z
	 M-10.2,52.1l-5.2,4.1l0.8,1.1l3.6-2.8l-2,4.9l0.8,1l5.2-4.1l-0.8-1.1l-3.6,2.8l2-4.9L-10.2,52.1z M-7,63.5c0.6,0,1.2-0.4,1.7-0.9
	c0.5-0.5,0.8-1.2,0.8-1.8c0-0.5-0.2-0.9-0.6-1.2c-0.3-0.3-0.7-0.5-1.2-0.5c-0.6,0-1.2,0.4-1.8,0.9c-0.5,0.5-0.8,1.2-0.8,1.8
	c0,0.5,0.2,0.9,0.6,1.2C-7.9,63.3-7.5,63.5-7,63.5z M-6.8,64.8c-0.8,0-1.5-0.3-2.2-0.9c-0.6-0.6-1-1.3-1-2.1c0-0.9,0.4-1.9,1.1-2.6
	c0.7-0.7,1.7-1.2,2.5-1.2c0.8,0,1.5,0.3,2.2,0.9c0.6,0.6,1,1.3,1,2.1c0,0.9-0.4,1.9-1.1,2.6C-5,64.3-6,64.8-6.8,64.8z M-2,64.7
	l1.5,1.1c0.3,0.2,0.9,0.3,1.2-0.3C1,65.1,1,64.7,0.5,64.4L-1,63.3L-2,64.7z M-1.4,61.6l3,2.2c0.5,0.4,0.9,1.1,0.6,1.7
	c-0.1,0.3-0.3,0.7-0.7,1.1c-0.5,0.4-0.8,0.4-1.3,0.3c0.1,0.3,0.3,0.6,0,1.2c-0.1,0.2-0.6,1-0.8,1.2c-0.2,0.3-0.2,0.4-0.1,0.6
	L-1,70.1l-1.2-0.9c0-0.2,0.1-0.4,0.2-0.6c0.2-0.3,0.5-0.7,0.8-1.1c0.2-0.4,0.1-0.7-0.3-1l-1.3-0.9l-1.5,2.1l-1.1-0.8L-1.4,61.6z
	 M6.9,69.2C7,69,7.2,68.5,7.1,67.9c-0.2-1-1.2-1.6-1.5-1.8c-1.4-0.8-2.4-0.4-3,0.4c-0.6,0.9-0.3,1.6,0.2,2.2
	c0.6,0.7,1.7,1.3,1.9,1.9c0.1,0.4-0.2,0.9-0.6,1c-0.2,0.1-0.7,0-1.1-0.2c-0.4-0.2-0.8-0.5-0.9-0.9c-0.1-0.3,0-0.6,0.1-0.7L1,69
	c-0.3,0.6-0.3,1.3,0,1.9c0.3,0.5,0.9,1,1.2,1.2c0.6,0.3,1.4,0.6,2,0.6c1-0.1,2-1.3,1.8-2.4c-0.2-0.6-0.8-1.1-1-1.3
	c-0.2-0.2-1.2-0.9-1.2-1.1c-0.2-0.2-0.3-0.4,0-0.8C4,66.7,4.5,66.7,5.1,67c0.8,0.5,1,1.1,0.7,1.6L6.9,69.2z M6.2,74l1.3,0.5l0.8-2
	L9.2,72l0.9,3.5l1.5,0.6l-1.3-4.5l3.5-1.7l-1.5-0.6L8.8,71l1.1-2.7l-1.3-0.5L6.2,74z M16.7,70.6l-1.3,6.5l1.3,0.3l0.6-2.8l2.8,0.6
	l0.2-1.1l-2.8-0.6l0.3-1.5l3.2,0.6l0.2-1.1L16.7,70.6z M25.5,77.1c0.5-0.4,0.7-1.1,0.8-1.8c0-0.7-0.1-1.4-0.5-1.9
	c-0.3-0.3-0.7-0.5-1.2-0.5c-0.4,0-0.9,0.1-1.2,0.4c-0.5,0.4-0.7,1.1-0.8,1.8c0,0.7,0.1,1.5,0.5,1.9c0.3,0.3,0.7,0.5,1.2,0.5
	C24.7,77.5,25.2,77.4,25.5,77.1z M26.5,77.9c-0.6,0.5-1.4,0.7-2.2,0.7c-0.8-0.1-1.6-0.4-2.1-1c-0.6-0.7-0.9-1.7-0.8-2.7
	c0.1-1,0.5-2,1.2-2.6c0.6-0.5,1.4-0.7,2.2-0.7c0.8,0.1,1.6,0.4,2.1,1c0.6,0.7,0.9,1.7,0.8,2.7C27.5,76.4,27.1,77.3,26.5,77.9z
	 M28.6,71.9l0.4,6.6l4.5-0.3l-0.1-1.1l-3.1,0.2l-0.3-5.5L28.6,71.9z M35,78.1l1.3-0.2l-0.4-2.1l0.5-0.9l2.6,2.4l1.6-0.3l-3.5-3.2
	l2-3.3l-1.6,0.3l-2,3.3l-0.5-2.9l-1.3,0.2L35,78.1z M39.9,70.4l2,6.3l4.7-1.5l-0.4-1.1l-3.4,1.1l-0.5-1.6l3-1L45,71.5l-3,1L41.6,71
	l3.2-1.1l-0.4-1.1L39.9,70.4z M48.1,74.6l1.2-0.6L48,71.3l2.4-1.1l1.3,2.7l1.2-0.6l-2.9-6l-1.2,0.6l1.1,2.3l-2.4,1.1L46.5,68
	l-1.2,0.6L48.1,74.6z M52.9,64.5l2.6,4.2c0.2,0.3,0.2,0.7-0.2,1c-0.6,0.5-1-0.1-1.1-0.3l-0.4-0.6l-1.1,0.7l0.4,0.6
	c0.3,0.5,0.9,1,1.6,0.9c0.3,0,0.8-0.2,1.3-0.5c0.4-0.3,0.8-0.8,0.9-1.3c0.1-0.5,0-0.9-0.2-1.2L54,63.8L52.9,64.5z M54.9,63.2
	l4.1,5.2l3.8-3.1l-0.7-0.9l-2.8,2.2l-1.1-1.3l2.5-2l-0.7-0.9l-2.5,2l-0.9-1.2l2.7-2.1l-0.7-0.9L54.9,63.2z M59.3,59.6l4.7,4.7
	l3.2-3.2l-0.8-0.8l-2.2,2.2l-3.9-3.9L59.3,59.6z M66.2,56.7l0.9-1.2c0.3-0.3,0.1-0.7,0-0.9c-0.1-0.2-0.4-0.5-0.7-0.6
	c-0.4-0.1-0.7,0.1-0.9,0.4l-0.9,1.1L66.2,56.7z M62.9,55.9l1.8-2.3c0.3-0.4,0.9-1.2,2-0.9c0.6,0.2,1.3,0.8,1.6,1.2
	c0.4,0.9,0.3,1.6-0.2,2.2l-1,1.3l1.9,1.5l-0.8,1.1L62.9,55.9z M28,83.4c32.5,0,58.8-26.3,58.8-58.8c0-32.5-26.3-58.8-58.8-58.8
	c-32.5,0-58.8,26.3-58.8,58.8C-30.8,57.1-4.5,83.4,28,83.4z M28,87.1c34.5,0,62.5-28,62.5-62.5c0-34.5-28-62.5-62.5-62.5
	c-34.5,0-62.5,28-62.5,62.5C-34.5,59.1-6.5,87.1,28,87.1L28,87.1z M28-34.2c32.5,0,58.9,26.4,58.9,58.9c0,32.5-26.4,58.9-58.9,58.9
	c-32.5,0-58.9-26.4-58.9-58.9C-30.9-7.8-4.5-34.2,28-34.2L28-34.2z M61.5,48.5c-0.9,0.2-0.7,1.8,0.1,1.5l4.3-0.9l1.4-2.9
	c0.1-0.1,0-0.2,0-0.3l-0.6-1c0.3-0.9,0.6-1.4,0.8-2l-4.1-1.9c-0.6,1.6-2.8,6-2.8,6c-0.5,0.9,0.6,1.6,1.1,0.6l1.7-3.1l0.9,2.9
	c0.1,0.1,0.1,0.3,0,0.4C64.4,47.8,62.2,48.4,61.5,48.5z M61.5,50.4l4.6-1l1.5-3c0.1-0.3,0-0.5,0-0.6L67,45c0.2-0.5,0.3-0.8,0.5-1.2
	c0.1-0.3,0.2-0.5,0.3-0.8l0.1-0.2l-4.6-2.1L63.2,41c-0.6,1.6-2.8,5.9-2.8,6c-0.2,0.4-0.2,0.8,0,1.1c0.2,0.3,0.4,0.4,0.7,0.4
	c-0.3,0.3-0.4,0.7-0.4,1.1C60.7,50,61,50.4,61.5,50.4L61.5,50.4z M63.5,43.9l-2,3.6c-0.2,0.4-0.5,0.4-0.7,0.2
	c-0.1-0.1-0.1-0.3,0-0.5c0.1-0.2,2-4,2.7-5.7l3.6,1.7c-0.1,0.2-0.1,0.3-0.2,0.5c-0.2,0.3-0.3,0.7-0.5,1.4l0.6,1.1l-1.3,2.8l-4.2,0.9
	l-0.1,0.3v-0.3c-0.2,0-0.2-0.3-0.2-0.3c0-0.2,0-0.6,0.4-0.7c0.7-0.2,2.9-0.7,3.1-0.8c0.2-0.2,0.1-0.5,0-0.6L63.5,43.9L63.5,43.9z
	 M63.4,45.3l0.7,2.3l0.2,0l0.1,0c0,0-1.8,0.4-2.7,0.6c0.1-0.1,0.2-0.2,0.3-0.3L63.4,45.3L63.4,45.3z M-9.2,47.8
	c-0.1-0.1-0.1-0.3,0-0.4l0.9-2.9l1.7,3.1c0.5,1,1.6,0.3,1.1-0.6c0,0-2.3-4.4-3-6.1l-4.1,1.9c0.3,0.7,0.6,1.5,0.9,2.1l-0.6,1
	c0,0.1-0.1,0.2,0,0.3l1.4,2.9l4.3,0.9c0.9,0.3,1-1.3,0.1-1.5C-6.9,48.4-9.2,47.8-9.2,47.8z M-6.2,50.4c0.4,0,0.7-0.3,0.8-0.8
	c0-0.4-0.1-0.8-0.4-1.1c0.3,0,0.5-0.2,0.7-0.4c0.2-0.3,0.2-0.7,0-1.1c0,0-2.3-4.4-3-6.1l-0.1-0.3l-4.6,2.1l0.4,0.9
	c0.2,0.5,0.4,1,0.6,1.4l-0.5,0.9c-0.1,0.2-0.1,0.4,0,0.6l1.4,2.9l4.5,1.1L-6.2,50.4L-6.2,50.4L-6.2,50.4z M-10.5,48.9l-1.3-2.8
	l0.6-1.2l-0.1-0.1c-0.2-0.5-0.5-1-0.7-1.5l-0.1-0.4l3.6-1.6c0.8,1.9,2.8,5.7,2.9,5.9c0.1,0.2,0.1,0.4,0,0.5C-5.7,48-6,47.9-6.2,47.6
	l-2-3.6l-1.1,3.4c-0.2,0.2-0.2,0.5,0.1,0.8c0,0,2.3,0.5,2.9,0.7c0.3,0.1,0.4,0.5,0.4,0.7c0,0,0,0.3-0.2,0.3l0,0L-10.5,48.9
	L-10.5,48.9z M-8.9,47.6l0.8-2.3l1.4,2.5c0.1,0.1,0.2,0.3,0.3,0.4C-7.1,48-8.4,47.7-8.9,47.6L-8.9,47.6z M-1.1-7.1l-1.2,1.2
	C-2.6-5.7-3-5.3-3.3-5l3.1,3.3C1.1-3.1,3-4.8,4.6-5.9c0.5-0.4,0-1.5-1-1L2-5.7l-2.7-1.5C-0.9-7.2-1-7.2-1.1-7.1z M-0.3-1.3l0.2-0.2
	C1.4-3,3.3-4.6,4.8-5.7C5-6,5.2-6.3,5-6.7C4.8-7.3,4.3-7.6,3.4-7.2L1.9-6l-2.5-1.3l-0.3-0.1c-0.1,0-0.3,0.1-0.4,0.2l-1.2,1.2
	C-2.6-6-2.8-5.9-2.9-5.8c-0.2,0.2-0.4,0.4-0.6,0.5L-3.7-5L-0.3-1.3L-0.3-1.3z M-2.9-5c0.1-0.1,0.2-0.2,0.4-0.3
	c0.2-0.1,0.3-0.3,0.5-0.4l1.2-1.2L2-5.4l1.7-1.3c0.4-0.2,0.7,0,0.8,0.2c0,0.1,0.1,0.2-0.1,0.3C3-5.1,1.2-3.5-0.3-2.1L-2.9-5L-2.9-5z
	 M3.6-7c1-0.4,1.6,0.6,1,1l1.3-1l-2.4-3.9c-0.6,0.4-1.4,0.9-2,1.4L0.3-9.7c-0.1,0-0.2,0-0.3,0.1l-2,1.8L-2.4-6l1.2-1.1
	c0.1-0.1,0.2-0.1,0.4,0L2-5.7L3.6-7z M-2.8-5.2l1.9-1.7L2-5.4l1.7-1.3c0.4-0.2,0.7,0,0.8,0.2c0,0.1,0.1,0.2-0.1,0.3l0.3,0.4l1.5-1.1
	l-2.7-4.3l-0.7,0.5c-0.5,0.3-1,0.7-1.4,1L0.2-10L-0.1-10l-2.2,2L-2.8-5.2L-2.8-5.2z M-0.9-7.5c-0.1,0-0.3,0.1-0.4,0.2L-2-6.7l0.2-1
	l2.1-1.8l1.3,0.4l0.1-0.1c0.5-0.3,1-0.7,1.5-1.1l0.2-0.2L5.5-7L5-6.6c0,0,0,0,0,0C4.8-7.3,4.3-7.6,3.4-7.2L1.9-6l-2.5-1.3L-0.9-7.5
	L-0.9-7.5z M56.1-7.9L54.8-9c-0.3-0.3-0.7-0.5-1-0.8l-2.8,3.5c1.6,1.1,3.5,2.8,4.9,4.2c0.5,0.5,1.5-0.2,0.9-1.2l-1.5-1.4l1-2.9
	C56.3-7.7,56.2-7.9,56.1-7.9z M56.2-1.7c0.3,0,0.6-0.2,0.8-0.5c0.2-0.4,0.2-0.8-0.1-1.3l-1.4-1.3l1-2.7c0.1-0.2,0.1-0.5-0.2-0.7
	l-1.7-1.3c-0.2-0.2-0.5-0.4-0.7-0.5l-0.2-0.2l-3.2,4L50.8-6c1.6,1.1,3.5,2.8,4.8,4.1C55.8-1.8,56-1.7,56.2-1.7L56.2-1.7z M51.3-6.3
	l2.5-3.1c0.2,0.1,0.3,0.2,0.5,0.4l1.7,1.4l-1.1,3.1l1.6,1.5c0.2,0.3,0.2,0.5,0.1,0.7c-0.1,0.1-0.2,0.2-0.3,0.2L56-2.3
	C54.7-3.6,52.9-5.2,51.3-6.3L51.3-6.3z M56.7-3.3c0.6,0.9-0.4,1.6-0.9,1.2L57-1l3.5-2.9c-0.5-0.6-1.2-1.3-1.7-1.8l0.2-1.2
	c0-0.1,0-0.2-0.1-0.3l-2.1-1.7l-2-0.2l1.3,1.1c0.1,0.1,0.2,0.2,0.1,0.4l-1,2.9L56.7-3.3z M56.9-0.6l3.9-3.3l-0.2-0.2
	c-0.5-0.5-1.1-1.2-1.6-1.7l0.2-1c0-0.1,0-0.3-0.2-0.5l-2.2-1.8l-2.8-0.3l2,1.8l-1.1,3.1l1.6,1.5c0.2,0.3,0.2,0.5,0.1,0.7
	c-0.1,0.1-0.2,0.2-0.5,0.1l-0.4,0.4L56.9-0.6L56.9-0.6z M56.5-1.8C56.7-1.8,56.9-2,57-2.2c0.2-0.4,0.2-0.8-0.1-1.3l-1.4-1.3l1-2.7
	c0.1-0.2,0.1-0.5-0.2-0.7l-0.7-0.6l1,0.1l2.1,1.8l-0.2,1.3l0.1,0.1c0.5,0.5,1,1.1,1.5,1.6L57-1.3L56.5-1.8L56.5-1.8z M28-14.7
	c4.1,0,7.5-3.4,7.5-7.5c0-4.1-3.4-7.5-7.5-7.5c-4.1,0-7.5,3.4-7.5,7.5C20.5-18.1,23.8-14.7,28-14.7z M28-14.5c4.3,0,7.8-3.5,7.8-7.8
	S32.2-30,28-30s-7.8,3.5-7.8,7.8S23.7-14.5,28-14.5L28-14.5z M28-29.4c4,0,7.2,3.2,7.2,7.2c0,4-3.2,7.2-7.2,7.2s-7.2-3.2-7.2-7.2
	C20.7-26.2,24-29.4,28-29.4L28-29.4z M76.1,25.4c4.1,0,7.5-3.4,7.5-7.5c0-4.1-3.4-7.5-7.5-7.5c-4.1,0-7.5,3.4-7.5,7.5
	C68.6,22.1,72,25.4,76.1,25.4z M76.1,25.7c4.3,0,7.8-3.5,7.8-7.8s-3.5-7.8-7.8-7.8c-4.3,0-7.8,3.5-7.8,7.8S71.8,25.7,76.1,25.7
	L76.1,25.7z M76.1,10.7c4,0,7.2,3.2,7.2,7.2c0,4-3.2,7.2-7.2,7.2c-4,0-7.2-3.2-7.2-7.2C68.9,14,72.1,10.7,76.1,10.7L76.1,10.7z
	 M-20.1,25.4c4.1,0,7.5-3.4,7.5-7.5c0-4.1-3.4-7.5-7.5-7.5c-4.1,0-7.5,3.4-7.5,7.5C-27.6,22.1-24.3,25.4-20.1,25.4z M-20.1,25.7
	c4.3,0,7.8-3.5,7.8-7.8s-3.5-7.8-7.8-7.8s-7.8,3.5-7.8,7.8S-24.4,25.7-20.1,25.7L-20.1,25.7z M-20.1,10.7c4,0,7.2,3.2,7.2,7.2
	c0,4-3.2,7.2-7.2,7.2c-4,0-7.2-3.2-7.2-7.2C-27.4,14-24.1,10.7-20.1,10.7L-20.1,10.7z M67.1,17.9c0-2.6,0.8-5.3,4.4-7.8
	c-2.1-6.1-4.9-11-9.1-15.7l-1.9,1.6L57-1l-1.6,1.3c6,6.6,9.6,15.3,9.6,25c0,5.6-1.3,11-3.2,14.9l1.7,0.8l4.1,1.9l2.6,1.1
	c2.3-4.7,3.8-10.9,4-17.4C70.5,26,67.1,22.3,67.1,17.9z M70.3,44.4l0.1-0.2c2.4-4.9,3.9-11.1,4-17.5l0-0.2l-0.2,0
	c-3.7-0.7-6.8-4.5-6.8-8.4c0-2.2,0.5-5,4.3-7.6l0.2-0.1l-0.1-0.2c-2.2-6.3-5-11.2-9.2-15.8l-0.2-0.2L55,0.3l0.2,0.2
	c6.2,6.8,9.5,15.6,9.5,24.8c0,5.4-1.2,10.7-3.2,14.8l-0.1,0.3l6.1,2.8L70.3,44.4L70.3,44.4z M62.1,40.2c2-4.1,3.1-9.4,3.1-14.8
	c0-9.3-3.4-18.2-9.5-25l6.6-5.5c4,4.4,6.7,9.1,8.8,15.2c-3.8,2.7-4.3,5.6-4.3,7.9c0,4.1,3.1,8.1,7,8.9C73.7,33,72.3,38.9,70,43.7
	l-2.3-1L62.1,40.2L62.1,40.2z M27.8-13.2c-4.4,0-7.6-3.5-8.6-7.1c-6.3,1.2-12.1,3.6-17.2,7l1.6,2.6l2.4,3.9l0.8,1.4
	c6-4.1,13.2-6.4,20.9-6.4c8.4,0,15.9,2.6,22.1,7.3l1.2-1.6l2.8-3.5l1.6-2.2c-5.4-4-11.8-6.9-18.7-8.3C36.1-16.4,32.1-13.2,27.8-13.2
	z M49.8-4.3L54-9.7l1.7-2.4l-0.2-0.2c-5.6-4.2-12-7-18.8-8.3l-0.3-0.1l0,0.3c-0.5,3.8-4.4,6.8-8.6,6.8c-4.4,0-7.4-3.6-8.4-6.9
	l-0.1-0.2l-0.2,0c-6.2,1.2-12.1,3.5-17.3,7l-0.2,0.1l5.1,8.3l0.2-0.2c6.1-4.2,13.3-6.4,20.8-6.4c8,0,15.6,2.5,21.9,7.2L49.8-4.3
	L49.8-4.3z M27.6-12.2c-7.5,0-14.7,2.2-20.9,6.3l-4.5-7.3C7.4-16.6,13-18.9,18.9-20c1.1,3.5,4.3,7.1,8.8,7.1c4.4,0,8.4-3.1,9.1-7
	c6.6,1.3,12.6,4,18.1,8L53.5-10l-2.8,3.6l-1,1.4C43.3-9.7,35.7-12.2,27.6-12.2L27.6-12.2z M0.8-0.6l-1.1-1.1L-3.3-5l-2.1-2.3
	c-4.7,4.8-8.5,10.6-10.8,17.1c3.2,1.8,5.1,4.6,5.1,8.4c0,3.8-3.3,8-7.7,8.6c0.2,6.1,1.5,11.9,3.8,17.2l2.6-1.2l4.1-1.9l1.6-0.7
	c-2-4.5-3.1-9.6-3.1-14.8C-9.7,15.3-5.7,6.1,0.8-0.6z M-15.1,44.4l8.9-4l-0.1-0.3c-2-4.7-3-9.6-3-14.7C-9.4,15.7-5.7,6.6,1-0.4
	l0.2-0.2l-6.6-7.1l-0.2,0.2c-4.8,4.9-8.6,10.8-10.8,17.2l-0.1,0.2l0.2,0.1c3.3,1.8,4.9,4.6,4.9,8.2c0,3.5-3.1,7.8-7.5,8.3l-0.3,0
	l0,0.3c0.2,6,1.5,11.8,3.9,17.3L-15.1,44.4L-15.1,44.4z M-18.6,27c4.6-0.7,7.7-5.2,7.7-8.8c0-3.7-1.7-6.6-5-8.5
	C-13.6,3.5-10-2.2-5.4-6.9l5.8,6.3c-6.7,7-10.4,16.2-10.4,26c0,5.1,1,10,3,14.7l-7.9,3.6C-17.1,38.4-18.4,32.8-18.6,27L-18.6,27z
	 M-1.4,15.3v20.9h19v19h20.9v-19h19V15.3h-19v-19H17.6v19H-1.4z M38.7,55.4v-19h19V15h-19v-19H17.3v19h-19v21.4h19v19H38.7
	L38.7,55.4z M17.8,54.9v-19h-19V15.6h19v-19h20.3v19h19v20.3h-19v19H17.8L17.8,54.9z M-10.2,52.1l-5.2,4.1l0.8,1.1l3.6-2.9l-2,5
	l0.8,1l5.2-4.1l-0.8-1.1l-3.6,2.8l2-4.9L-10.2,52.1z M-6.9,63.6c0.6,0,1.2-0.4,1.8-0.9c0.5-0.5,0.8-1.2,0.8-1.8
	c0-0.5-0.2-0.9-0.6-1.2c-0.3-0.3-0.7-0.5-1.2-0.5c-0.6,0-1.2,0.4-1.8,0.9c-0.5,0.5-0.8,1.2-0.8,1.8c0,0.5,0.2,0.9,0.6,1.2
	C-7.8,63.3-7.4,63.5-6.9,63.6z M-6.8,64.8c-0.8,0-1.6-0.3-2.2-0.9c-0.6-0.6-1-1.3-1-2.1c0-0.9,0.4-1.9,1.1-2.6
	c0.7-0.7,1.7-1.2,2.5-1.2c0.8,0,1.6,0.3,2.2,0.9c0.6,0.6,1,1.3,1,2.1c0,0.9-0.4,1.9-1.1,2.6C-4.9,64.3-5.9,64.8-6.8,64.8z
	 M-1.9,64.7l1.5,1.1c0.3,0.2,0.9,0.2,1.2-0.3c0.3-0.4,0.3-0.7-0.2-1.1l-1.5-1.1L-1.9,64.7z M-1.3,61.6l3,2.2
	c0.5,0.4,0.9,1.1,0.6,1.8c-0.1,0.3-0.3,0.7-0.7,1.1C1,67,0.7,67,0.1,66.9c0.1,0.3,0.3,0.6,0,1.2c-0.1,0.2-0.6,1-0.8,1.2
	c-0.2,0.3-0.2,0.4-0.1,0.6l-0.1,0.2l-1.2-0.9c0-0.2,0.1-0.4,0.2-0.6c0.2-0.3,0.5-0.7,0.8-1.1c0.2-0.4,0.1-0.7-0.3-1l-1.3-0.9
	l-1.5,2.1L-5.2,67L-1.3,61.6z M6.9,69.2c0.2-0.2,0.4-0.7,0.3-1.3c-0.2-1-1.2-1.6-1.5-1.8c-1.4-0.8-2.4-0.5-3.1,0.4
	c-0.6,0.9-0.3,1.6,0.2,2.2c0.6,0.7,1.7,1.3,1.9,1.9c0.1,0.4-0.2,0.9-0.6,1c-0.2,0.1-0.7,0-1.1-0.2c-0.4-0.2-0.8-0.5-0.9-0.9
	c-0.1-0.3,0-0.6,0.1-0.7l-1.2-0.6c-0.3,0.6-0.3,1.3,0,2c0.3,0.5,0.9,1,1.2,1.2c0.6,0.3,1.4,0.6,2,0.6c1-0.1,2-1.3,1.8-2.4
	c-0.2-0.6-0.8-1.1-1-1.3c-0.2-0.2-1.2-0.9-1.3-1.2c-0.2-0.2-0.3-0.4,0-0.8c0.3-0.5,0.8-0.4,1.4-0.1c0.8,0.5,1,1.1,0.7,1.6L6.9,69.2z
	 M6.3,74l1.3,0.5l0.8-2l0.9-0.5l0.9,3.5l1.5,0.6l-1.3-4.6l3.5-1.7l-1.5-0.6L8.9,71l1.1-2.7l-1.3-0.5L6.3,74z M16.8,70.6l-1.3,6.5
	l1.3,0.3l0.6-2.8l2.8,0.6l0.2-1.1l-2.8-0.6l0.3-1.5l3.2,0.6l0.2-1.1L16.8,70.6z M25.7,77.1c0.5-0.4,0.7-1.1,0.8-1.8
	c0-0.7-0.1-1.5-0.5-1.9c-0.3-0.3-0.7-0.5-1.2-0.5c-0.4,0-0.9,0.1-1.2,0.4c-0.5,0.4-0.7,1.1-0.8,1.8c0,0.7,0.1,1.4,0.5,1.9
	c0.3,0.3,0.7,0.5,1.2,0.5C24.9,77.5,25.3,77.4,25.7,77.1z M26.6,78c-0.6,0.5-1.4,0.7-2.2,0.7c-0.8-0.1-1.6-0.4-2.1-1
	C21.6,77,21.3,76,21.4,75c0.1-1,0.5-2,1.2-2.6c0.6-0.5,1.4-0.7,2.2-0.7c0.8,0.1,1.6,0.4,2.1,1c0.6,0.7,0.9,1.7,0.8,2.7
	C27.7,76.4,27.2,77.4,26.6,78z M28.7,72l0.4,6.6l4.5-0.3l-0.1-1.1l-3.1,0.2l-0.3-5.5L28.7,72z M35.1,78.2l1.3-0.2l-0.4-2.1l0.5-0.9
	l2.6,2.5l1.6-0.3l-3.5-3.2l2-3.3l-1.6,0.3l-2,3.3l-0.5-2.9l-1.3,0.2L35.1,78.2z M40.1,70.4l2.1,6.3l4.7-1.5l-0.4-1.1l-3.4,1.1
	l-0.5-1.6l3-1l-0.4-1.1l-3,1l-0.5-1.4l3.2-1l-0.3-1.1L40.1,70.4z M48.3,74.6l1.2-0.6l-1.3-2.7l2.4-1.1l1.3,2.7l1.2-0.6l-2.9-6
	L49,66.9l1.1,2.3l-2.4,1.1L46.6,68l-1.2,0.6L48.3,74.6z M53.1,64.6l2.6,4.2c0.2,0.3,0.2,0.7-0.2,1c-0.6,0.5-1-0.1-1.1-0.3L54,68.9
	l-1.1,0.7l0.4,0.6c0.3,0.5,0.9,1,1.6,0.9c0.3,0,0.8-0.2,1.3-0.5c0.4-0.3,0.8-0.8,0.9-1.3c0.1-0.5,0-0.9-0.2-1.2l-2.7-4.3L53.1,64.6z
	 M55.1,63.2l4.2,5.2l3.8-3.1l-0.7-0.9l-2.8,2.2l-1.1-1.3l2.5-2l-0.7-0.9l-2.5,2l-0.9-1.2l2.7-2.1l-0.7-0.9L55.1,63.2z M59.5,59.6
	l4.7,4.7l3.2-3.2l-0.8-0.8l-2.2,2.2l-3.9-3.9L59.5,59.6z M66.4,56.7l0.9-1.2c0.3-0.3,0.1-0.7,0-0.9c-0.1-0.2-0.4-0.5-0.7-0.6
	c-0.4-0.1-0.7,0.1-0.9,0.4l-0.9,1.2L66.4,56.7z M63.1,55.9l1.8-2.3c0.3-0.4,0.9-1.2,2-0.9c0.6,0.2,1.3,0.8,1.6,1.2
	c0.4,0.9,0.3,1.6-0.2,2.2l-1,1.3l1.9,1.5l-0.8,1.1L63.1,55.9z"/>
</svg>
