<?xml version="1.0" encoding="utf-8"?>
<!-- Generator: Adobe Illustrator 23.1.0, SVG Export Plug-In . SVG Version: 6.00 Build 0)  -->
<svg version="1.1" id="Layer_1" xmlns="http://www.w3.org/2000/svg" xmlns:xlink="http://www.w3.org/1999/xlink" x="0px" y="0px"
	 viewBox="0 0 2208.8 2176.1" style="enable-background:new 0 0 2208.8 2176.1;" xml:space="preserve">
<style type="text/css">
	.st0{fill:#231F20;}
</style>
<path class="st0" d="M-619.7,2002c-77.5-148.8-141.3-303-175.7-467.5c-22.5-107-38.5-215.9-47.8-324.7
	c-25-287.9,24.2-565.6,129.8-833.4c27.8-70.4,62.4-137.8,93.8-206.5c-351.1,0-702.3-0.3-1053.4-0.5c0,611,0,1222,0,1833.2
	 M627.9-786.2c105.9-22.3,213.9-38.2,322-47.6c302.2-26.1,592.3,28.3,871.7,143.3c58.6,24.2,114.7,53.3,172.1,80.3
	c0.3-236.8,0.5-473.8,0.5-710.8c0-114.1-0.5-228.5-0.8-342.9c-611,0-1222.3,0-1833.2,0c0,351.1,0.3,702.3,0.5,1053.4
	C309.2-687.7,463.7-751.3,627.9-786.2z M1993.4,3835.8c0-351.1,0.3-702.3,0.3-1053.4c-156.2,80.6-318.1,146.8-490.8,181.5
	c-97.9,19.8-197.7,33.5-297.2,42.3c-273.6,23.9-538.7-18.4-795.2-113.3c-85.2-31.6-166.9-73.1-250-110.3
	c0,351.1-0.3,702.3-0.3,1053.4C771.2,3835.8,1382.1,3835.8,1993.4,3835.8z M1993.7,2782.1c-156.2,80.6-318.1,146.8-490.8,181.5
	c-97.9,19.8-197.7,33.5-297.2,42.3c-273.6,23.9-538.7-18.4-795.2-113.3c-85.2-31.6-166.6-73.1-250-110.3
	c-128.7-74-251.3-156.5-362.1-255.4c-156.5-140-287.6-300.3-392.4-482.3c-8.2-14.3-17-28.3-25.6-42.3
	c-77.5-148.8-141.3-303-175.7-467.2c-22.5-107-38.5-215.9-47.8-324.7C-868,922.5-819,644.8-713.4,376.9
	c27.8-70.4,62.4-137.8,93.8-206.5C-553.4,72-492.3-30.8-419.2-124.3c151.5-193.9,338.8-348.1,553.5-469.1
	c9.1-4.9,17.3-10.7,26.1-16.2c148.8-77.8,303.3-141.3,467.5-176c105.9-22.3,213.9-38.2,322-47.6c302.2-26.1,592.3,28.3,871.7,143.3
	c58.3,24.2,114.7,53.3,172.1,80.3c88.3,58.3,179.8,111.9,263.7,175.7c207.9,157.6,372.9,353.3,501,580.5c4.7,8,9.6,15.9,14.6,23.9
	c44.8,104.8,96.8,207.1,133.1,314.8c79.5,235.9,113.3,479.6,90.7,728.7c-9.1,99.8-22,199.6-42.1,297.8
	c-34.9,172.7-100.4,335.2-181.8,491.4c-68.7,119.9-144.9,234.6-235.4,339.3c-148.8,172.1-322.3,313.7-520.2,425.7
	C2009.1,2772,2001.4,2777.2,1993.7,2782.1z M253.4,1304.7c-3.3-12.6,19.2-35.5-13.7-36.8c-33.3-1.1-60.5,30-57.5,69.6
	c12.9-5.8,24.7-10.4,36.3-15.9c11.8-5.5,23.6-11.5,35.5-17.3c-3,8.5-5.8,17.3-9.3,25.8c-17.6,42.3-2.7,61.6,44.3,56.6
	c17.6-1.9,28.6-22.5,15.4-32.2c-21.4-15.4-11-31.1-3.3-54.2C281.7,1302,267.7,1303.3,253.4,1304.7z M2560.7,375.3L2560.7,375.3
	c-1.9,6.9-2.2,14.6-5.5,20.6c-20.1,37.4-38.8,75.6-61.9,111.1c-17.9,27.2-14,49.2,5.8,74c74.8-33,149.9-66,226-99.5
	c-8.8-19.2-15.9-34.6-23.1-50c-43.7,18.4-84.7,35.7-125.7,53.1c-1.1-1.4-2.2-2.5-3.6-3.3c21.4-39.9,40.1-81.7,64.6-119.3
	c19.5-30.2,16.8-54.4-4.7-81.9c-74.8,32.7-149,65.4-225.5,99c8,18.1,14.6,33.5,21.7,49.8C2475.2,409.9,2518.1,392.6,2560.7,375.3z
	 M2557.4,1825.8c-1.9-2.2-3.8-4.4-5.5-6.6c15.4-27.8,30.8-55.8,47.3-85.8c-8.8-4.4-16.5-8.2-24.2-12.1
	c-18.7,31.9-36.3,61.6-55.8,94.6c-10.7-37.7-19.8-69.8-28.9-102.3c-4.1-0.5-8.2-1.1-12.4-1.6c-3,9.3-10.2,19.5-8.5,27.8
	c6,30.5,16.8,59.9,22.8,90.5c2.7,14.8-1.4,30.8-2.5,46.5c-3.8,0.3-7.7,0.5-11.8,1.1c-47.6-36.3-32.2-100.4-60.5-146.6
	c-7.1,1.9-14.6,3.8-23.4,6.3c8.5,33.8,16.8,65.7,26.4,103.9c-34.9-19.8-64.3-36.6-94.6-53.6c-5.5,9.1-9.3,15.9-14,23.6
	c31.3,18.4,61.3,36,96.5,56.6c-31.9,8.5-57.2,16.2-83,22c-22,4.7-24.7,14.3-12.9,29.7c53.3,0.8,99.8-42.9,162.2-16.8
	c-42.1,52.8-105.3,38.8-150.4,66c-1.4,17.3,3.8,25.3,23.4,19.8c24.7-7.1,50.3-12.4,75.3-18.4c1.6,1.4,3,2.7,4.7,4.4
	c-15.9,28.9-31.9,57.5-48.7,87.4c9.1,4.4,15.9,7.7,24.5,11.8c18.4-31.3,36-61,55.8-94.6c10.7,37.9,20.1,70.7,29.1,102.3
	c22-1.1,27.2-9.9,21.4-28.3c-9.1-28.6-17.3-57.7-23.1-87.2c-2.7-14.8,1.1-31.1,1.9-46.7c4.1-0.5,8.5-1.1,12.6-1.6
	c46.2,36.8,32.7,99.8,59.9,147.7c7.4-3,15.4-6.3,22.8-9.3c-8.5-33.5-16.5-64.3-25.8-101.5c35.2,19.8,64.3,36.3,93.8,52.5
	c15.4-23.1,15.4-23.1-5.2-35.2c-23.1-13.5-46.5-26.9-76.2-44c39.9-11.3,71.2-20.1,104.5-29.4c-3.6-10.2-6.3-17.3-8-22.5
	c-53.9-0.5-100.1,43.2-157,14.3c11-13.5,23.1-25.6,37.7-30.5c29.1-10.4,59.4-17.9,89.9-24.7c25.3-5.8,19.5-17,10.2-31.6
	C2615.7,1811.2,2586.5,1818.4,2557.4,1825.8z M1690.7,2696.1c28.3,12.6,56.6,25.3,86.9,38.8c3.8-9.1,7.1-16.8,9.6-22.3
	c-41.5-35.2-104.5-32.2-136.1-91.3c66.8-12.9,106.4,37.1,160.3,47c2.5-6.9,5.5-14.8,8.5-23.4c-31.9-15.4-61.3-29.4-95.1-45.6
	c37.4-14,69-25.8,103.4-38.8c-5.2-9.6-9.1-16.8-13.2-24.2c-34.6,12.1-66.3,23.4-102.8,36c16.2-35.2,30-64.9,44.5-97.1
	c-8.5-4.1-15.9-7.7-25-12.1c-17,36-31.6,70.4-49.2,103.1c-6.9,12.9-19.8,22.5-30,33.5c-3.3-1.9-6.9-4.1-10.2-6.3
	c-13.5-57.7,37.9-97.6,47-151c-6.6-3.3-13.5-6.9-22-11.3c-15.4,32.2-30,62.4-46.2,96.8c-13.7-36.3-25.8-68.7-38.8-102.8
	c-9.9,4.1-17,7.1-25,10.4c11.8,33.3,22.8,64.9,36.6,103.9c-36.8-16.8-66.5-30-95.7-42.9c-16.2,16.8-11.5,26.7,7.7,34.6
	c27.8,11.5,55.3,23.9,81.4,38.5c12.9,7.4,22.5,20.6,33.8,31.1c-2.5,3.6-4.9,6.9-7.1,10.4c-57.2,12.1-96-38.5-150.1-48.1
	c-2.7,6.3-6,14-9.6,22.5c31.9,15.4,61,29.4,95.1,45.6c-37.1,14-68.7,26.1-101.7,38.5c3.8,9.9,6.6,17,9.9,25
	c33.5-11.8,65.2-22.8,103.4-36.3c-16.2,36.3-29.4,66-44,98.2c10.2,3.3,17.9,6,26.1,9.1c17-36.6,31.6-71.2,49.2-103.9
	c6.6-12.1,20.6-20.1,31.3-29.7c3.8,2.7,7.7,5.5,11.5,8.2c6,55.8-39.9,95.4-51.4,148.5c6.9,2.7,14.8,5.5,23.4,8.8
	c15.4-32.2,29.7-61.9,45.9-95.4c13.5,36.3,25.3,67.9,36.8,99.3c26.9-5.2,27.2-5.5,20.6-25c-8.2-24.5-17-48.9-25.6-73.1
	C1687.1,2701,1688.7,2698.5,1690.7,2696.1z M1511.7,1637.4c1.9,0,3.8,0,5.5,0c-0.8-1.1-1.6-1.9-2.5-3c-1.1,1.4-2.2,2.7-3.3,4.1
	c-0.8-9.6,0.5-20.1-2.7-28.9c-16.2-39.6-33.5-78.9-50.6-118.2c1.1-2.5,1.9-4.9,3-7.4c29.7,14.3,59.1,28.9,91,44.3
	c-14.3-57.2-51.7-96.2-91.8-129.8c-32.4,19-61,35.7-94.6,55.5c20.1-40.7,35.7-73.1,51.7-105.6c-2.2-1.1-4.4-1.9-6.6-3
	c-15.1,8-30.2,15.7-48.7,25.3c15.4-32.2,28.3-59.1,44.3-92.7c-23.9,12.6-39.6,20.9-61.3,32.4c13.5-28.9,23.6-50.6,37.7-80.6
	c-23.9,12.1-38.5,19.5-60.2,30.5c6.9-17.3,10.2-28,15.1-37.7c14-26.1,5.8-43.2-20.6-53.1c-29.1-11-58.3-20.9-87.2-32.2
	c-22.5-8.8-45.9-17.3-66.5-29.7c-33.8-20.3-41.8-20.3-50,18.7c-15.7,75.6-72.6,100.1-136.9,116.3c-45.1,11.3-75.6-12.6-75.3-59.7
	c0.3-45.4-58.6-72.3-96.5-46.7c-38.8,26.1-48.9,23.6-69.8-17.9c-22.3-44-46.2-51.7-86.6-21.7c-36.6,26.9-70.9,57.5-104.8,87.7
	c-26.1,23.4-24.5,34.4,4.7,55.3c6.6,4.7,14,8.2,25,14.3c-22.5,16.2-36.6,26.1-49.8,35.5c0.8,4.1,1.1,6,1.6,7.7
	c35.2,88,50.6,91.8,118.5,25.6c19.8-19.2,39.3-20.1,65.2-15.4c49.5,9.3,99.8,17.6,150.1,19.8c45.4,1.9,91-6,136.7-6.9
	c78.1-1.4,127,49.2,125.4,128.4c-0.8,36.3-3.3,72.6-8.5,108.6c-8.5,58.6-21.4,113.8-72,156.2c-75.1,63.2-131.4,139.1-121.3,246.1
	c0.3,1.9-0.8,4.1-0.8,6c0.5,36.3-17,63.2-44.3,85c-6,4.9-12.1,10.2-18.1,15.4c1.4,3,2.5,6,3.8,8.8c28.9-9.6,57.5-19.2,86.9-29.1
	c-0.3,60.5-48.4,85-92.1,112.7c1.4,3.6,2.7,7.1,4.1,10.4c32.7-6.6,65.7-12.9,98.7-19.5c1.9,65.4-36.3,115.2-83.9,166.6
	c86.1-14.3,123.2-77,166.6-143.3c6.9,34.1,12.4,62.4,17.9,90.5c3.6,0.5,6.9,1.1,10.4,1.6c10.7-33,25.3-65.2,30.8-99
	c5.2-33.8,1.1-69,1.1-103.7c3.3-1.1,6.3-2.5,9.3-3.6c17.3,28.6,34.6,57.5,53.3,88.3c22-51.4,8.8-97.3-11-144.6
	c8.5,0.8,16.2-0.5,18.1,2.2c20.1,27.8,39.3,56.4,59.7,86.1c19.5-58.3,18.4-115.5,0-173.2c1.4-1.4,2.7-2.7,3.8-3.8
	c22.5,28.6,45.1,57.2,67.4,85.5c20.6-63.2,6.3-123.7-28-183.4c43.7-4.4,59.7,33.5,87.2,51.7c3-1.9,6.3-3.6,9.3-5.5
	c-20.3-45.9-40.7-91.8-61-137.5c52.5-9.3,87.2,20.9,122.1,58.6c3.8-47.3-15.7-81.9-38.5-115.2c1.6-1.9,3.3-4.1,4.9-6
	c20.6,13.5,41.2,26.9,63.8,41.5c1.4-56.9-23.6-99-59.9-137.2C1453.6,1566.8,1483.1,1601.1,1511.7,1637.4z M684.3,1816.4
	c-44.3,11.5-79.5,28.9-114.4,27.8c-44-1.4-78.1,12.4-114.4,32.7c-38.8,22-79.7,20.1-116.3-9.6c-36-29.1-45.6-67.4-38.5-111.6
	c7.7-47.3,30.2-85.5,67.4-115.5c21.7-17.6,43.4-35.5,63.5-55c13.2-12.6,15.4-33-3-38.5c-33.3-9.9-69.8-20.1-103.4-15.9
	c-47.8,5.8-106.7-11.3-132-50.3c-16.8-25.8-34.1-51.4-52.5-75.9c-34.6-45.9-36.6-68.7,7.7-106.4c65.4-55.8,132.5-110.3,203.8-158.4
	c53.3-36,96.5-79.5,128.7-132.8c22-36.8,47-75.1,24.7-124.8c-6.6-14.8,4.1-40.4,12.6-58.3c10.2-21.2,26.9-39.3,39.9-59.4
	c7.7-12.1,19-25,19.5-37.9c3.3-73.7,15.4-147.1-45.4-210.4c-38.5-40.1-57.7-94-61.9-152.9c-8.5-116.6,4.4-229.9,39.9-340.7
	c4.7-14.3,16.2-26.7,24.5-39.9c12.6,9.1,28.9,15.7,37.7,27.8c44.5,61,86.9,124,131.2,185.6c9.3,12.6,23.6,22.3,36.6,32.2
	c17.9,13.7,39,23.9,54.4,39.6c60.8,62.7,120.4,126.2,179,190.8c28.6,31.6,59.4,53.6,104.8,48.1c10.7-1.4,23.4,1.6,33.3,6.6
	c28.6,13.7,43.7,0.3,58-22.8c25.8-42.6,53.1-84.1,80.6-125.9c63-95.7,128.4-189.2,218.1-262.3c18.1-14.8,38.5-28.6,59.9-37.7
	c10.2-4.4,31.3-0.5,37.9,7.1c22.5,26.9,38.5,56.6,42.1,94.6c11.5,124.8,25.8,249.7,41.2,374.2c9.1,74.5,30.8,149-10.2,221.1
	c-1.4,2.5-1.1,6-1.6,9.1c-10.7,58,3,109.4,34.6,159.5c36.8,58.6,82.5,116.9,99,181.8c31.9,124,45.1,252.7,67.9,379.2
	c3.8,20.9,12.9,49.2,28.9,58c89.1,49.8,149.6,126.8,209,206.2c16.8,22.3,35.2,44,55.5,63c24.7,23.4,42.3,21.2,57.7-3.3
	c227.4-359.9,282.4-746,147.7-1149.9c-210.6-632.2-837-1002-1493.4-888.4C170.3-107-334.8,522.4-242.7,1251.6
	c53.3,421.8,269.7,745.5,629.7,970.9c70.4,44,147.7,77,231.5,119.9c23.1-133.4,46.7-255.4,64.6-378.4
	C690,1917.3,684.3,1868.4,684.3,1816.4z M632.8,627.7c47.8-6.6,66.3-20.1,78.4-62.7c5.2-18.7,5.2-39,9.6-58
	c8-33.8,14.8-68.5,27.8-100.6c16.2-40.4,15.9-51.1-15.9-81.7c-45.6-44-92.4-86.9-108.1-152.3c-3-12.6-9.9-28.6-19.8-34.1
	c-14.3-7.4-36-12.9-48.9-7.1c-11.3,4.9-18.7,26.7-21.2,42.1c-22.8,146.6,3.8,287.1,57.7,422.9C597.9,609.8,619.1,617.3,632.8,627.7z
	 M913.6,2627.9c25.6,23.9,50,46.7,78.6,73.1c-39.6,0-73.4,0-109.7,0c1.4,10.7,2.2,19.2,3.6,30.8c35.7,0,68.7,0,111.1,0
	c-30.5,28-54.2,49.5-79.5,72.9c8.8,8,14.8,13.7,19.5,18.1c46.2-27.5,65.4-86.1,129.5-96.5c-6.6,68.2-70.9,86.1-96.2,134.7
	c5.5,4.7,12.1,10.4,26.1,22.5c22.5-25.8,43.7-50.3,68.7-78.9c0,39,0,71.8,0,107.5c10.7-0.8,19.2-1.6,30.8-2.5c0-36.3,0-69.6,0-102.8
	c2.5-1.4,4.9-2.5,7.4-3.8c21.7,24.7,43.7,49.8,66.8,76.4c8.8-11,14-17.6,18.1-22.8c-27.5-28-53.6-53.3-77.5-80.8
	c-9.9-11.3-13.7-27.5-20.6-41.5c3.3-2.2,6.6-4.4,10.2-6.6c59.1,7.1,77.5,69,125.1,95.7c4.4-5.2,9.9-11.5,22.8-26.9
	c-26.1-20.9-50.9-40.7-75.3-60.2c29.4-6.6,55-7.4,80.6-6c22,1.1,27.8-7.4,20.1-30.2c-34.1,0-68.7,0-103.4,0
	c-1.6-2.7-3.3-5.5-5.2-8.2c25.3-22.3,50.6-44.3,77-67.6c-9.9-8.5-15.7-13.5-19.8-17c-47.6,26.4-65.4,88-132.5,96.5
	c9.9-67.1,71.5-86.9,98.4-134.2c-5.8-4.9-12.4-10.4-23.9-20.3c-23.4,24.7-44.8,47.6-70.7,75.1c0-37.9,0-71.5,0-106.7
	c-11.5,0.5-19.2,1.1-30.8,1.6c0,36,0,70.1,0,104.2c-3.6,2.2-7.1,4.4-10.7,6.6c-21.4-24.7-43.2-49.8-65.4-75.3
	c-6.9,7.4-12.1,13.2-19.5,21.7c20.9,19.8,41.8,37.4,59.9,57.2c16.8,18.4,47.6,30.8,33.5,70.9c-59.4-10.2-79.7-71.2-126.5-97.9
	C929.5,2611.1,924.3,2616.6,913.6,2627.9z M-309.5,1908.5c55.5-26.4,102.6,15.1,156.5,15.7c1.9-6.6,4.4-14.6,7.1-23.6
	c-34.4-9.3-66-18.1-103.1-28.6c34.1-20.3,63.2-37.4,93.8-55.5c-4.7-8.2-8.5-15.1-13.5-23.9c-31.6,17.9-61.9,34.9-96.5,54.4
	c9.3-37.1,17.9-69.8,26.7-104.8c-10.4-1.6-18.7-2.7-27.5-4.1c-10.4,38.8-18.7,75.3-30.2,110.8c-4.4,12.9-16.8,23.4-25.6,34.9
	c-3.6-1.9-6.9-3.8-10.4-5.8c-20.9-54.4,21.7-101.2,22-155.1c-7.1-1.6-15.4-3.8-24.2-6c-9.6,34.4-18.4,65.7-28.9,103.1
	c-16.8-28.9-31.1-51.7-43.2-75.3c-9.9-19.2-19.5-21.4-34.6-2.7c17,30,34.1,59.7,53.9,94.6c-38.5-9.9-71.2-18.4-103.4-26.7
	c-9.1,17.9-8.5,28,12.9,32.2c30.5,6,60.5,14.3,89.9,24.5c13.5,4.7,24.7,16.2,36.8,24.5c-1.6,4.1-3.6,8.2-5.2,12.4
	c-54.4,21.4-102.3-22-155.9-21.7c-1.9,7.4-4.1,14.8-6.3,23.4c33.5,9.3,65.2,18.4,102.6,29.1c-35.5,20.6-64.3,37.7-95.1,55.5
	c6.6,9.3,11.3,15.7,16.2,22.8c31.6-17.9,61-34.6,95.1-54.2c-9.3,36.8-17.9,69.6-26.7,104.5c9.9,1.9,18.1,3.3,27.5,4.9
	c10.2-38.8,18.4-75.1,30-110.5c4.4-13.2,16.8-23.9,25.3-35.7c3.6,1.9,7.1,3.8,10.7,5.5c22,54.4-21.4,100.9-21.2,155.1
	c6.3,1.6,14.6,3.8,23.6,6.3c9.3-33.8,18.1-65.4,28.6-102.8c20.1,34.4,37.1,63.2,55,94c8.5-4.7,15.4-8.5,24.2-13.2
	c-17.9-31.9-35.2-62.4-55-97.3c36.8,9.3,69.6,17.9,104.8,26.9c1.9-9.6,3.3-17.6,4.4-22.8C-214.1,1944.8-274.8,1958.9-309.5,1908.5z
	 M468.4,2806.9c12.6-33.8,24.7-66.3,38.8-103.9c13.7,28.9,26.1,52.2,36,77c8.2,20.6,18.1,22.5,34.6,6.6
	c-16.2-34.4-33.5-68.5-47.8-103.7c-5.2-12.9-2.5-28.9-3.6-43.4c3.8-1.1,8-1.9,11.8-3c52.2,27.5,48.4,93.2,84.7,133.6
	c6.3-3.6,13.2-7.4,20.9-11.8c-14.6-31.6-28-61.6-44.3-96.8c32.4,11.5,58,19.5,82.8,30c22.3,9.3,27.2,0.5,27.2-19.8
	c-32.7-12.4-63.8-23.9-101.5-38.2c30.2-14.3,53.6-26.7,78.4-36.8c22.5-9.3,17.9-19.8,6.9-31.1c-52.8,9.9-91.3,58.6-155.9,45.6
	c31.1-60.8,96.5-56.9,136.9-92.9c-3.3-6.6-6.6-13.7-10.7-21.4c-30.8,13.7-60.2,26.9-96.2,43.2c13.2-38.5,24.2-70.1,35.7-103.4
	c-10.2-2.7-17.6-4.9-25.8-7.1c-12.9,33.8-25,65.7-39.3,103.4c-13.7-29.4-24.2-53.1-35.5-76.2c-11-23.1-11.5-23.1-31.6-6.9
	c7.7,51.4,60.5,88.8,43.7,154.5c-58.3-33.8-56.9-97.6-91-138c-22,11-22.3,11-14,30c10.7,23.9,21.7,47.8,35.7,77.8
	c-38.5-13.5-70.1-24.7-103.1-36.3c-3.3,9.9-5.8,17-8.8,25.6c34.6,13.2,67.1,25.6,103.4,39.3c-34.9,16.8-65.4,31.1-95.4,45.4
	c3.8,20.6,11.5,26.9,30.2,17.3c27.5-14.3,55.5-27.8,84.7-38.8c13.5-5.2,29.4-4.4,44-6.3c1.6,4.7,3.6,9.3,5.2,14
	c-29.7,48.4-92.1,48.9-134.7,83c3.6,6.6,7.4,14,11.3,21.4c31.9-14,61.3-26.9,96.5-42.6c-13.5,38.5-24.5,69.3-36,102.3
	C451.9,2801.4,459.6,2803.9,468.4,2806.9z M2119.3,2312.5c-3.8-19.5-9.6-35.5-9.3-51.1c0.5-30,5.8-59.9,6.9-89.9
	c0.3-7.4-8-15.1-12.1-22.5c-5.2,6.9-14,13.5-15.1,21.2c-4.1,26.1-5.5,52.5-8.5,85.2c-26.7-31.1-48.4-56.6-71.5-83.6
	c-7.4,6.6-13.2,11.8-20.6,18.4c23.4,28,45.4,55,70.7,85.5c-32.7-2.5-59.7-3-85.8-6.9c-21.7-3.3-26.1,5.2-22.5,21.7
	c48.9,22.3,110-7.4,157.8,41c-56.4,37.1-111.6-1.1-163.1,11c-2.2,24.2-2.2,24.5,18.7,26.7c25.8,2.7,52,4.7,84.7,7.4
	c-31.3,26.9-56.4,48.4-83,71.2c6.6,7.4,12.4,13.7,18.4,20.6c28-23.1,54.2-44.5,85.5-70.4c-3,33.3-4.7,59.9-8,86.1
	c-3,23.6,7.7,26.1,24.5,21.4c16.5-50.6-5.8-108.3,37.7-157.6c37.4,57.5,0.5,112.7,12.9,165c7.4,0,15.1,0,23.4,0
	c3.3-33.5,6.6-66,10.7-104.5c26.1,30.8,48.1,56.4,70.9,83.3c8-7.1,14-12.4,20.6-18.1c-22.5-27.5-44.3-54.2-70.4-86.1
	c40.1,3.3,72,6,106.1,8.8c0-10.2,0-18.4,0-28c-38.2-3.3-74.5-5.2-110.3-10.4c-14.6-2.2-28-12.1-42.1-18.4c0.8-4.7,1.6-9.3,2.5-14
	c14.8-3.6,30-10.2,44.8-9.9c31.1,0.5,62.1,3.3,92.9,7.7c22.8,3.3,24.2-7.4,20.9-25.6c-33.5-3.3-66.3-6.9-104.5-10.7
	c30.8-26.1,56.4-48.1,84.1-72c-6.9-9.1-12.1-15.9-16.2-22c-32.2,26.1-58.3,47-88.5,71.5c3-39,5.2-70.9,8-105c-9.9,0-18.1,0-27.2,0
	c-2.5,27.2-4.4,53.1-7.7,78.6C2152.1,2263,2161.7,2293.5,2119.3,2312.5z M21.9,2513.8c11.5-52.8-24.2-106.1,14.8-156.5
	c11.5,13.7,20.6,28,22.8,43.4c4.7,29.7,6,59.9,8,89.9c1.4,21.2,9.1,28.9,30,15.9c-2.5-32.2-4.9-64.3-8-103.4
	c31.6,26.1,56.9,47,83.9,69.3c6.6-7.4,12.1-13.7,18.1-20.9c-27.8-24.2-53.9-46.5-83.9-72.3c39.6-3.8,72-7.1,104.2-10.4
	c3.6-20.1-0.5-28.9-22.5-25.6c-29.7,4.4-59.9,7.4-89.9,7.4c-15.4,0-30.8-6.6-46.2-10.4c-0.3-4.7-0.8-9.6-1.1-14.6
	c14.6-6,28.9-15.4,44.3-17.9c30.8-4.9,62.1-5.2,92.7-9.6c7.1-1.1,12.9-11,19.2-16.8c-7.1-3.6-14.3-10.7-21.4-10.4
	c-26.9,0.8-54.2,4.1-87.7,7.1c26.4-32.2,47.8-58,69.8-84.7c-8-6.9-13.7-12.1-20.6-18.1c-24.5,28.3-47,54.4-72.9,84.7
	c-4.1-39.6-7.4-72.9-10.7-106.4c-25.8,3.6-26.1,3.6-24.7,24.7c2.2,31.1,6.6,62.1,6.6,93.2c0,14-7.1,28.3-11.3,42.6
	c-4.7,0.3-9.6,0.3-14.3,0.5c-6-14.8-14.8-29.4-17.3-44.8c-4.7-29.7-6.3-59.9-8-89.9c-1.4-21.7-10.2-26.7-30.2-16.8
	c2.7,33.3,5.2,65.7,8.2,104.8c-31.6-26.1-57.5-47.6-84.1-69.8c-6.9,8-12.1,13.7-18.1,20.6c27.5,24.2,53.3,46.5,83.9,73.1
	c-39.6,4.1-72,7.4-104.8,10.4c-1.6,3.3-3,6.6-4.7,9.9c8.5,5.2,17,14.6,25.3,14.6c32.2-0.5,64.1-5.8,96.2-6.3
	c14-0.3,28.3,6.9,42.6,10.7c0.3,4.7,0.5,9.6,0.5,14.3c-14.8,6-29.1,15.4-44.5,17.9c-29.7,4.7-59.9,6-89.9,7.7
	c-22,1.1-27.2,9.9-17,30c32.7-2.5,65.2-4.7,104.2-7.4c-25.6,30.8-47.3,56.9-69.3,83.6c7.7,7.1,13.2,12.4,20.1,18.7
	c24.5-28,47.6-54.4,73.4-84.1c3.8,39.6,7.1,72.3,10.4,107C9.2,2516.2,16.9,2514.6,21.9,2513.8z M1370.6,758.9c0,12.4,0,18.4,0,24.7
	c1.4,53.1,15.4,63.5,67.9,52.5c47.3-9.6,81.1-40.4,113.3-72.9c11.3-11.3,16.2-28.9,24.2-43.7c-12.9-6.9-25.6-19-39-19.8
	c-44-2.7-78.9-19.8-114.4-46.2c-27.2-20.1-30.8-34.6-18.4-61.9c9.1-19.5,3.8-32.7-17.6-45.1c-15.7-9.1-28.9-28.9-34.6-46.7
	c-6-19.8-12.6-39.3-33.3-38.2c-15.7,0.8-35.7,12.1-45.1,25c-28,38.5-21.4,97.9,9.3,135.6c8.2,10.2,15.1,22.3,20.1,34.6
	c20.9,51.7,21.7,52.8,76.7,52.5c11.3,0,22.8-1.6,34.1-1.6c33.5,0,54.7,18.1,72.6,51.4C1445.4,758.9,1409.1,758.9,1370.6,758.9z
	 M1556.5-345.4c19.5-78.1,39.6-157.8,60.2-239.2c-19.5-4.9-35.2-9.1-53.1-13.7c-12.4,46.2-24.2,90.7-38.2,143.3
	c-20.9-48.7-40.1-87.7-54.4-128.7c-11.8-33.8-30-54.4-70.4-52.5c-19.5,78.4-39.6,157.8-59.9,239c20.1,5.2,35.7,9.1,53.3,13.5
	c12.6-48.4,25-94.6,39-148.2c22.3,51.7,43.4,94.6,59.1,139.1C1503.1-361.9,1519.6-343.8,1556.5-345.4z M922.9-659.4
	c0,83.9,0,163.9,0,244.5c21.7,0,37.9,0,56.1,0c0-49.2,0-97.1,0-149.6c34.6,42.9,67.6,80,96.2,120.4c18.7,26.7,40.1,30.8,65.2,25.3
	c0-83.9,0-165,0-248.9c-21.7,1.1-38.8,1.9-54.7,2.5c0,48.7,0,93.8,0,146c-33-41-64.9-76.2-91.6-114.7
	C974.1-663.6,951.3-669,922.9-659.4z M-669.2,1237.1c48.4-5.2,94-10.2,133.6-14.6c-29.7,32.2-58.6,69-92.9,99.8
	c-27.8,24.7-32.7,48.7-17.9,80.3c81.9-9.9,162.5-19.5,244.2-29.4c-3-20.6-5.2-36.6-8-54.4c-49.5,5.5-97.3,11-136.7,15.4
	c29.4-32.4,60.5-71.5,96.2-105.3c23.6-22.3,31.3-43.7,19.2-75.3c-80.8,9.3-161.7,19-245.6,28.9
	C-674.1,1200.8-671.9,1217-669.2,1237.1z M2580.2,1174.4c-2.7,20.1-4.9,37.1-7.4,55.3c26.9,4.1,51.1,7.7,74.2,11
	c9.9,34.1-8.8,48.1-34.1,56.9c-41.5,14.6-66.3,39.3-55.3,89.4c29.7-14.8,59.4-30,90.7-45.6c15.1,44.5,46.2,62.7,89.1,61.3
	c33.8-1.1,61.9-21.7,69.6-56.6c10.2-45.9,14.6-92.9,21.7-140.8C2743.8,1194.7,2663.8,1184.8,2580.2,1174.4z M-543.8,1087.2
	c73.4-0.3,126.8-55.5,127.3-132c0.5-75.3-55.8-132.5-130.9-132.3c-72.6,0.3-126.8,56.9-127,132.8
	C-674.9,1032.5-620.2,1087.5-543.8,1087.2z M187.4-128.2c18.1-12.1,32.2-21.4,46.7-31.3c-14.3-23.6-27.2-44.5-39-63.8
	c26.1-36.6,52.5-15.4,77.8-4.4c47.6,20.6,55.3,19.5,91.8-19.5c-15.4-6.6-30.5-13.5-45.6-20.1c-15.1-6.6-30.2-13.2-45.4-19.8
	c21.2-49.2,15.9-85.5-16.2-114.1c-28.9-25.8-67.6-25-111.9,2.7c-30.5,19.2-60.8,38.8-92.4,59.1C98.3-268.1,142-199.1,187.4-128.2z
	 M637.8,1630c-53.1,3.3-99.5,10.7-135.8,49.5c-31.1,33.3-64.6,62.1-116.3,42.9c-11.3-4.1-24.7-4.1-36.8-3c-8.2,0.8-19,4.4-23.4,10.7
	c-17.9,25-10.7,82.2,12.1,111.6c25.3,32.4,58.3,43.7,96.2,29.7c38.8-14.3,69.6-39.3,90.5-76.2c30.8-54.4,54.7-114.4,109.4-151.8
	C635.6,1642.1,635.6,1638,637.8,1630z M644.1-356.1c42.9-10.7,84.4-17.3,122.6-31.9c61.6-23.4,89.6-83.3,73.4-146.6
	c-15.4-60.2-69.8-98.4-133.9-90.5c-38.8,4.9-76.7,15.1-116.6,23.4C607.8-519.7,625.4-441.1,644.1-356.1z M-439,603
	c-19-52.8-46.7-74.2-91.3-73.1c-38.8,1.1-63.5,24.5-78.1,75.6c-9.9,34.6-19.5,69-30,106.7c81.1,22.5,160,44.3,240.9,66.5
	c5.5-19.5,9.9-35.7,14.8-53.6c-26.1-8-50.6-15.4-74.5-22.5c8.5-38.5,8.5-38.5,60.5-55.8c45.1-15.1,50.6-23.1,50.9-74.2
	C-376.6,582.9-406.8,592.5-439,603z M2761.4,588.9c-83.6,19-163.1,37.1-244.2,55.8c8.2,35.7,15.1,69,24.2,101.7
	c19.8,71.8,79.2,109.7,148.2,95.7c64.9-13.2,104.5-70.4,95.1-142.4C2780.1,663.7,2770.2,628.8,2761.4,588.9z M1821.8-327.3
	c-17,11-28.9,25.6-40.7,25.3c-37.7-0.5-69-30-74-63.5c-4.9-33.3,17.6-72.9,48.9-86.1c32.2-13.5,68.5-1.4,92.4,31.6
	c4.1,5.8,8,11.5,12.9,19c16.5-8,31.9-15.4,48.9-23.6c-28.6-55.3-72-83.3-130.3-85.5c-53.9-1.9-92.9,24.5-117.1,72
	c-23.9,47-17,102.8,15.4,139.4c34.9,39.6,107.2,62.1,150.1,46.2c5.5-1.9,11.8-5.8,14.3-10.4c14.6-29.1,28-59.1,42.6-90.5
	c-34.1-16.2-65.7-30.8-99-46.7c-7.4,16.2-13.5,29.7-19.8,43.7C1783.9-347.1,1798.2-339.4,1821.8-327.3z M2344.5-125.4
	c-23.1,26.7-43.4,50.3-61.3,71.2c-25.8-26.1-47.8-48.7-74.2-75.6c20.3-19.2,42.6-40.1,62.1-58.8c-12.6-13.7-24.2-26.4-31.1-33.8
	c-59.7,56.4-118.8,112.7-173.2,164.4c11.5,15.4,22,29.4,37.9,50.3c23.6-27.2,44.5-50.9,66.3-75.9c23.9,24.5,45.6,46.7,72.3,74
	c-24.2,21.4-47.8,42.3-67.6,59.9c14,14.8,25.6,27.2,33.3,35.5c58-55,117.1-111.4,175.7-166.9C2372-94.9,2361-107.3,2344.5-125.4z
	 M-169.5-85.3c34.6-28.6,67.4-55.5,99.5-81.9c-14.8-16.8-25-28.3-29.1-33c-47.8,44-93.2,86.1-129.5,119.3
	c56.1,61,111.1,121.3,158.9,173.5C-21.3,49.2,24.9,8.2,69.4-31.7C56-45.7,45.5-56.4,30.9-71.8C1.2-39.6-28.2-8-58.4,25
	C-71.4,12.3-81.5,2.4-93.1-8.8c27.5-28.9,53.6-56.4,74.5-78.1c-10.7-16.2-19.2-28.9-30-45.1c-30,31.9-55.5,58.8-80.8,85.8
	C-140.7-57.5-150.3-66.6-169.5-85.3z M428.8-379.8c37.1-15.9,71.8-30.8,107.2-45.9c-7.7-16.8-13.7-30.5-20.3-45.1
	c-37.1,15.1-71.2,28.9-107,43.4c-6.6-15.9-12.1-28.9-17.9-43.2c40.7-17.3,80.3-34.4,121.3-52c-7.4-17-13.2-30.8-19.5-45.9
	c-59.1,24.7-115.2,48.4-173.5,72.6c32.7,78.1,64.3,153.7,96.5,229.9c60.5-25.6,117.4-49.2,175.2-73.7c-7.1-17-13.2-31.1-19.5-45.9
	c-42.1,17.3-81.9,33.8-123.2,50.9C441.5-349.5,436-362.7,428.8-379.8z M2821.9,912.6c-85.5,4.1-166.9,8-249.4,11.8
	c3,65.4,6,127,9.1,189.7c17.9-1.1,32.2-2.2,46.7-3c0-44.3,0-87.4,0-132.3c15.1-1.1,29.1-2.2,46.7-3.6c2.2,40.1,4.1,77.8,6.3,115.2
	c48.9,1.9,48.7,1.9,47.8-41.8c-0.5-24.5,0-48.9,0-74.8c14.8,0,28.9,0,44.8,0c2.2,43.7,4.7,85.5,6.9,130.1c17.3-1.1,32.4-1.9,49.5-3
	C2827.7,1036.9,2824.9,976.1,2821.9,912.6z M-296-4.2c-37.4,29.7-42.3,63.8-28.9,104.5c8.8,26.1,12.6,53.9,20.1,87.7
	c-32.7-22-59.7-40.1-87.7-59.1c-11.3,16.8-20.9,31.1-31.6,46.7c69.8,48.1,137.2,94.6,206,141.9c11.5-16.5,21.4-30.5,31.1-44.3
	c-23.9-28.9-74-33.3-66.5-86.1c28.3,0,57.2,0.8,86.1-0.3c45.9-1.6,57.2-11,71.8-52.5c-49.2,0-100.1-0.5-150.7,0.3
	c-15.1,0.3-21.7-3.6-24.5-19.8C-278.1,75.3-287.5,36-296-4.2z M2551.1,136.6c-41.5,28.6-80.6,56.1-120.2,82.5
	c-32.7,21.4-58.8,15.9-77-14c-17-28-11.3-50.6,20.9-74c38.2-27.5,77.5-53.9,116.9-81.4c-12.4-17.3-22.3-31.3-33.5-46.7
	c-47.3,33.8-93.8,63.2-135.8,98.2c-42.3,35.2-44.8,81.9-13.7,131.4c31.6,50,79.7,71.8,126.8,47.3c51.7-26.9,98.7-62.7,149-95.1
	C2571.7,166.3,2562.3,152.8,2551.1,136.6z M2141.9-270.6c-14-45.9-42.1-77.3-84.7-94c-33-12.9-66.8-2.5-86.3,23.6
	c-20.9,27.5-20.9,54.2,1.1,85.8c10.7,15.4,24.7,28.3,33.5,44.5c5.8,10.7,4.7,25.3,6.6,38.2c-14-2.2-32.2,0-41-8
	c-18.1-17-31.1-39.6-47.3-61.6c-12.4,3.6-26.9,7.7-41.5,11.8c11.3,52.5,47,94.9,91.8,110.5c34.1,11.8,65.4,3.6,86.6-23.1
	c20.9-26.4,21.4-54.2,0.5-85.8c-11.3-17.3-26.7-32.2-36.8-49.8c-5.2-8.8-3-21.7-4.4-32.7c12.1,1.1,28.3-2.5,35.5,4.1
	c16.2,14.8,28,34.4,42.9,53.3C2111.6-259.1,2125.9-264.6,2141.9-270.6z M-423.9,319.8c-7.4-12.4-15.1-25.6-23.6-40.1
	c-42.3,20.9-67.6,53.6-77.5,97.1c-8.5,36.3,7.4,68.2,38.2,83.9c31.6,16.2,57.7,11,86.6-18.1c13.7-14,25.3-30.8,40.1-43.2
	c7.7-6.3,21.2-6,32.2-8.5c1.4,11.3,7.7,26.1,2.7,33.5c-15.1,22.5-34.4,42.3-55.5,67.4c4.1,8.2,11.3,22.8,18.1,37.1
	c50.9-21.2,87.4-66.8,92.7-113.8c3.8-36.6-8.5-61.9-38.8-77.8c-30.5-16.2-56.4-12.1-84.4,14.8c-14.3,13.5-25.3,30.8-40.1,43.2
	c-8.5,7.1-22.3,8-33.8,11.8c-0.5-12.9-6-29.1-0.5-38.5C-457.4,350.8-440.6,337.3-423.9,319.8z M1432.7,364.3
	c63,10.7,85.8,27.5,91,68.2c5.2,42.1,9.3,84.7,7.7,127c-0.5,19.5-14.3,39-24.7,57.5c-7.1,12.4-18.4,22.5-29.1,35.5
	c47,13.5,79.7-6.6,84.4-47.3c9.1-82.5,19-165,6.6-247.8c-4.9-32.7-6.3-67.4-19.2-96.8c-8-18.1-33-31.1-52.8-41
	c-6.3-3.3-24.7,8.2-31.6,17.3c-15.1,20.9-6.6,39.9,9.3,58.6c4.4,5.2,0.3,21.7-4.9,29.7C1460.8,338.2,1447.9,348.3,1432.7,364.3z
	 M1011.2,963.7c1.6-2.2,3.3-4.7,4.9-6.9c-4.9-5.8-10.2-11.5-15.1-17.3c-28-33.8-56.4-67.4-84.4-101.5
	c-12.9-15.9-23.4-34.4-37.9-48.9c-31.3-30.8-68.5-28.9-97.6,3.8c-31.3,35.2-55.3,75.1-63.2,122.4c-2.5,15.1-1.9,30.8-0.5,46.2
	c0.5,5.8,8,15.4,12.6,15.4c6.9,0.3,16.8-4.7,20.1-10.4c8-13.2,12.6-28,19-42.3c33.8-75.1,87.7-83,139.7-20.3
	C936.1,937.1,971.9,953.6,1011.2,963.7z M802.2,2010.3c11-88,34.9-173.5,19.8-266.4c-34.1,17-63,30.5-90.5,46.2
	c-7.7,4.4-16.2,14.8-16.5,22.8C711.5,1892.6,754.7,1952.3,802.2,2010.3z M1299.7-651.5c-18.4-1.9-35.5-3.8-55.3-5.8
	c-9.3,82.8-18.4,163.6-27.8,246.7c19.5,2.5,36.6,4.7,55.8,7.1c8.8-77.5,17-152.3,25.6-227.4C1298.6-636.6,1299.1-642.7,1299.7-651.5
	z M659,799.6c-1.1-11.3,0.3-23.6-3.6-33.5c-2.7-7.1-12.6-16.2-19.8-16.5c-43.4-2.5-86.9,39.3-87.4,81.9c0,4.7,1.4,12.1,4.7,13.7
	c21.2,11.3,24.2,30.2,27.2,51.7c1.6,12.4,16.2,33,29.4,13.5C632.3,876.8,662.5,845.2,659,799.6z M896.5,1479
	c-38.8-5.5-125.4,47.3-136.9,82.8c-6.6,20.6,6.6,23.1,22,22C818.5,1581.1,885.8,1520.3,896.5,1479z M1029.9,1023.1
	c0-21.4-25-35.2-41.5-21.7c-26.1,21.4-48.9,47-71.8,72c-4.1,4.4-4.4,17.6-0.8,22c3.6,4.4,16.8,6.6,21.7,3.3
	c28.9-19.5,56.9-40.4,84.7-61.6C1026.3,1033.9,1028,1026.7,1029.9,1023.1z M963.4,996.7c-64.6,0-128.1,0-191.7,0
	C802.8,1044,931.7,1044,963.4,996.7z M941.9,1518.1c-41.5,0.5-86.3,44.3-87.2,81.9C896.5,1586.3,922.9,1559.6,941.9,1518.1z
	 M871,898c-4.9,0-9.9,0.3-14.8,0.3c-7.4,12.4-21.7,25-20.6,36.6c0.8,10.7,17,25.8,28.6,28c18.1,3.6,33.3-10.7,30.5-29.4
	C892.7,920.8,879.2,909.8,871,898z M3825.3,2002.3c0-612.6,0-1221.7,0-1832.4c-352.2,0-702.3,0-1052.3,0
	c44.8,104.8,97.1,207.1,133.1,314.8c79.5,235.9,113.3,479.6,90.7,728.7c-9.1,99.8-22,199.6-42.1,297.8
	c-34.9,172.7-100.4,335.2-181.8,491.4C3123.8,2002.3,3474.7,2002.3,3825.3,2002.3z M1361.5,1449.6l-1.1,1.1l1.6,0.3L1361.5,1449.6z
	 M1344.5,1307.7c-0.5-0.5-1.1-1.6-1.6-1.9c-0.5,0-1.4,0.8-1.9,1.4c0.5,0.5,1.1,1.6,1.6,1.6C1343.1,1309.1,1343.6,1308,1344.5,1307.7
	z M597.9,315.6c11,16.2,22,29.1,29.4,43.7c6.3,12.6,16.5,32.4,11.5,40.4c-14,22.3-28.3,40.1-32.7,70.1c-6,39.3-11,49.5,28,69.8
	c14.8,7.7,34.1,6,51.7,8.8c-1.9-14.6-2.2-29.4-6.6-43.2c-8.2-26.7-14-49.5,13.5-71.8c11.5-9.3,18.1-33.5,16.2-49.5
	C704.1,347.5,643.3,309.6,597.9,315.6z M2701.5,1247c-2.7,21.4-6.6,39.6-7.1,58c-0.5,18.4,5.2,35.2,27.5,38.8
	c22.8,3.6,35.7-8,39.6-29.4c3.6-19,4.9-38.2,7.7-59.4C2745.2,1252.2,2724,1249.7,2701.5,1247z M-543.8,1029.7
	c42.3-0.8,75.3-34.1,75.1-75.1c-0.3-40.4-34.9-73.1-77-73.1c-44,0-77.5,33.8-76.4,76.7C-621,998.9-586.4,1030.6-543.8,1029.7z
	 M128.5-326.2c12.9,19.8,24.7,38.2,37.7,57.5c17.6-11.3,33-19.5,47-30c15.7-11.8,27.5-26.4,14.8-47c-12.6-20.9-30.8-22-50.3-10.7
	C161.3-347.1,145.9-336.9,128.5-326.2z M656.5-562.6c10.7,48.1,20.9,94,31.6,141.6c39.3-5.8,76.7-9.9,93.2-49.5
	c11.5-27.8,5.8-55.8-13.5-78.9C737.1-586.3,698.8-573.4,656.5-562.6z M-507.5,689.9c6.3-22.3,12.6-40.7,16.5-59.7
	c4.1-20.1-4.7-37.9-24.2-39.6c-12.6-1.1-32.4,8.2-39,19c-10.7,17.3-13.2,39.9-19.5,61.9C-550.4,677.8-530.8,683.3-507.5,689.9z
	 M2722.1,655.8c-48.4,11.3-94.9,22-141.3,33c7.7,42.1,13.2,82.8,59.9,95.4c30.2,8.2,58-1.1,78.4-24.7
	C2746.8,726.7,2733.4,692.1,2722.1,655.8z M1511.4,1637.4c1.9-0.3,3.8-0.3,5.5-0.3c-0.8-1.1-1.6-1.9-2.5-3c-1.1,1.4-2.2,2.7-3.3,4.1
	C1511.4,1638.2,1511.4,1637.7,1511.4,1637.4z M1233.9,1913.8c-1.9-0.8-3.8-1.9-5.8-2.7c0.5,2.2,1.4,4.4,1.9,6.6
	C1231.5,1916.2,1232.8,1915.1,1233.9,1913.8z M1360.4,1451l1.6,0.3l-0.5-1.6L1360.4,1451z M1342.8,1306.1c-0.5,0-1.4,0.8-1.9,1.4
	c0.5,0.5,0.8,1.6,1.6,1.6c0.5,0,1.4-0.8,1.9-1.4C1343.9,1307.2,1343.4,1306.1,1342.8,1306.1z M1397.8,1661.6c-3-0.5-6-1.4-9.1-1.9
	c1.4,2.7,2.7,5.5,4.1,8.2C1394.5,1665.7,1396.2,1663.8,1397.8,1661.6z M627.3,359.3c6.3,12.6,16.5,32.4,11.5,40.4
	c-14,22.3-28.3,40.1-32.7,70.1c-6,39.3-11,49.5,28,69.8c14.6,7.7,34.1,6,51.7,8.8c-1.9-14.6-2.2-29.4-6.6-43.2
	c-8.2-26.7-14-49.5,13.5-71.8c11.5-9.3,18.1-33.3,16.2-49.5c-4.7-36.8-65.4-74.8-110.8-68.7C608.9,331.6,619.9,344.8,627.3,359.3z
	 M1690.7,2696.1c-2.5,0-4.9,0-7.4,0c0.5,2.5,1.4,4.9,1.9,7.4C1687.1,2701,1688.7,2698.5,1690.7,2696.1z M2427,1974.5
	c0-2.5,0-4.9,0-7.4c-1.4,1.1-3,2.2-4.4,3.3C2423.7,1971.8,2425.4,1973.2,2427,1974.5z M2551.9,1819.5c-0.8,2.2-1.4,4.7-2.2,7.1
	c2.7-0.3,5.2-0.5,8-0.5C2555.7,1823.6,2553.8,1821.4,2551.9,1819.5z M2573.1,481.2c-1.4,1.1-2.7,2.2-4.1,3.3c2.5,0,5.2,0,7.7,0
	C2575.3,483.4,2574.2,482,2573.1,481.2z M2560.7,375c1.6,0,3.3,0,4.7,0c-0.3-1.1-0.3-1.9-0.5-3
	C2563.4,373.1,2562.1,374.2,2560.7,375C2560.7,375.3,2560.4,375,2560.7,375z M2694.6,1305c-0.5,18.4,5.2,35.5,27.5,38.8
	c22.8,3.6,35.7-8,39.6-29.4c3.6-19,4.9-38.2,7.7-59.4c-24.2-2.7-45.1-5.5-67.6-8C2698.7,1268.4,2694.9,1286.6,2694.6,1305z
	 M-468.7,954.7c-0.3-40.4-34.9-73.1-77-73.1c-44,0-77.5,33.8-76.4,76.7c1.4,40.7,36,72.3,78.4,71.8
	C-501.7,1029.2-468.4,995.9-468.7,954.7z M165.9-268.7c17.6-11.3,33-19.5,47-30c15.7-11.8,27.5-26.4,14.8-47
	c-12.6-20.9-30.8-22-50.3-10.7c-15.9,9.3-31.3,19.5-48.7,30.2C141.5-306.4,153.6-287.9,165.9-268.7z M688.1-421
	c39.3-5.8,76.7-9.9,93.2-49.5c11.5-27.8,5.8-55.5-13.5-78.9c-30.8-36.6-68.7-23.9-111.1-13.2C667.2-514.5,677.4-468.6,688.1-421z
	 M-491,630.2c4.1-20.1-4.7-37.9-24.2-39.6c-12.6-1.1-32.4,8.2-39,19c-10.7,17.6-13.2,40.1-19.5,61.9c23.1,6.6,42.6,11.8,66,18.4
	C-501.1,667.6-494.8,649.2-491,630.2z M2580.7,688.8c7.7,42.1,13.2,82.8,59.9,95.4c30.2,8.2,58-1.1,78.4-24.7
	c28-32.4,14.3-67.4,3-103.4C2673.7,667,2627.2,677.8,2580.7,688.8z"/>
</svg>
