<?xml version="1.0" encoding="utf-8"?>
<!-- Generator: Adobe Illustrator 23.1.0, SVG Export Plug-In . SVG Version: 6.00 Build 0)  -->
<svg version="1.1" id="Layer_1" xmlns="http://www.w3.org/2000/svg" xmlns:xlink="http://www.w3.org/1999/xlink" x="0px" y="0px"
	 viewBox="0 0 535 1019.3" style="enable-background:new 0 0 535 1019.3;" xml:space="preserve">
<style type="text/css">
	.st0{stroke:#000000;stroke-width:5.5458;stroke-miterlimit:10;}
</style>
<g>
	<path class="st0" d="M254-280.5v-159.6h-67.2c21,55.5,41.1,108.3,60.9,160.8C251.6-279.9,250.7-279.9,254-280.5z"/>
	<path class="st0" d="M257.9-169.2c0-13.2-5.1-27.3-9.9-39.9c-25.5-66-51.6-132-77.1-198.6c-8.4-21-15-42.6-23.4-66
		c87.3,0.9,170.4,0.9,254.7,0.9c-2.1,8.4-3.3,15.6-6,22.2c-29.4,77.7-60,154.8-88.2,232.8c-9,23.7-15,49.8-15,75
		c-1.8,96,0,192.6,0,288.3c0,15.6,0,31.2,0,46.5l456.6,0.9C592.1-126,434.9-441.3,276.2-762.9C116.6-440.1-37.6-129.9-196.9,192.8
		c75.3,0.9,403.5-1.8,455.4-2.1C258.5,68.6,259.1-50.4,257.9-169.2z"/>
	<path class="st0" d="M293-439.2v158.7c1.5,0.6,3.9,0.6,6,1.2c19.5-53.1,39.6-105.9,60-160.2C333.5-439.5,311.9-439.5,293-439.2z"/>
	<path class="st0" d="M437.6,471.2c4.8-0.3,9-7.2,9-12.6c0-20.4,0.3-88.2,0.3-96.9c0-5.7-0.6-10.5-2.7-12.3
		c-5.1-3.6-22.8-0.9-32.7-1.2c-9.3-0.3-23.1-0.6-27.9,2.1c-3,1.8-3.3,4.5-4.2,7.8c-0.6,2.4-2.1,71.7-2.7,94.5
		c-0.9,22.5,3.3,18.6,7.8,18.6C396.8,471.5,428.9,472.1,437.6,471.2z"/>
	<path class="st0" d="M131.3,350.3c-10.2,0.6-6,1.2-6.3,28.5c-0.6,26.7-1.5,54-1.2,82.5c0,4.2-0.3,12.6,3.6,12.9
		c18,0.3,44.4-0.6,55.2-1.2c8.1-0.6,5.1-9.3,5.4-15.6c1.5-27,1.2-65.4,0.9-93.3c0-8.1,2.4-13.2-4.5-15.3
		C184.4,349.1,142.1,349.7,131.3,350.3z"/>
	<path class="st0" d="M778.3,258.8c-7.8-16.5-17.1-19.8-35.4-19.8c-24,0-312,0-338.1,0c-201.3,0-403.2-0.6-605,0
		c-17.7,0-25.5,11.4-33.3,26.4c-35.4,72-72.6,143.1-107.1,215.7c-5.4,11.7-5.1,31.2,1.2,43.2c33.9,72,69.9,141.9,104.4,213.6
		c7.8,16.5,18.3,20.1,34.8,20.1c262.2-0.3,656.6,2.1,919.1,2.1c0,0,25.2,0,39-3.3c16.5-3.9,21.9-8.7,29.1-24
		c34.8-71.4,71.1-141.9,105.3-213.6c4.5-9,3.3-23.4-1.2-32.1C854.2,410.3,815.5,334.7,778.3,258.8z M-17.5,682.7
		c-16.8,0-30.6-0.6-44.1,0c-16.2,0.6-22.2-6.6-26.1-22.2c-17.7-73.5-36.9-146.4-55.2-219.3c-2.1-8.4-4.5-17.1-7.8-30.3v268.8h-44.4
		V308.6c67.8-8.4,68.1-9,83.4,50.1c16.2,60.6,31.8,122.1,49.8,182.7V308.3h44.4L-17.5,682.7L-17.5,682.7z M244.7,682.4
		c-18.3,0.6-33.9,1.2-54.3,2.1c-1.2-41.1-2.7-79.2-2.7-117.6c-0.6-45.6-8.4-52.8-60.6-46.5c-1.2-0.3-4.2,53.4-4.2,124.5
		c-1.5,33.3,5.7,36.9-17.4,36.6c-7.5,0-17.4-0.6-30.6-0.3C74.3,557,74.3,434,73.7,308.6c41.7,0,80.4-1.2,118.8,0.6
		c28.2,1.2,45.9,17.7,48.3,47.1c2.1,24.3,5.1,49.8,1.8,74.4c-2.7,21-14.4,40.5-23.7,64.8C260,507.5,242.6,630.2,244.7,682.4z
		 M498.2,581.6c0,32.1,0,64.2,0,98.1c-2.7,0.6-6.3,2.1-9.6,2.1c-12.9,0.9-39.9-0.3-39.9-0.3s-0.3-22.2-0.9-39.6
		c-0.6-26.7-4.2-53.7-6.6-80.4c-3.3-45.9-8.4-49.5-59.7-42.6v161.4h-55.2c0.9-122.7,0.9-246,0.9-374.1c41.4,0,81.9-1.2,122.1,0.6
		c21.6,0.6,39.3,12.3,42,34.5c4.5,32.7,8.1,66,5.7,98.1c-1.2,17.1-16.5,33.3-27.3,52.8C500.9,511.1,498.2,547.1,498.2,581.6z
		 M708.1,683c-36.3,1.2-72.9,0-110.4,0V308.6h55.5v325.5c31.8,0.6,59.1,0.6,88.2,0.6C750.7,679.7,748.9,681.8,708.1,683z"/>
	<path class="st0" d="M1004.5,464c-57-111.6-111.9-224.7-168-336.6C669.4-207.3,502.1-542.1,334.7-877.2
		c-18.9-37.8-37.2-75.9-58.5-118.8c-16.2,31.2-29.4,56.1-42.3,82.2C2.9-446.1-229,21.8-460.8,488.9c-7.8,15.6-6,26.1,0.6,40.5
		c80.4,163.2,159.6,326.1,239.7,489.3c128.1,259.8,256.8,519.5,384.9,779c33.3,67.8,67.2,134.7,103.2,206.4
		c7.2-12.3,12.9-20.4,17.1-29.4c67.8-135.3,134.7-270.6,201.9-405.9c172.5-345,344.4-689.3,518-1033.7
		C1017.4,509.6,1017.4,489.5,1004.5,464z M937.3,522.2c-218.4,439.2-438.3,878-657.2,1316.6c-2.7,4.5-6,9-9.9,15.6
		c-79.2-158.7-157.5-315.3-234.6-472.2c-135.3-274.5-270-549.5-405-824c-5.4-11.1-13.8-21-16.2-32.1c-2.7-13.8-5.4-31.5,0-43.2
		c200.7-405,402.6-809,604.4-1213.4c18.9-37.8,37.8-75.9,58.2-117.6c13.2,25.5,24.3,47.7,35.4,69.9
		c208.5,420.6,417,841.1,624.2,1262C941.8,494.3,942.1,511.4,937.3,522.2z"/>
	<path class="st0" d="M293,1245.7h179.1c-0.6,13.2-1.2,23.1-1.8,33.3H82.1v-33.3H254V802.1h-457.5c0,0,317.4,638.3,478.8,962.6
		c161.4-325.5,318.3-643.4,477.6-968.3H293V1245.7z M303.8,1611.7H254v-33.3h49.8V1611.7z M187.7,1506.4v-38.7h187.1
		c0.2,13.6,0.3,24.3,0.3,38.7H187.7z M415.1,1395.4H132.2c-1.2-10.5-2.1-20.4-3.3-33.3h286.2V1395.4z"/>
</g>
</svg>
