<?xml version="1.0" encoding="utf-8"?>
<!-- Generator: Adobe Illustrator 23.1.0, SVG Export Plug-In . SVG Version: 6.00 Build 0)  -->
<svg version="1.1" id="Layer_1" xmlns="http://www.w3.org/2000/svg" xmlns:xlink="http://www.w3.org/1999/xlink" x="0px" y="0px"
	 viewBox="0 0 562.9 537.2" style="enable-background:new 0 0 562.9 537.2;" xml:space="preserve">
<style type="text/css">
	.st0{stroke:#000000;stroke-width:6.6279;stroke-miterlimit:10;}
</style>
<path class="st0" d="M280-482.4c-416.1,0-747.6,332.1-750,746.7c-2.1,406.8,328.2,748.2,747.6,750.3
	C691.3,1016.7,1030,678,1030,265.2S694.3-482.1,280-482.4z M302.2,806.1C15.1,816.6-233.9,585.6-244.7,298.2
	c-11.1-293.1,217.8-542.4,513-551.4C563.8-262.5,805.9-33,816.4,260.7C828.1,548.1,595,795.3,302.2,806.1z M558.4-299.7
	c9.9-21.6,19.2-41.4,29.1-62.7c6.9,2.4,13.8,4.5,22.8,7.2c-16.5,38.4-32.4,75.3-50.4,116.7c-38.7-21.3-18.6-63.3-36.9-91.5
	c-9.6,20.7-18.6,40.2-28.5,61.5c-7.5-3.3-13.8-6.3-21.9-9.9c16.8-38.4,33-75.3,51.3-117.3C556.6-367.8,545.2-330.9,558.4-299.7z
	 M-131.3,816.6c-10.2,3.9-27-4.8-39-11.4c-12-6.6-21.6-17.4-34.5-28.2c26.7-31.2,52.2-60.9,78.9-91.8c15,13.2,29.7,24,42,36.9
	c19.8,21,9.9,45-17.4,61.5C-111.2,795-118.7,811.8-131.3,816.6z M136-413.7c27.9-3.6,54.9-18.9,82.2,1.8
	c14.1,10.8,26.4,66.6,17.7,86.4c-15.6,35.7-50.1,27-80.7,34.8C148.6-333.9,142.6-372,136-413.7z M445.6-411.3
	c10.5,4.8,21.6,16.8,24,27.3c2.4,10.8-2.4,29.7-10.5,34.5c-17.7,10.2-14.4,20.7-9.3,34.8c3.3,9,5.1,18.6,7.5,28.5
	c-19.8,5.1-26.4-4.5-31.8-19.5c-4.8-13.2-13.2-25.2-20.1-37.8c-4.8,13.2-9.6,26.1-14.4,39.3c-0.6,1.5-1.2,3-2.7,6
	c-6.3-0.9-13.2-2.1-21.6-3.3c8.4-40.8,16.2-80.1,24.9-122.1C412-419.4,430-418.5,445.6-411.3z M2.8,914.4
	c13.8-37.8,27.3-74.7,41.1-112.8c13.8,4.8,26.1,8.7,38.4,13.2c18,6.9,35.7,18,32.4,38.4c-2.4,14.4-16.5,26.7-25.5,39.9
	c-2.1-1.2-4.2-2.1-6.3-3.3c1.5,17.1,3.3,34.2,4.8,51.6c-18.6,2.4-25.2-5.1-27-22.5c-1.2-12.9-8.7-25.5-13.5-38.1
	c-6.3,10.5-12.3,21-18.6,31.5c-1.2,2.1-2.1,4.5-4.2,9C16.6,918.9,10.6,917.1,2.8,914.4z M15.1-293.4c4.2,8.7,8.1,16.2,12.6,25.5
	c18-8.1,34.2-15.3,51.6-22.8c3,6.3,5.4,12.3,8.7,19.5c-24.6,11.4-48.3,22.5-74.1,34.5c-17.7-37.5-34.5-73.8-52.8-112.8
	c24.9-11.7,48.9-23.1,74.1-35.1c3.3,6.9,5.7,12.3,9.3,19.8c-16.8,8.1-32.1,15.3-49.8,23.7c3.3,8.7,6.3,16.5,8.1,21.3
	c19.8,8.4,37.2-28.5,56.4,3.3C44.2-308.4,30.7-301.2,15.1-293.4z M719.5-284.7c-4.5,6-8.7,11.1-13.5,17.1
	c-15.9-10.2-30.3-19.8-46.5-30.6c-5.4,7.8-10.2,14.7-15.9,22.8c13.5,9.6,25.5,18.3,38.4,27.3c-3.9,6.3-7.2,11.4-11.1,18
	c-13.5-8.7-25.8-16.8-40.8-26.4c-5.1,7.5-10.5,15.3-16.8,24.6c15.6,10.8,30.3,21,47.1,32.7c-4.5,6-8.4,11.4-12.6,17.4
	c-23.1-15.6-44.1-29.7-67.2-45.3c23.7-34.8,46.5-68.7,70.2-103.5C674.2-315.3,695.8-300.3,719.5-284.7z M244.3,851.1
	c27.3,2.7,62.7-13.8,76.8,15.9c11.1,23.1,11.4,57.6,2.7,82.2c-12.6,35.4-49.8,16.2-79.8,22.2C244.3,929.4,244.3,891.6,244.3,851.1z
	 M501.4,877.8c1.8,18.3,3.6,35.4,5.4,54.9c-3,1.2-8.7,3.6-17.4,7.2c-14.4-37.5-28.5-74.1-42.9-111.6c6.3-2.4,12.3-4.8,20.7-8.1
	c6.3,14.7,12.3,28.5,18.3,42.9c18.6-19.5,4.5-59.4,42.6-65.7c1.2,2.7,2.4,4.8,1.8,5.7c-24,42.3-2.7,67.8,32.7,88.2
	c5.4,3.3,10.2,7.8,16.5,12.9C541.6,928.2,532.3,883.5,501.4,877.8z M12.7,786c12.9,8.1,12.6,8.4,1.8,23.4
	c-15-7.8-30.3-15.9-47.1-24.6c-4.5,7.5-8.7,13.8-13.8,22.2c13.2,8.4,24.9,15.6,36.6,22.8c-5.4,18-5.4,18-47.1-1.5
	c-2.4,3-4.8,6-6.9,9.3c-2.7,3.9-4.8,8.1-6.9,11.7c15.6,11.4,30.3,21.3,43.8,32.4c0.9,0.6-4.5,9-8.1,15.3
	c-23.4-13.8-45-26.4-68.4-40.2C-83,822-63.5,789-42.5,753C-22.4,765-4.7,775.2,12.7,786z M145.9,835.5c24.3,4.2,47.7,7.8,70.5,13.2
	c3.3,0.9,4.5,10.8,8.1,21c-21.9-3.3-38.7-5.7-57-8.7c-2.1,8.4-4.2,16.2-6.6,26.1c15.9,3.3,30,6.3,47.7,9.6
	c-8.1,36.9-35.1,3.3-50.7,13.8c-1.5,8.4-3,16.5-5.1,27c18.3,3.3,34.2,6.3,51.3,9.3c4.2,13.8,1.8,22.2-15.6,19.2
	c-20.1-3.6-40.2-7.8-63.3-12.6C132.1,914.1,138.7,876.3,145.9,835.5z M292-379.2c15.3,0,30.6,0,49.8,0
	c-4.8,39.6-34.8,13.2-50.4,26.7c-0.3,4.8-0.6,13.5-1.2,24.6c18.6,1.2,35.7,2.4,53.7,3.6c6,12.9,5.4,21.3-12.9,20.7
	c-21.3-0.6-42.6,0-63.9,0c0-43.2,0-83.4,0-124.5c27.9,0,54,0,79.8,0c1.8,20.4,1.8,20.4-17.7,20.4c-11.4,0-23.1,0-37.5,0
	C292-398.1,292-390,292-379.2z M-180.8-219c-5.1,5.4-12,9-15.9,14.7c-2.4,3.9-2.7,12.6,0,15c3.9,3.6,12,5.7,16.8,4.2
	c7.5-2.4,13.5-8.7,20.4-13.5c14.7-10.2,29.7-10.2,42.9,1.8c12.6,11.4,17.4,25.5,10.2,42.3c-10.5,23.7-27.9,37.5-60,35.4
	c4.5-6,8.1-12.6,13.5-18c5.1-5.1,14.1-7.5,17.1-13.5c3.9-7.2,3.3-16.8,4.8-25.5c-8.1,0.6-17.7-1.8-23.7,2.1
	c-15.3,9.9-30.3,25.5-48.3,11.1c-9.9-8.1-18.6-24.3-18.3-36.6c0.3-22.5,18.3-35.4,38.7-42.9c3-1.2,6.3-1.2,9.3-1.8
	c2.4,2.1,4.5,3.9,6.9,6C-171.2-231-175.7-224.7-180.8-219z M-67.4-212.4c3.9,6,8.4,12,13.5,19.5c-6.9,4.8-12.9,8.7-19.5,13.5
	c-11.1-15.3-21.6-28.8-31.5-42.9c-13.2-18.9-25.8-37.8-39.9-58.8c16.8-11.7,31.2-24,47.7-32.7c15.9-8.4,32.1-5.1,44.4,9.9
	c11.7,14.4,15.6,30,3.9,45.3c-7.8,10.2-18.6,18.3-30,28.8C-75.2-224.4-71.6-218.4-67.4-212.4z M691.6-175.5
	c5.1,5.1,7.5,14.1,13.5,17.1c6.6,3.6,15.6,2.4,23.7,3.3c0-7.5,0.9-15.3-0.6-22.2c-1.2-5.1-6-9.6-9.6-14.1
	c-12.3-15-12.6-29.7,1.5-43.8c14.4-14.4,31.8-17.1,46.8-5.7c13.5,10.2,22.8,25.8,33.9,39c-2.7,3-5.4,6-8.1,8.7
	c-7.2-4.8-14.7-9.3-21.6-14.7c-5.1-3.9-8.4-11.1-13.8-13.5c-4.8-2.1-13.5-1.8-17.1,1.2c-3.3,3-3.6,11.7-1.8,16.5
	c2.4,6.6,8.1,12.3,12.6,18.3c10.5,14.4,11.4,29.1-0.6,42.9c-11.1,13.2-24.6,18.3-42,11.7c-22.8-8.7-37.5-28.2-39.3-61.5
	C678.7-184.8,685.9-180.9,691.6-175.5z M395.5,859.8c-7.5,2.7-13.5,9.3-20.1,14.1c6.3,4.5,12.6,12.3,19.5,12.9
	c38.7,3,52.2,12.6,50.1,38.7c-1.8,23.1-28.2,39.3-59.1,35.7c-7.8-0.9-15.3-4.5-22.8-6.9c-0.6-2.4-0.9-4.8-1.5-7.2
	c7.5-2.4,14.7-5.7,22.2-7.2c7.2-1.2,15.9,1.5,21.9-1.2c6.3-3,10.2-10.8,15-16.5c-6-3.9-11.7-9.3-18.3-11.7
	c-14.7-5.4-32.7-6-43.5-15.3c-6.3-5.4-7.5-29.4-1.2-35.1c12-11.4,30-17.1,46.5-22.8c5.7-1.8,13.8,3.6,20.7,5.7
	c0.6,3.6,0.9,7.5,1.5,11.1C415.6,855.9,405.1,856.2,395.5,859.8z M575.2,779.1c-0.6-4.2,3.3-12.3,6.6-13.2c5.1-1.5,12.9,0,17.4,3.3
	c29.4,22.5,58.2,45.6,86.7,75.6c-11.4,0-22.8,0-34.5,0c0-1.5-0.3-3-0.3-4.5c-8.7,4.8-18,8.7-25.2,14.7c-4.5,3.6-6,10.8-8.7,16.5
	c-3.3,7.5-6.6,15.3-9.6,22.8c-3.3-0.6-6.6-1.5-9.9-2.1C590.2,854.4,582.1,816.9,575.2,779.1z M715,819.3
	c-26.7-30-53.1-59.4-80.1-89.7c14.1-12.6,25.8-25.5,39.9-35.4c15.6-10.8,33-11.1,47.4,3.6c14.7,14.7,16.2,32.1,3.9,49.2
	c-5.7,7.8-13.8,14.1-22.2,22.8c8.7,10.8,17.7,22.2,27.3,33.9C725.8,809.1,721.3,813.3,715,819.3z M94.6-402.3
	c12.3,39.9,24.3,78.9,36.9,119.1c-9,2.4-15.9,4.5-24,6.6c-12.3-40.5-24-79.5-36.3-120C79.6-398.4,86.5-400.2,94.6-402.3z
	 M94.9,100.5C64,89.1,33.7,75.6,1.9,66.6c-48.6-13.5-98.1,13.2-116.4,60c-13.5,34.8-7.5,69.6-1.5,105c4.5,27.9,6,57,5.4,85.5
	c-0.9,43.5-9.6,87.3-5.4,130.2c4.5,49.5,35.4,73.8,84.9,70.5c29.4-2.1,59.4-12.6,87-24.6c42-18.3,82.2-41.4,124.5-63
	c-20.7-29.1-45.9-55.8-81.6-69.9c-25.2-9.9-52.2-11.4-77.1,2.4c-24,13.5-43.5,30.6-39.3,62.7c0.3,3.3-5.1,10.2-7.5,10.2
	c-5.1-0.6-10.8-3.6-14.4-7.5c-36.6-42-53.4-127.2-13.2-174.3C-5,198,70.6,183.9,129.4,224.7c22.8,15.6,41.1,37.5,61.2,56.7
	c1.2,0.9,2.4,1.8,3.6,2.7c-0.6-1.5-1.2-3-1.8-4.5c-35.4-138.3-0.9-268.5,47.7-397.8c-37.8-8.7-72.9-20.4-108.6-23.7
	c-20.1-1.8-45.9,4.2-61.5,16.5C22.6-87.9,16-10.8,52,38.1c14.7,20.1,30.3,39,45.6,58.5C97,97.5,96.1,99,94.9,100.5z M389.8,430.2
	c18,8.4,32.7,15.6,47.7,22.5c45.6,21,89.7,46.5,137.1,62.1c48.3,15.9,91.2-2.4,104.4-40.8c9.3-27.3,13.8-58.2,11.4-86.7
	c-4.8-61.5-15-120.6,1.5-183.6c17.7-66.9-13.8-132.9-90.3-138.6c-20.4-1.5-42.3,4.8-62.4,10.8c-23.1,6.9-45,17.4-67.2,26.4
	c-0.9-1.5-1.8-2.7-2.4-4.2c6-6.6,12-13.2,18-19.8C522.4,39.9,549.1-0.6,539.8-57c-8.7-53.1-49.8-94.5-95.7-87.3
	c-37.8,6-75,16.8-113.1,25.8c49.5,129,81,257.7,50.4,395.1c13.8-11.1,24.9-24.3,37.5-35.7c54.9-50.7,132-51.6,187.5-6.3
	c59.1,48.3,45,141.6,10.8,184.5c-5.7,7.5-13.8,12.9-23.7,21.6c-2.7-9.3-4.2-12.3-4.5-15.6c-2.4-45.3-24.6-67.5-68.4-71.4
	C457.9,348.9,424.3,389.4,389.8,430.2z M286-167.4c-3,5.1-5.4,7.5-6.3,10.2c-21,59.7-48,118.2-61.5,179.7
	c-12.9,58.8-21.6,121.8-15,180.9c8.7,80.1,33.3,158.4,51.6,239.1c19.2,0,42.6,0,60,0c15.3-61.8,30.9-120.3,44.1-179.4
	c7.2-31.8,14.7-65.1,14.1-97.2C370.3,49.5,337.3-59.7,286-167.4z M-36.8,391.2c44.4-57.3,87.3-72.9,142.8-50.4
	c43.5,17.7,74.7,50.7,99,90.3c2.4,4.2,5.7,8.1,8.4,12c0.3-81-23.1-150-90.3-199.5C78.7,210.9,22,216.3-24.8,253.8
	C-60.5,282.3-62.9,350.7-36.8,391.2z M356.5,437.1c24.6-25.2,48.6-52.2,75-76.2c30.3-27.6,67.5-33,106.8-25.5
	c33,6.3,53.1,29.7,69.9,57c24.6-41.4,23.4-97.8-2.1-128.4c-31.2-37.2-89.7-53.1-132.6-36C405.4,255.3,345.1,365.4,356.5,437.1z
	 M285.7,519.6c-9,0-18.6-1.8-27.3,0.6c-6.3,1.5-14.7,7.5-16.2,12.9c-12,49.5-23.1,99.3-33.3,149.4c-1.2,6.6,2.7,18,8.1,21.9
	c66,49.5,66,49.2,133.5,3.3c0.6-0.6,1.5-0.9,2.1-1.2c11.7-5.7,12.9-13.2,9.6-26.1c-12-48-21-96.3-33-144.3
	c-1.8-6.6-11.4-12.9-18.9-15.6C303.1,517.5,293.8,519.6,285.7,519.6z M52,584.1c21.3,34.8,43.8,44.4,77.7,35.7
	c38.7-10.2,79.2-59.4,81-105.9c-11.4,3.9-24,4.2-29.4,10.8C148,564.9,106.3,585,52,584.1z M519.7,584.7c-63-3.6-90-15.6-128.7-60
	c-11.1-12.9-20.1-10.5-30.9-2.7c3.3,39.9,48.6,91.2,84,99C475.6,627.6,498.7,617.7,519.7,584.7z M287.8,463.8c0,0.3,0,0.3,0,0.6
	c-28.2,0-56.4-0.9-84.3,0.6c-7.5,0.6-14.7,8.7-22.2,13.2c6.3,6,12.6,17.1,18.9,17.4c58.5,0.9,117,0.6,175.5-0.9
	c5.4,0,10.2-10.8,15.3-16.5c-6.3-4.8-12.3-13.2-18.9-13.5C343.9,462.9,315.7,463.8,287.8,463.8z M436.9,643.8
	c-25.8-18.6-51-37.2-76.8-56.1c7.2,28.2,14.7,57.3,22.8,89.1C403.6,663.9,421.9,653.1,436.9,643.8z M188.8,677.7
	c8.1-32.4,15.6-62.1,22.5-90c-25.5,18.9-51,37.5-76.5,56.1C149.8,653.1,167.8,664.2,188.8,677.7z M-174.5,778.5
	c13.5,6.9,23.4,13.2,34.2,17.1c1.8,0.6,10.8-9.6,9.6-11.4c-5.4-10.8-12.9-20.7-20.7-32.4C-159.8,761.7-164.9,767.7-174.5,778.5z
	 M-137.6,735c0,3.3-0.3,6.6-0.3,9.9c11.7,2.4,30.9,10.2,34.2,6c13.8-17.7-7.2-23.1-17.1-34.5C-127.1,723.6-132.5,729.3-137.6,735z
	 M163.6-403.5c5.1,33.6,8.7,58.8,13.2,90.3c14.4-7.5,32.4-12.3,32.7-18c1.2-19.8-0.9-41.1-7.5-59.7
	C199.3-397.5,180.4-398.4,163.6-403.5z M404.5-364.8c15.6,0.6,34.2,16.2,40.5-6.9c6.9-25.2-18.6-19.8-33.3-26.7
	C409-387.3,406.9-377.4,404.5-364.8z M45.1,863.7c16.8,0,29.1,0.9,41.1-0.6c2.4-0.3,6.3-12.6,4.5-14.1c-8.1-7.8-17.7-14.1-28.5-22.2
	C56.2,839.4,52.6,847.2,45.1,863.7z M267.7,956.1c15.9-7.5,34.5-11.1,36-18.3c3.9-18.3,3-39-1.8-57c-1.8-6.6-20.7-8.7-34.2-13.5
	C267.7,898.2,267.7,922.5,267.7,956.1z M-115.4-279.9c9.9,14.1,15.6,21.6,23.7,33c9.3-11.1,18-20.1,24.3-30.6
	c1.2-2.1-7.2-14.7-9.9-14.1C-89-289.8-100.4-285-115.4-279.9z M606.4,801c-1.5,0.9-2.7,1.8-4.2,2.7c2.7,11.1,5.4,22.2,8.7,36
	c9.6-6.3,15.9-10.5,23.4-15.6C623.8,815.4,615.1,808.2,606.4,801z M663.7,726.6c10.5,11.7,17.1,18.9,27.9,30.9
	c7.2-14.1,13.2-24,17.1-34.5c0.9-2.4-7.8-11.4-10.2-10.8C687.4,715.2,677.2,720.6,663.7,726.6z M437.2,452.7
	c45.6,21,89.7,46.5,137.1,62.1c48.3,15.9,91.2-2.4,104.4-40.8c9.3-27.3,13.8-58.2,11.4-86.7c-4.8-61.5-15-120.6,1.5-183.6
	c17.7-66.9-13.8-132.9-90.3-138.6c-20.4-1.5-42.3,4.8-62.4,10.8c-23.1,6.9-45,17.4-67.2,26.4c-0.9-1.2-1.8-2.7-2.4-4.2
	c6-6.6,12-13.2,18-19.8C522.1,39.9,548.8-0.6,539.5-57c-8.7-53.1-49.8-94.5-95.7-87.3c-37.8,6-75,16.8-113.1,25.8
	c49.5,129,81,257.7,50.4,395.1c13.8-11.1,24.9-24,37.5-35.7c54.9-50.7,132-51.6,187.5-6.3c59.1,48.3,45,141.6,10.8,184.5
	c-5.7,7.5-13.8,12.9-23.7,21.6c-2.7-9.3-4.2-12.6-4.5-15.6c-2.4-45.3-24.6-67.5-68.4-71.4c-62.1-5.4-95.7,35.4-130.2,75.9
	C407.8,438.9,422.5,445.8,437.2,452.7z M193.3,279.3C157.9,141,192.4,10.8,241-118.5c-37.8-8.7-72.9-20.4-108.6-23.7
	c-20.1-1.8-45.9,4.2-61.5,16.5C23.5-88.2,17.2-11.1,52.9,37.8c14.7,19.8,30.3,39,45.6,58.5c0.9,1.5,1.8,3.3,2.4,4.8
	c-2.1-0.3-3.9-0.3-6-0.6C64,89.1,33.4,75.6,1.9,66.6c-48.6-13.5-98.1,13.2-116.4,60c-13.5,34.8-7.5,69.6-1.5,105
	c4.5,27.9,6,57,5.4,85.5c-0.9,43.5-9.6,87.3-5.4,130.2c4.5,49.5,35.4,73.8,84.9,70.5c29.4-2.1,59.4-12.6,87-24.6
	c42-18.3,82.2-41.4,124.5-63c-20.7-29.1-45.9-55.8-81.6-69.9c-25.2-9.9-52.2-11.4-77.1,2.4c-24,13.5-43.5,30.6-39.3,62.7
	c0.3,3.3-5.1,10.2-7.5,10.2c-5.1-0.6-10.8-3.6-14.4-7.5c-36.6-42-53.4-127.2-13.2-174.3C-5,198,70.6,183.9,129.4,224.7
	c22.5,15.6,41.1,37.5,61.2,56.7C191.8,280.5,192.4,279.9,193.3,279.3z M279.7-157.2c-21,59.7-48,118.2-61.5,179.7
	c-12.9,58.8-21.6,121.8-15,180.9c8.7,80.1,33.3,158.4,51.6,239.1c19.2,0,42.6,0,60,0c15.3-61.8,30.9-120.3,44.1-179.4
	c7.2-31.8,15-64.8,14.1-97.2c-2.7-116.4-35.7-225.6-87-333.3C283-162.6,280.6-160.2,279.7-157.2z M105.7,340.8
	c43.5,18,74.7,50.7,99,90.3c2.4,4.2,5.7,7.8,8.4,12c0.6-81-23.1-150-90.3-199.5c-44.4-32.4-101.1-27.3-147.9,10.2
	c-35.7,28.5-38.1,96.9-12,137.4C7.6,333.9,50.5,318,105.7,340.8z M431.5,360.9c30.3-27.6,67.5-33,106.8-25.5c33,6.3,53.1,30,69.9,57
	c24.6-41.4,23.4-97.8-2.1-128.4c-31.2-37.2-89.7-53.1-132.6-36C406,255,345.7,365.4,356.8,437.1
	C381.1,411.9,405.1,385.2,431.5,360.9z M258.4,520.2c-6.3,1.5-14.7,7.5-16.2,12.9c-12,49.5-23.1,99.3-33.3,149.4
	c-1.2,6.6,2.7,18,8.1,21.9c66,49.5,66,49.2,133.5,3.3c0.6-0.6,1.5-0.9,2.1-1.2c11.7-5.7,12.9-13.2,9.6-26.1c-12-48-21-96.3-33-144.3
	c-1.8-6.6-11.7-12.9-18.9-15.6c-7.2-2.7-16.2-0.6-24.6-0.6C276.4,519.6,267.1,518.1,258.4,520.2z M129.7,619.8
	c38.7-10.2,79.2-59.4,81-105.9c-11.4,3.9-24,4.2-29.4,10.8C148,564.9,106.3,585,52,584.1C73.3,618.9,95.8,628.5,129.7,619.8z
	 M391,524.7c-11.4-12.9-20.1-10.2-30.9-3c3.3,39.9,48.6,91.2,84,99c31.5,6.9,54.6-3.3,75.9-36C456.7,581.1,429.7,569.4,391,524.7z
	 M287.8,464.4c-28.2,0-56.4-0.9-84.3,0.6c-7.5,0.3-14.7,8.7-22.2,13.2c6.3,6,12.6,17.1,18.9,17.4c58.5,0.9,117,0.6,175.5-0.9
	c5.1,0,10.2-10.8,15.3-16.5c-6.3-4.8-12.3-13.2-18.9-13.5c-27.9-1.5-56.1-0.6-84.3-0.6C287.8,464.1,287.8,464.1,287.8,464.4z
	 M360.1,587.7c7.2,28.2,14.7,57.3,22.8,89.1c21-12.9,39-24,54.3-33C411.1,625.2,385.9,606.6,360.1,587.7z M211.3,587.4
	c-25.8,18.9-51,37.5-76.5,56.1c15,9.3,33,20.7,54,33.9C196.9,645,204.4,615.3,211.3,587.4z M193,279.3c0.6,1.5,1.2,3,1.8,4.5
	c-1.2-0.9-2.4-1.8-3.6-2.7C191.8,280.5,192.4,279.9,193,279.3z M98.2,96.3c0.9,1.5,1.8,3.3,2.4,4.8c-2.1-0.3-3.9-0.3-6-0.6
	C96.1,99,97,97.5,98.2,96.3z"/>
</svg>
