<?xml version="1.0" encoding="utf-8"?>
<!-- Generator: Adobe Illustrator 23.1.0, SVG Export Plug-In . SVG Version: 6.00 Build 0)  -->
<svg version="1.1" id="Layer_1" xmlns="http://www.w3.org/2000/svg" xmlns:xlink="http://www.w3.org/1999/xlink" x="0px" y="0px"
	 viewBox="0 0 137.5 124.8" style="enable-background:new 0 0 137.5 124.8;" xml:space="preserve">
<style type="text/css">
	.st0{stroke:#000000;stroke-width:3.1642;}
</style>
<path class="st0" d="M32.2,117.3c0.3,30.6-11.9,39.5-40.6,30.3c-0.7-0.2-1.7,0.9-3.1,1.6c0.2,10.2,5.8,17.9,13.7,23.4
	C21.5,186,41.6,198.4,61,211.7c7.2,5,12.9,4.4,20-0.4c19-13.1,38.6-25.3,57.6-38.4c8.2-5.7,13.6-13.6,14.4-24.8
	c-34.7,7.2-44.2,0.2-43.1-30.3c12.8,6.3,25.1,13.5,38.2,18.6c29.7,11.4,49.7-0.8,47.5-31.9c-1.6-22.4-3.4-44.4,1.1-67.2
	c5.2-26.8-19.7-44.8-45.7-36.1C145.6,3,140.4,5.2,132.8,8c5.5-8,10.2-13.6,13.4-20c7.7-15.2,4.7-29.7-5-43c-9.2-12.6-22-10-34.6-7.6
	c-4.1,0.8-8.2,2-12.1,3.5c-7.4,2.7-11.9,0.8-14.4-7c-2-6.1-5.2-11.7-8.4-18.7c-2.9,3.2-4.2,4.2-4.9,5.5c-3.6,6.9-5.5,17.1-11.1,19.8
	c-5.6,2.7-14.8-2.1-22.4-3.7c-1-0.2-2.1-0.5-3.1-0.6c-10-0.8-19.9-2.1-28,6.4C-9.7-44.8-12.4-23.9-3.1-9.1C0.2-3.8,4,1.1,9.5,8.8
	C3,6.1-0.6,4.6-4.3,3c-14.1-6-28.4-6.7-40.1,3.9c-11.4,10.3-14.1,24.4-9.9,39.2c3.6,12.9,5.3,25.6,1.7,38.8
	c-1.8,6.5-2.1,13.5-2.4,20.4c-1.2,25.7,15.1,39.6,40.2,34c5.6-1.2,10.9-3.8,16.1-6.3C11.5,128,21.7,122.7,32.2,117.3z M95.7,22.7
	c0.1,15-2.5,30.2-5.1,45.1c-2.8,15.4-7.1,30.6-11,47.1c-5.4,0-11.9,0-17.3,0c-5-19.7-10.5-38.7-14.8-58.1C39.7,21.5,48.7-12,60.3-45
	c2.6-7.4,6.1-14.4,10.4-24.2C84.8-37.9,95.6-8.8,95.7,22.7z M-26.9,97.4c-8.9-14.8-8.1-26.8,2.5-37.5c11.9-12,29.5-14.5,43.2-5.5
	C39.2,67.9,47.4,88,49,113C14.7,75.8-1.4,72.7-26.9,97.4z M93.6,112.5c-2.2-22.9,12-49.7,31.4-59.7c12.2-6.3,27.3-4.3,38.2,4.9
	c11.4,9.7,13.2,19.7,6.4,39.6C139.9,73.1,121.7,77,93.6,112.5z M92.3,182.5c2.3,8.5-0.7,13.9-8.2,18C77,204.4,71,211.8,62,203.8
	c-4.3-3.8-9.4-6.6-15-10.5c3.6-15.7,6.8-31.4,11.1-46.9c0.8-2.8,5.4-5.6,8.7-6.4c4.4-1.1,9.3-0.3,14.9-0.3
	C85.5,155.2,88.7,168.9,92.3,182.5z M45.3,137.1c-0.1,15.2-9.1,27.9-20.3,31.8c-9.6,3.3-15.7,1-24-9.9
	C19.8,160.9,31.8,148.9,45.3,137.1z M118.8,169.6c-10.7-1.9-19.4-12.2-24.6-28.7c11-2.3,13.5,9.8,21.3,12.2
	c7.8,2.5,15.7,4.9,24.5,7.6C135.4,170,127.5,171.1,118.8,169.6z M37.8,130.1c12.1-8.3,47.8-9.3,63.3-1.4
	C81.1,133.5,60.9,133.9,37.8,130.1z"/>
</svg>
